<svg viewBox="0 0 36 36" fill="none" xmlns="http://www.w3.org/2000/svg">
<path d="M6.73689 14.4347C5.85643 17.3357 3.55553 19.0869 2.22287 19.0869C1.99145 19.0869 1.77333 19.0869 1.77333 18.2291C1.77333 16.7172 4.23827 15.3068 6.73689 14.4347ZM8.86667 12C8.86667 12 0 13.7797 0 18.2291C0 20.0471 0.947847 20.8667 2.22287 20.8667C4.84918 20.8667 8.86667 17.3917 8.86667 12Z" fill="#C1694F"/>
<path d="M30.0671 15.4278C29.8222 13.5425 28.0088 12 26.0356 12H9.431C7.45789 12 5.64352 13.5425 5.39957 15.4278L3.82736 27.5714C3.58341 29.4575 4.99777 31 6.97089 31H28.4958C30.4689 31 31.8832 29.4575 31.6393 27.5714L30.0671 15.4278Z" fill="#A6D388"/>
<path d="M7.59998 13.2667C7.59998 13.2667 9.77844 20.767 11.0855 19.4434C12.3926 18.1198 7.59998 13.2667 7.59998 13.2667ZM27.8666 13.2667C27.8666 13.2667 25.6882 20.767 24.3811 19.4434C23.074 18.1198 27.8666 13.2667 27.8666 13.2667Z" fill="#77B255"/>
<path d="M33.7951 15.7905L27.0211 11.9527C26.7162 11.7763 26.392 11.8291 26.0766 11.9136L22.3948 12.9002C21.7174 13.0817 21.4421 13.5584 21.6237 14.2358L22.6107 17.9195C22.695 18.2341 22.8119 18.5403 23.1163 18.716L29.8703 22.6519C30.4776 23.0022 31.2328 22.7999 31.5832 22.193L34.2708 17.5223C34.621 16.9147 34.4019 16.1408 33.7951 15.7905ZM24.3161 14.8999C24.1596 15.1709 23.8132 15.2637 23.5422 15.1072C23.2712 14.9507 23.178 14.6045 23.3349 14.3334C23.4912 14.062 23.8377 13.9695 24.1087 14.126C24.3798 14.2828 24.4729 14.6288 24.3161 14.8999Z" fill="#FFD983"/>
<path d="M24.5182 13.4167C23.8557 13.0339 23.0084 13.2609 22.626 13.9238C22.2431 14.5863 22.4702 15.4336 23.1331 15.8164C23.7956 16.1989 24.6429 15.9718 25.0257 15.3093C25.4081 14.6464 25.1808 13.7996 24.5182 13.4167ZM24.3166 14.9001C24.1601 15.1711 23.8132 15.2637 23.5422 15.1072C23.2712 14.9507 23.178 14.6045 23.3349 14.3334C23.4912 14.062 23.8377 13.9695 24.1087 14.126C24.3797 14.2825 24.4733 14.6287 24.3166 14.9001Z" fill="#D99E82"/>
<path d="M23.4959 13.9895C23.677 14.094 23.7389 14.325 23.6344 14.5065C23.5298 14.6876 23.2988 14.7491 23.1178 14.6449L19.1869 12.3754C19.0058 12.2708 18.9439 12.0399 19.0484 11.8584C19.1529 11.6773 19.384 11.6158 19.565 11.72L23.4959 13.9895Z" fill="#C1694F"/>
<path d="M33.7951 15.7905L27.0211 11.9527C26.7162 11.7763 26.392 11.8291 26.0766 11.9136L22.3948 12.9002C21.7174 13.0817 21.4421 13.5584 21.6237 14.2358L22.6107 17.9195C22.695 18.2341 22.8119 18.5403 23.1163 18.716L29.8703 22.6519C30.4776 23.0022 31.2328 22.7999 31.5832 22.193L34.2708 17.5223C34.621 16.9147 34.4019 16.1408 33.7951 15.7905ZM24.3161 14.8999C24.1596 15.1709 23.8132 15.2637 23.5422 15.1072C23.2712 14.9507 23.178 14.6045 23.3349 14.3334C23.4912 14.062 23.8377 13.9695 24.1087 14.126C24.3798 14.2828 24.4729 14.6288 24.3161 14.8999Z" fill="#FFD983"/>
<path d="M24.5182 13.4167C23.8557 13.0339 23.0084 13.2609 22.626 13.9238C22.2431 14.5863 22.4702 15.4336 23.1331 15.8164C23.7956 16.1989 24.6429 15.9718 25.0257 15.3093C25.4081 14.6464 25.1808 13.7996 24.5182 13.4167ZM24.3166 14.9001C24.1601 15.1711 23.8132 15.2637 23.5422 15.1072C23.2712 14.9507 23.178 14.6045 23.3349 14.3334C23.4912 14.062 23.8377 13.9695 24.1087 14.126C24.3797 14.2825 24.4733 14.6287 24.3166 14.9001Z" fill="#D99E82"/>
<path d="M23.4959 13.9895C23.677 14.094 23.7389 14.325 23.6344 14.5065C23.5298 14.6876 23.2988 14.7491 23.1178 14.6449L19.1869 12.3754C19.0058 12.2708 18.9439 12.0399 19.0484 11.8584C19.1529 11.6773 19.384 11.6158 19.565 11.72L23.4959 13.9895Z" fill="#C1694F"/>
<path d="M29.4296 18.8469C29.9086 18.0172 28.2732 17.1452 28.5624 16.6442C28.7024 16.4018 29.014 16.4238 29.2962 16.5867C29.7708 16.8607 29.6874 17.2002 29.9023 17.3243C30.0545 17.4121 30.1806 17.363 30.2397 17.2606C30.3771 17.0226 30.1027 16.6239 29.7758 16.352L29.9084 16.1222C29.9911 15.979 29.9367 15.7925 29.7863 15.7057C29.6358 15.6188 29.447 15.6648 29.3642 15.8081L29.2269 16.0459C28.7816 15.9033 28.2902 15.9685 28.0438 16.3952C27.5837 17.1921 29.2063 18.0859 28.8831 18.6457C28.7711 18.8396 28.439 18.9064 28.0774 18.6977C27.5352 18.3846 27.5566 17.9303 27.3363 17.8032C27.229 17.7412 27.0834 17.7719 27.0085 17.9017C26.8895 18.1078 27.1086 18.5651 27.5668 18.9221L27.5655 18.9235L27.4158 19.1828C27.333 19.3262 27.3878 19.5128 27.5382 19.5997C27.6885 19.6864 27.8774 19.6405 27.9602 19.4971L28.1099 19.2379C28.1117 19.2348 28.1114 19.2315 28.1128 19.2287C28.6072 19.4077 29.142 19.3449 29.4296 18.8469Z" fill="#292F33"/>
</svg>
