<svg viewBox="0 0 36 36" fill="none" xmlns="http://www.w3.org/2000/svg">
<g clip-path="url(#clip0_42_93)">
<path d="M36 31.2C36 33.8508 33.8508 36 31.2 36H4.8C2.1492 36 0 33.8508 0 31.2V4.8C0 2.1492 2.1492 0 4.8 0H31.2C33.8508 0 36 2.1492 36 4.8V31.2Z" fill="#D99E82"/>
<path d="M33.6 31.2C33.6 32.5248 32.5248 33.6 31.2 33.6H4.80002C3.47522 33.6 2.40002 32.5248 2.40002 31.2V4.79999C2.40002 3.47399 3.47522 2.39999 4.80002 2.39999H31.2C32.5248 2.39999 33.6 3.47399 33.6 4.79999V31.2Z" fill="#5C913B"/>
<path d="M27.2836 8.93366C27.2836 9.75846 26.9307 10.4782 26.2105 10.9361C27.1527 11.3684 27.807 12.2451 27.807 13.2789C27.807 14.8495 26.3676 16.1716 24.509 16.1716C22.572 16.1716 21.3681 14.7448 21.3681 13.7111C21.3681 13.2008 21.905 12.8344 22.3761 12.8344C23.2659 12.8344 23.0565 14.3658 24.5356 14.3658C25.2161 14.3658 25.7661 13.8424 25.7661 13.1484C25.7661 11.316 23.5407 12.6643 23.5407 11.1198C23.5407 9.7458 25.3988 10.6749 25.3988 9.22196C25.3988 8.72429 25.0459 8.34481 24.4567 8.34481C23.2136 8.34481 23.3837 9.62718 22.4934 9.62718C21.9569 9.62718 21.6429 9.14302 21.6429 8.65886C21.6429 7.6382 23.043 6.5386 24.4959 6.5386C26.3811 6.5386 27.2836 7.913 27.2836 8.93366Z" fill="white"/>
<path d="M20.7684 9.78435C20.7684 11.7608 18.7663 14.5354 17.4442 15.7659C17.3395 15.8706 17.1824 15.9753 17.0254 16.08C16.8815 16.1716 16.7375 16.1716 16.6328 16.1716C16.2664 16.1716 15.7033 15.687 15.7033 15.2159C15.7033 15.0327 15.8211 14.8756 15.9781 14.6793C16.5016 14.0377 17.3526 13.2002 17.7844 12.5852L17.7582 12.559C17.5227 12.6637 17.2217 12.716 16.9338 12.716C15.3631 12.716 14.1984 11.3285 14.1984 9.78435C14.1984 8.08275 15.5463 6.5386 17.4834 6.5386C19.4991 6.5386 20.7684 8.04349 20.7684 9.78435ZM18.7266 9.78435C18.7266 9.05153 18.2682 8.42298 17.483 8.42298C16.7371 8.42298 16.2398 9.02494 16.2398 9.78435C16.2398 10.4783 16.6586 11.1457 17.483 11.1457C18.2297 11.1457 18.7266 10.5564 18.7266 9.78435Z" fill="white"/>
<path d="M10.3229 24.0658L12.5588 21.8299C12.824 21.565 12.824 21.1354 12.5588 20.8705C12.2936 20.6053 11.8642 20.6053 11.5994 20.8705L9.36348 23.1064L7.1276 20.8705C6.86271 20.6053 6.4328 20.6053 6.16817 20.8705C5.903 21.1354 5.903 21.565 6.16817 21.8299L8.40404 24.0658L6.16274 26.3071C5.89758 26.5723 5.89758 27.0017 6.16274 27.2665C6.29519 27.399 6.46889 27.4652 6.6426 27.4652C6.8163 27.4652 6.99 27.399 7.12245 27.2665L9.36375 25.025L11.5996 27.2608C11.7321 27.3933 11.9058 27.4595 12.0795 27.4595C12.2532 27.4595 12.4266 27.3933 12.5593 27.2608C12.8245 26.9957 12.8245 26.5663 12.5593 26.3014L10.3229 24.0658Z" fill="white"/>
<path d="M18.4659 20.115H15.1553C14.457 20.115 14.1984 19.6624 14.1984 19.2228C14.1984 18.7702 14.4441 18.3302 15.1553 18.3302H19.837C20.4969 18.3302 20.7684 18.925 20.7684 19.2612C20.7684 19.5198 20.6262 19.7913 20.471 20.1146L17.2634 26.6329C16.9013 27.357 16.7591 27.6152 16.1772 27.6152C15.466 27.6152 15.1036 27.0721 15.1036 26.6971C15.1036 26.5419 15.1424 26.426 15.2333 26.2445L18.4659 20.115Z" fill="white"/>
<path d="M26.4901 25.7997C27.0455 25.7997 27.4748 26.052 27.4748 26.6322C27.4748 27.2129 27.0455 27.4652 26.5662 27.4652H22.352C21.797 27.4652 21.3681 27.2129 21.3681 26.6322C21.3681 26.3677 21.5321 26.1403 21.6582 25.9889C22.7053 24.74 23.841 23.6043 24.8001 22.2163C25.0272 21.8883 25.2416 21.4969 25.2416 21.0427C25.2416 20.5255 24.8506 20.0714 24.333 20.0714C22.8819 20.0714 23.5761 22.1154 22.3647 22.1154C21.7592 22.1154 21.4434 21.6865 21.4434 21.1941C21.4434 19.6047 22.8566 18.3302 24.4086 18.3302C25.9611 18.3302 27.2095 19.3524 27.2095 20.9544C27.2095 22.7079 25.2542 24.4495 24.1816 25.7993L26.4901 25.7997Z" fill="white"/>
</g>
<defs>
<clipPath id="clip0_42_93">
<rect width="36" height="36" fill="white"/>
</clipPath>
</defs>
</svg>
