<svg viewBox="0 0 36 36" fill="none" xmlns="http://www.w3.org/2000/svg">
<g clip-path="url(#clip0_42_79)">
<path d="M36 31.2C36 33.8508 33.8508 36 31.2 36H4.8C2.1492 36 0 33.8508 0 31.2V4.8C0 2.1492 2.1492 0 4.8 0H31.2C33.8508 0 36 2.1492 36 4.8V31.2Z" fill="#D99E82"/>
<path d="M33.6 31.2C33.6 32.5248 32.5248 33.6 31.2 33.6H4.80002C3.47522 33.6 2.40002 32.5248 2.40002 31.2V4.79999C2.40002 3.47399 3.47522 2.39999 4.80002 2.39999H31.2C32.5248 2.39999 33.6 3.47399 33.6 4.79999V31.2Z" fill="#5C913B"/>
<path d="M18.5428 13.7269C18.4118 13.8841 18.2415 14.1199 18.2415 14.395C18.2415 14.9976 18.6869 15.2596 19.2633 15.2596H23.6355C24.1333 15.2596 24.5787 14.9976 24.5787 14.395C24.5787 13.7924 24.135 13.5304 23.5569 13.5304H21.1612C22.2731 12.1303 24.3036 10.3241 24.3036 8.50317C24.3036 6.84109 23.0067 5.77997 21.397 5.77997C19.7873 5.77997 18.3201 7.10145 18.3201 8.75208C18.3201 9.26135 18.6476 9.70676 19.2764 9.70676C20.534 9.70676 19.8135 7.58616 21.3184 7.58616C21.8555 7.58616 22.2616 8.05777 22.2616 8.59488C22.2616 9.06648 22.0389 9.47259 21.8031 9.81319C20.8075 11.2526 19.6301 12.4316 18.5428 13.7269ZM16.4026 22.6236H14.5047V20.724C14.5047 20.2524 14.2034 19.9397 13.7186 19.9397C13.2356 19.9397 12.9343 20.2541 12.9343 20.724V22.6236H11.0364C10.5517 22.6236 10.2504 22.938 10.2504 23.4079C10.2504 23.8795 10.5517 24.1939 11.0364 24.1939H12.9343V26.0918C12.9343 26.5634 13.2356 26.8762 13.7186 26.8762C14.2034 26.8762 14.5047 26.5634 14.5047 26.0918V24.1939H16.4026C16.8873 24.1939 17.1886 23.8795 17.1886 23.4079C17.1886 22.938 16.8873 22.6236 16.4026 22.6236ZM23.5569 24.9931H21.1596C22.2731 23.593 24.302 21.7868 24.302 19.9659C24.302 18.3038 23.0051 17.2427 21.3954 17.2427C19.7857 17.2427 18.3185 18.5658 18.3185 20.2148C18.3185 20.724 18.646 21.1694 19.2731 21.1694C20.5308 21.1694 19.8102 19.0488 21.3168 19.0488C21.8539 19.0488 22.26 19.5204 22.26 20.0576C22.26 20.5292 22.0373 20.9353 21.8015 21.2759C20.8059 22.7153 19.6285 23.8943 18.5412 25.1912C18.4102 25.3484 18.2399 25.5842 18.2399 25.8593C18.2399 26.4619 18.6853 26.7239 19.2617 26.7239H23.6339C24.1317 26.7239 24.5771 26.4619 24.5771 25.8593C24.5771 25.2551 24.1333 24.9931 23.5569 24.9931Z" fill="white"/>
</g>
<defs>
<clipPath id="clip0_42_79">
<rect width="36" height="36" fill="white"/>
</clipPath>
</defs>
</svg>
