<svg viewBox="0 0 36 36" fill="none" xmlns="http://www.w3.org/2000/svg">
<path d="M19.9111 23.2174C19.5012 23.2174 19.17 22.9016 19.17 22.5109V18.2717C19.17 13.9867 16.1781 10.5 12.5 10.5C8.82264 10.5 5.83005 13.9867 5.83005 18.2717V22.5109C5.83005 22.9016 5.49804 23.2174 5.08895 23.2174C4.67986 23.2174 4.34784 22.9016 4.34784 22.5109V18.2717C4.34784 13.2074 8.0052 9.08694 12.5 9.08694C16.9948 9.08694 20.6522 13.2074 20.6522 18.2717V22.5109C20.6522 22.9016 20.3209 23.2174 19.9111 23.2174Z" fill="#FFAC33"/>
<path d="M24.4748 17.3446C24.2816 15.7925 22.7868 14.5217 21.1522 14.5217H4.93471C3.30018 14.5217 1.80533 15.7925 1.61215 17.3446L0.0207149 30.1771C-0.172457 31.73 1.00738 33 2.64191 33H23.445C25.0796 33 26.2594 31.73 26.0662 30.1771L24.4748 17.3446Z" fill="#9266CC"/>
<path d="M19.9111 22.1304C19.5012 22.1304 19.17 21.8146 19.17 21.4239V17.1848C19.17 12.8997 16.1781 9.41304 12.5 9.41304C8.82264 9.41304 5.83005 12.8997 5.83005 17.1848V21.4239C5.83005 21.8146 5.49804 22.1304 5.08895 22.1304C4.67986 22.1304 4.34784 21.8146 4.34784 21.4239V17.1848C4.34784 12.1204 8.0052 8 12.5 8C16.9948 8 20.6522 12.1204 20.6522 17.1848V21.4239C20.6522 21.8146 20.3209 22.1304 19.9111 22.1304Z" fill="#FFD983"/>
<g clip-path="url(#clip0_42_20)">
<path d="M32.8894 6.52223C32.1722 5.4775 30.6894 7.015 27.9833 7.3275C26.9814 7.44306 26.0786 8.27973 24.9147 8.2C24.4375 8.16723 23.7711 6.79417 23.2722 7.01306C23.0155 7.12584 22.8978 7.50223 23.1617 7.785L26.0917 11.2811C26.0917 11.2811 26.2405 11.4528 26.7422 11.3339C26.8658 11.3703 28.7242 10.6256 29.7986 9.13473C30.0558 8.77778 30.3625 8.48056 30.68 8.23223C31.7108 7.47 32.8314 7.20445 32.8314 7.20445C32.9747 7.08611 33.0083 6.96028 33.0005 6.85111C33.01 6.66889 32.8894 6.52223 32.8894 6.52223Z" fill="#5C913B"/>
<path d="M26.1878 4.85388C25.1369 6.31221 23.2967 7.00304 23.2967 7.00304C22.9533 7.29388 23.2433 7.63665 23.2433 7.63665L26.1428 11.0697C26.1428 11.0697 26.2878 11.2411 26.7761 11.1222C26.7761 11.1222 28.6164 10.4328 29.6669 8.97443C30.75 7.47165 32.7031 6.99721 32.7031 6.99721C33.0461 6.70638 32.7564 6.36304 32.7564 6.36304L29.8569 2.93054C29.8569 2.93054 29.7119 2.75888 29.2236 2.87721C29.2236 2.87721 27.2708 3.35054 26.1878 4.85388Z" fill="#A7D28B"/>
<path d="M29.1111 7.41667C29.9549 7.41667 30.6389 6.73266 30.6389 5.88889C30.6389 5.04512 29.9549 4.36111 29.1111 4.36111C28.2673 4.36111 27.5833 5.04512 27.5833 5.88889C27.5833 6.73266 28.2673 7.41667 29.1111 7.41667Z" fill="#77B255"/>
<path d="M26.5758 10.8692C26.3311 10.8692 26.2414 10.778 26.2292 10.7642L23.6155 7.71332C23.6105 7.70749 23.478 7.55582 23.4942 7.36304C23.5039 7.2461 23.5644 7.14193 23.6739 7.05332L23.6914 7.04276C23.7083 7.0361 25.4033 6.33943 26.3533 5.08026C27.3583 3.74804 29.0919 3.17637 29.1092 3.17082C29.5939 3.05804 29.7525 3.21915 29.7694 3.23804L32.3486 6.30582C32.3533 6.31082 32.4855 6.46304 32.4694 6.6561C32.4597 6.77276 32.3992 6.87693 32.2897 6.96554L32.2622 6.97915C32.2453 6.98332 30.5597 7.40221 29.5833 8.6961C28.6114 9.98499 26.9147 10.8189 26.8978 10.8269C26.7689 10.8575 26.6628 10.8692 26.5758 10.8692ZM26.3339 10.6728C26.3342 10.6728 26.4594 10.7883 26.8519 10.6972C26.8542 10.6942 28.5211 9.87443 29.473 8.61276C30.4278 7.34749 32.0355 6.89554 32.2139 6.8486C32.2853 6.78721 32.3247 6.71915 32.3311 6.6461C32.3428 6.51276 32.2444 6.39804 32.2436 6.39693L29.6644 3.32887C29.6639 3.32887 29.5394 3.2136 29.1467 3.30471C29.1353 3.3086 27.4425 3.86749 26.4644 5.16387C25.5294 6.40304 23.898 7.10693 23.7539 7.16749C23.6794 7.22999 23.6389 7.29971 23.6325 7.37443C23.6214 7.50665 23.7192 7.62082 23.72 7.62193L26.3339 10.6728Z" fill="#5C913B"/>
<path d="M28.91 8.15722L28.9083 9.80722L29.0464 9.97111C29.3155 9.72555 29.5742 9.44944 29.7978 9.13889C30.0297 8.81722 30.2992 8.54194 30.5833 8.30944L30.4492 8.14972L28.91 8.15722Z" fill="#FFAC33"/>
<path d="M30.4439 8.1439L26.97 4.02917C26.6878 4.2614 26.4167 4.53223 26.1861 4.85251C25.9608 5.16529 25.6986 5.44056 25.4264 5.68334L25.8325 6.16417L25.8322 6.16445L28.9086 9.80723C29.1808 9.56417 29.44 9.28612 29.6656 8.97306C29.8961 8.65306 30.1669 8.38251 30.4489 8.15029L30.4439 8.1439Z" fill="#FFE8B6"/>
<path d="M27.0219 8.26529C26.5894 7.75307 25.6739 8.58418 25.4128 8.27501C25.2864 8.12529 25.3678 7.93112 25.5339 7.79112C25.813 7.55501 26.0144 7.69251 26.1408 7.58557C26.2305 7.51001 26.2258 7.41751 26.1725 7.3539C26.0486 7.20751 25.7319 7.2839 25.4858 7.42612L25.3661 7.28446C25.2914 7.19612 25.1592 7.18474 25.0708 7.25946C24.9825 7.33446 24.9714 7.46612 25.0461 7.55446L25.17 7.7014C24.9819 7.95085 24.918 8.28196 25.1405 8.54501C25.5561 9.03668 26.483 8.21946 26.7747 8.56501C26.8758 8.68501 26.8475 8.9139 26.6347 9.09335C26.3158 9.36307 26.0269 9.23668 25.8972 9.34612C25.8339 9.39918 25.8225 9.50029 25.89 9.58057C25.9975 9.70751 26.34 9.68029 26.6692 9.47529C26.6697 9.47585 26.6697 9.4764 26.6697 9.47696L26.805 9.63696C26.8797 9.72529 27.0122 9.73612 27.1005 9.66196C27.1892 9.58696 27.2 9.45474 27.1253 9.3664L26.99 9.2064C26.9886 9.20474 26.9864 9.20362 26.9847 9.20196C27.2067 8.93029 27.2817 8.57224 27.0219 8.26529Z" fill="#5C913B"/>
<path d="M32.0156 11.0522C32.0181 11.05 32.0208 11.0483 32.0233 11.0464C32.0422 11.0275 32.057 11.0058 32.0736 10.985C32.0853 10.9706 32.0983 10.9567 32.1092 10.9419C32.1189 10.9281 32.127 10.9139 32.1358 10.8997C32.5303 10.2922 32.272 9.26222 31.4911 8.48111C30.71 7.7 29.6797 7.44167 29.0725 7.83639C29.0581 7.845 29.0439 7.85306 29.03 7.86306C29.0153 7.87389 29.0011 7.88695 28.9872 7.89833C28.9667 7.91528 28.945 7.92972 28.9258 7.94889C28.9233 7.95139 28.9217 7.95417 28.9197 7.95667C28.9167 7.95972 28.9131 7.96167 28.9097 7.965L28.9114 7.96639C28.6336 8.26139 28.6303 8.71778 28.9097 8.9975C29.1897 9.2775 29.6458 9.27361 29.9411 8.99583L29.9442 8.99917C29.9383 9.00472 29.932 9.00833 29.9264 9.01389C29.6322 9.30806 29.6253 9.77722 29.91 10.0625C30.195 10.3472 30.6647 10.3403 30.9586 10.0461C30.9642 10.0406 30.9678 10.0342 30.9733 10.0283L30.9764 10.0317C30.6986 10.3267 30.695 10.7831 30.975 11.0631C31.2547 11.3425 31.7108 11.3392 32.0058 11.0614L32.0075 11.0631C32.0103 11.0592 32.0125 11.0556 32.0156 11.0522Z" fill="#E1E8ED"/>
<path d="M28.9103 9.0086C29.1619 9.25999 29.555 9.28055 29.8464 9.0811C29.9683 8.87277 30.0033 8.67471 30.0033 8.61277C29.3903 9.06999 28.843 8.61527 28.7205 8.34332C28.6697 8.57832 28.7314 8.82943 28.9103 9.0086ZM30.9378 10.0753C31.0205 9.95888 31.0847 9.84638 31.1147 9.77027C30.7244 10.128 29.9783 9.8661 29.7522 9.2986C29.6528 9.56249 29.7036 9.86638 29.9108 10.0736C30.1892 10.3519 30.6425 10.3497 30.9378 10.0753ZM32.0083 11.0739L32.0164 11.0639C32.0192 11.0617 32.0219 11.06 32.0242 11.0578C32.0433 11.0389 32.058 11.0172 32.0744 10.9967C32.0864 10.9819 32.0992 10.9683 32.11 10.9533C32.12 10.9397 32.128 10.9253 32.1369 10.9111C32.155 10.8833 32.1647 10.8505 32.18 10.8211C31.4778 11.1353 30.9536 10.6022 30.8067 10.3364C30.7247 10.5911 30.778 10.8764 30.9758 11.0744C31.2553 11.3542 31.7114 11.3508 32.0067 11.0728L32.0083 11.0739Z" fill="#CCD6DD"/>
<path d="M26.8767 5.47166L26.8845 5.46555C26.9036 5.44666 26.9183 5.42499 26.9347 5.40443C26.9464 5.38999 26.9592 5.37638 26.97 5.36138C26.98 5.34749 26.9881 5.33332 26.997 5.31916C27.3914 4.71166 27.1328 3.68138 26.352 2.90054C25.5708 2.11943 24.5408 1.86082 23.9333 2.25527C23.9192 2.26416 23.9047 2.27221 23.8908 2.28221C23.8758 2.29304 23.8622 2.30582 23.8478 2.31749C23.8272 2.33416 23.8056 2.3486 23.7867 2.36777C23.7842 2.37027 23.7825 2.37332 23.7806 2.37554C23.7775 2.37832 23.7736 2.38082 23.7706 2.38388L23.772 2.38527C23.4942 2.68027 23.4908 3.13666 23.7706 3.41638C24.0503 3.6961 24.5067 3.69277 24.8017 3.41499L24.8047 3.41804C24.7989 3.42332 24.7925 3.42721 24.787 3.43277C24.4928 3.72693 24.4858 4.1961 24.7708 4.48138C25.0558 4.76666 25.5253 4.75943 25.8195 4.46527C25.825 4.45971 25.8286 4.45332 25.8342 4.44749L25.8372 4.45055C25.5595 4.74554 25.5558 5.20193 25.8358 5.48166C26.1156 5.76138 26.5717 5.75805 26.8667 5.47999L26.8681 5.48166C26.8711 5.4786 26.8736 5.47499 26.8767 5.47166Z" fill="#E1E8ED"/>
<path d="M23.7702 3.41666C24.0219 3.66832 24.415 3.68888 24.7064 3.48888C24.8283 3.28055 24.863 3.08277 24.863 3.02082C24.2502 3.47777 23.7027 3.02277 23.5805 2.75082C23.5297 2.9861 23.5914 3.23749 23.7702 3.41666ZM25.7983 4.48277C25.8808 4.36638 25.945 4.25443 25.9747 4.17832C25.5841 4.5361 24.838 4.27388 24.6122 3.70638C24.5127 3.97027 24.5636 4.27416 24.7705 4.48138C25.0494 4.75999 25.503 4.75749 25.7983 4.48277ZM26.868 5.48193C26.8711 5.47888 26.8736 5.47527 26.8764 5.47193L26.8841 5.46582C26.9033 5.44693 26.918 5.42527 26.9344 5.40471C26.9461 5.39027 26.9589 5.37666 26.9697 5.36166C26.9797 5.34777 26.9877 5.3336 26.9966 5.31943C27.0147 5.29166 27.0244 5.2586 27.0397 5.22916C26.3375 5.54332 25.8133 5.01055 25.6664 4.74471C25.5844 4.99943 25.6377 5.28471 25.8355 5.48249C26.1152 5.76221 26.5714 5.75888 26.8664 5.48082L26.868 5.48193Z" fill="#CCD6DD"/>
</g>
<path d="M34.5784 19.7749L28.2232 15.2775C27.9375 15.0714 27.6096 15.0915 27.2874 15.1439L23.5252 15.7564C22.833 15.8691 22.5114 16.3159 22.6241 17.008L23.2369 20.7721C23.2892 21.0936 23.3749 21.41 23.6601 21.6153L29.9856 26.2084C30.5547 26.6178 31.3264 26.4922 31.7359 25.9235L34.8782 21.5457C35.2875 20.9763 35.1471 20.1844 34.5784 19.7749ZM25.2364 17.9386C25.0536 18.1926 24.6996 18.2502 24.4457 18.0674C24.1917 17.8845 24.1337 17.5307 24.3169 17.2766C24.4997 17.0223 24.8537 16.965 25.1077 17.1479C25.3617 17.3311 25.4196 17.6846 25.2364 17.9386Z" fill="#FFD983"/>
<path d="M25.5862 16.4832C24.9653 16.0359 24.0995 16.1769 23.6526 16.798C23.2053 17.4189 23.3463 18.2847 23.9675 18.732C24.5883 19.1789 25.4541 19.038 25.9014 18.4171C26.3483 17.7959 26.2071 16.9306 25.5862 16.4832ZM25.2368 17.939C25.054 18.1929 24.6996 18.2502 24.4457 18.0674C24.1917 17.8845 24.1337 17.5307 24.3169 17.2766C24.4997 17.0223 24.8537 16.965 25.1077 17.1479C25.3616 17.3307 25.42 17.6846 25.2368 17.939Z" fill="#D99E82"/>
<path d="M24.5116 16.9506C24.6813 17.0728 24.7197 17.3088 24.5976 17.4789C24.4754 17.6486 24.2394 17.6867 24.0697 17.5648L20.3861 14.9128C20.2163 14.7905 20.1779 14.5546 20.3001 14.3845C20.4223 14.2147 20.6583 14.1767 20.828 14.2985L24.5116 16.9506Z" fill="#C1694F"/>
<path d="M34.5784 19.7749L28.2232 15.2775C27.9375 15.0714 27.6096 15.0915 27.2874 15.1439L23.5252 15.7564C22.833 15.8691 22.5114 16.3159 22.6241 17.008L23.2369 20.7721C23.2892 21.0936 23.3749 21.41 23.6601 21.6153L29.9856 26.2084C30.5547 26.6178 31.3264 26.4922 31.7359 25.9235L34.8782 21.5457C35.2875 20.9763 35.1471 20.1844 34.5784 19.7749ZM25.2364 17.9386C25.0536 18.1926 24.6996 18.2502 24.4457 18.0674C24.1917 17.8845 24.1337 17.5307 24.3169 17.2766C24.4997 17.0223 24.8537 16.965 25.1077 17.1479C25.3617 17.3311 25.4196 17.6846 25.2364 17.9386Z" fill="#FFD983"/>
<path d="M25.5862 16.4832C24.9653 16.0359 24.0995 16.1769 23.6526 16.798C23.2053 17.4189 23.3463 18.2847 23.9675 18.732C24.5883 19.1789 25.4541 19.038 25.9014 18.4171C26.3483 17.7959 26.2071 16.9306 25.5862 16.4832ZM25.2368 17.939C25.054 18.1929 24.6996 18.2502 24.4457 18.0674C24.1917 17.8845 24.1337 17.5307 24.3169 17.2766C24.4997 17.0223 24.8537 16.965 25.1077 17.1479C25.3616 17.3307 25.42 17.6846 25.2368 17.939Z" fill="#D99E82"/>
<path d="M24.5116 16.9506C24.6813 17.0728 24.7197 17.3088 24.5976 17.4789C24.4754 17.6486 24.2394 17.6867 24.0697 17.5648L20.3861 14.9128C20.2163 14.7905 20.1779 14.5546 20.3001 14.3845C20.4223 14.2147 20.6583 14.1767 20.828 14.2985L24.5116 16.9506Z" fill="#C1694F"/>
<path d="M27.5163 20.6416C28.0761 19.8641 26.5363 18.8326 26.8742 18.3631C27.0378 18.1359 27.3457 18.1891 27.6101 18.3794C28.0548 18.6996 27.9379 19.029 28.1393 19.174C28.2819 19.2767 28.4122 19.2405 28.4813 19.1445C28.6419 18.9215 28.4088 18.4973 28.1108 18.1939L28.2658 17.9787C28.3625 17.8444 28.327 17.6534 28.186 17.552C28.045 17.4504 27.8525 17.4773 27.7559 17.6115L27.5954 17.8344C27.1666 17.6479 26.6711 17.6635 26.3833 18.0633C25.8456 18.8102 27.3703 19.8621 26.9927 20.3867C26.8618 20.5684 26.5247 20.6016 26.1859 20.3576C25.6778 19.9918 25.7446 19.5419 25.5382 19.3933C25.4376 19.3209 25.2896 19.3369 25.2021 19.4585C25.063 19.6517 25.2352 20.1286 25.6553 20.5297L25.6539 20.531L25.479 20.774C25.3822 20.9083 25.4181 21.0996 25.559 21.201C25.6998 21.3024 25.8924 21.2756 25.9891 21.1413L26.1641 20.8983C26.1661 20.8955 26.1662 20.8922 26.1678 20.8895C26.6418 21.1172 27.1802 21.1083 27.5163 20.6416Z" fill="#292F33"/>
<path d="M29.9285 22.3784C30.4883 21.6008 28.9485 20.5693 29.2865 20.0999C29.4501 19.8727 29.7579 19.9258 30.0224 20.1162C30.4671 20.4363 30.3501 20.7658 30.5515 20.9108C30.6941 21.0135 30.8244 20.9773 30.8935 20.8813C31.0541 20.6582 30.821 20.234 30.523 19.9307L30.678 19.7154C30.7747 19.5812 30.7392 19.3902 30.5983 19.2887C30.4572 19.1872 30.2648 19.214 30.1681 19.3483L30.0076 19.5712C29.5789 19.3846 29.0834 19.4003 28.7955 19.8001C28.2578 20.5469 29.7826 21.5988 29.4049 22.1234C29.2741 22.3051 28.937 22.3383 28.5981 22.0944C28.09 21.7285 28.1568 21.2787 27.9504 21.1301C27.8499 21.0577 27.7019 21.0736 27.6143 21.1952C27.4752 21.3884 27.6474 21.8654 28.0676 22.2665L28.0661 22.2678L27.8912 22.5107C27.7945 22.6451 27.8303 22.8363 27.9712 22.9378C28.112 23.0392 28.3046 23.0124 28.4014 22.878L28.5763 22.6351C28.5783 22.6322 28.5784 22.6289 28.5801 22.6263C29.054 22.8539 29.5925 22.8451 29.9285 22.3784Z" fill="#292F33"/>
<path d="M32.3407 24.1151C32.9005 23.3376 31.3607 22.3061 31.6987 21.8366C31.8623 21.6094 32.1702 21.6626 32.4346 21.8529C32.8793 22.1731 32.7623 22.5025 32.9637 22.6475C33.1064 22.7502 33.2367 22.714 33.3058 22.618C33.4664 22.395 33.2333 21.9708 32.9353 21.6674L33.0903 21.4522C33.1869 21.3179 33.1515 21.1269 33.0105 21.0255C32.8695 20.9239 32.677 20.9508 32.5803 21.085L32.4199 21.3079C31.9911 21.1214 31.4956 21.137 31.2077 21.5368C30.67 22.2837 32.1948 23.3356 31.8171 23.8602C31.6863 24.0419 31.3492 24.0751 31.0104 23.8311C30.5022 23.4653 30.5691 23.0154 30.3627 22.8668C30.2621 22.7944 30.1141 22.8104 30.0266 22.932C29.8875 23.1252 30.0597 23.6021 30.4798 24.0032L30.4784 24.0045L30.3035 24.2475C30.2067 24.3818 30.2425 24.573 30.3835 24.6745C30.5243 24.7759 30.7169 24.7491 30.8136 24.6148L30.9885 24.3718C30.9906 24.369 30.9907 24.3657 30.9923 24.363C31.4663 24.5907 32.0047 24.5818 32.3407 24.1151Z" fill="#292F33"/>
<defs>
<clipPath id="clip0_42_20">
<rect width="10" height="10" fill="white" transform="translate(23 2)"/>
</clipPath>
</defs>
</svg>
