<svg viewBox="0 0 36 36" fill="none" xmlns="http://www.w3.org/2000/svg">
<path d="M35 32C35 34.209 33.209 36 31 36H5C2.791 36 1 34.209 1 32V8C1 5.791 2.791 4 5 4H31C33.209 4 35 5.791 35 8V32Z" fill="#292F33"/>
<path d="M33 32C33 33.104 32.104 34 31 34H5C3.896 34 3 33.104 3 32V12C3 10.896 3.896 10 5 10H31C32.104 10 33 10.896 33 12V32Z" fill="#E1E8ED"/>
<path d="M33 16H3V8C3 6.896 3.896 6 5 6H31C32.104 6 33 6.896 33 8V16Z" fill="#DD2E44"/>
<path d="M11 7C11 7.552 10.552 8 10 8C9.448 8 9 7.552 9 7V1C9 0.448 9.448 0 10 0C10.552 0 11 0.448 11 1V7ZM27 7C27 7.552 26.553 8 26 8C25.447 8 25 7.552 25 7V1C25 0.448 25.447 0 26 0C26.553 0 27 0.448 27 1V7Z" fill="#99AAB5"/>
<path d="M10.665 14.035C10.5717 14.035 10.4947 14.0047 10.434 13.944C10.378 13.8833 10.35 13.8087 10.35 13.72C10.35 13.6827 10.3617 13.636 10.385 13.58L12.17 9.366C12.2073 9.282 12.2587 9.21433 12.324 9.163C12.394 9.107 12.478 9.079 12.576 9.079H12.646C12.744 9.079 12.8257 9.107 12.891 9.163C12.961 9.21433 13.0147 9.282 13.052 9.366L14.837 13.58C14.8603 13.636 14.872 13.6827 14.872 13.72C14.872 13.8087 14.8417 13.8833 14.781 13.944C14.725 14.0047 14.6503 14.035 14.557 14.035C14.4917 14.035 14.431 14.0187 14.375 13.986C14.3237 13.9487 14.284 13.8997 14.256 13.839L13.801 12.747H11.421L10.966 13.839C10.938 13.8997 10.896 13.9487 10.84 13.986C10.7887 14.0187 10.7303 14.035 10.665 14.035ZM11.666 12.166H13.556L12.611 9.891L11.666 12.166ZM16.2167 14.035C16.128 14.035 16.0533 14.0047 15.9927 13.944C15.932 13.8833 15.9017 13.8087 15.9017 13.72V9.436C15.9017 9.34733 15.932 9.27267 15.9927 9.212C16.0533 9.14667 16.128 9.114 16.2167 9.114H17.8127C18.256 9.114 18.6177 9.18867 18.8977 9.338C19.1777 9.48733 19.3783 9.67867 19.4997 9.912C19.621 10.1453 19.6817 10.3973 19.6817 10.668C19.6817 10.9387 19.621 11.1907 19.4997 11.424C19.3783 11.6573 19.1777 11.8487 18.8977 11.998C18.6177 12.1473 18.256 12.222 17.8127 12.222H16.5387V13.72C16.5387 13.8087 16.506 13.8833 16.4407 13.944C16.38 14.0047 16.3053 14.035 16.2167 14.035ZM17.7497 11.62C18.2257 11.62 18.5593 11.529 18.7507 11.347C18.9467 11.165 19.0447 10.9387 19.0447 10.668C19.0447 10.3973 18.9467 10.171 18.7507 9.989C18.5593 9.807 18.2257 9.716 17.7497 9.716H16.5387V11.62H17.7497ZM20.9198 14.035C20.8311 14.035 20.7564 14.0047 20.6958 13.944C20.6351 13.8833 20.6048 13.8087 20.6048 13.72V9.436C20.6048 9.34733 20.6351 9.27267 20.6958 9.212C20.7564 9.14667 20.8311 9.114 20.9198 9.114H22.5508C23.1854 9.114 23.6614 9.24467 23.9788 9.506C24.2961 9.76733 24.4548 10.1103 24.4548 10.535C24.4548 10.815 24.3754 11.0717 24.2168 11.305C24.0628 11.5337 23.8364 11.6993 23.5378 11.802C23.8738 11.8907 24.1024 12.1007 24.2238 12.432C24.3498 12.7587 24.4128 13.0807 24.4128 13.398V13.72C24.4128 13.8087 24.3824 13.8833 24.3218 13.944C24.2611 14.0047 24.1864 14.035 24.0978 14.035C23.9998 14.035 23.9204 14.007 23.8598 13.951C23.8038 13.8903 23.7758 13.8133 23.7758 13.72V13.51C23.7758 13.2767 23.7548 13.062 23.7128 12.866C23.6708 12.6653 23.5704 12.488 23.4118 12.334C23.2531 12.1753 23.0128 12.096 22.6908 12.096H21.2418V13.72C21.2418 13.8087 21.2091 13.8833 21.1438 13.944C21.0831 14.0047 21.0084 14.035 20.9198 14.035ZM22.5088 11.494C22.9101 11.494 23.2274 11.4147 23.4608 11.256C23.6988 11.0973 23.8178 10.8733 23.8178 10.584C23.8178 10.304 23.7151 10.0893 23.5098 9.94C23.3091 9.79067 22.9638 9.716 22.4738 9.716H21.2418V11.494H22.5088Z" fill="white"/>
<path d="M14.3864 29.2317C13.4159 29.2317 13 28.5787 13 28.0631C13 27.6274 13.1584 27.3891 13.2773 27.1917L17.715 19.1487C18.1507 18.3565 18.7053 18 19.7352 18C20.8845 18 22.0134 18.7328 22.0134 20.5357V26.6173H22.3501C23.1226 26.6173 23.7365 27.1329 23.7365 27.9251C23.7365 28.7174 23.1226 29.2323 22.3501 29.2323H22.0134V30.9164C22.0134 31.9667 21.5975 32.4612 20.5874 32.4612C19.5774 32.4612 19.1608 31.9667 19.1608 30.9164V29.2323H14.3864V29.2317ZM19.1608 21.0903H19.1212L16.4468 26.6167H19.1608V21.0903Z" fill="#66757F"/>
</svg>
