<svg viewBox="0 0 36 36" fill="none" xmlns="http://www.w3.org/2000/svg">
<path d="M35 32C35 34.209 33.209 36 31 36H5C2.791 36 1 34.209 1 32V8C1 5.791 2.791 4 5 4H31C33.209 4 35 5.791 35 8V32Z" fill="#292F33"/>
<path d="M33 32C33 33.104 32.104 34 31 34H5C3.896 34 3 33.104 3 32V12C3 10.896 3.896 10 5 10H31C32.104 10 33 10.896 33 12V32Z" fill="#E1E8ED"/>
<path d="M33 16H3V8C3 6.896 3.896 6 5 6H31C32.104 6 33 6.896 33 8V16Z" fill="#DD2E44"/>
<path d="M11 7C11 7.552 10.552 8 10 8C9.448 8 9 7.552 9 7V1C9 0.448 9.448 0 10 0C10.552 0 11 0.448 11 1V7ZM27 7C27 7.552 26.553 8 26 8C25.447 8 25 7.552 25 7V1C25 0.448 25.447 0 26 0C26.553 0 27 0.448 27 1V7Z" fill="#99AAB5"/>
<path d="M10.665 14.035C10.5717 14.035 10.4947 14.0047 10.434 13.944C10.378 13.8833 10.35 13.8087 10.35 13.72C10.35 13.6827 10.3617 13.636 10.385 13.58L12.17 9.366C12.2073 9.282 12.2587 9.21433 12.324 9.163C12.394 9.107 12.478 9.079 12.576 9.079H12.646C12.744 9.079 12.8257 9.107 12.891 9.163C12.961 9.21433 13.0147 9.282 13.052 9.366L14.837 13.58C14.8603 13.636 14.872 13.6827 14.872 13.72C14.872 13.8087 14.8417 13.8833 14.781 13.944C14.725 14.0047 14.6503 14.035 14.557 14.035C14.4917 14.035 14.431 14.0187 14.375 13.986C14.3237 13.9487 14.284 13.8997 14.256 13.839L13.801 12.747H11.421L10.966 13.839C10.938 13.8997 10.896 13.9487 10.84 13.986C10.7887 14.0187 10.7303 14.035 10.665 14.035ZM11.666 12.166H13.556L12.611 9.891L11.666 12.166ZM17.7458 14.07C17.4144 14.07 17.0948 14 16.7868 13.86C16.4788 13.72 16.2268 13.5077 16.0308 13.223C15.8348 12.9337 15.7368 12.5813 15.7368 12.166V9.401C15.7368 9.31233 15.7671 9.23767 15.8278 9.177C15.8884 9.11167 15.9631 9.079 16.0518 9.079C16.1404 9.079 16.2151 9.11167 16.2758 9.177C16.3411 9.23767 16.3738 9.31233 16.3738 9.401V12.187C16.3738 12.467 16.4368 12.705 16.5628 12.901C16.6934 13.097 16.8638 13.244 17.0738 13.342C17.2838 13.44 17.5078 13.489 17.7458 13.489C17.9838 13.489 18.2078 13.44 18.4178 13.342C18.6278 13.244 18.7958 13.097 18.9218 12.901C19.0524 12.705 19.1178 12.467 19.1178 12.187V9.401C19.1178 9.31233 19.1481 9.23767 19.2088 9.177C19.2694 9.11167 19.3441 9.079 19.4328 9.079C19.5214 9.079 19.5961 9.11167 19.6568 9.177C19.7221 9.23767 19.7548 9.31233 19.7548 9.401V12.166C19.7548 12.5813 19.6568 12.9337 19.4608 13.223C19.2648 13.5077 19.0128 13.72 18.7048 13.86C18.3968 14 18.0771 14.07 17.7458 14.07ZM23.2395 14.07C22.7588 14.07 22.3318 13.965 21.9585 13.755C21.5851 13.5403 21.2958 13.244 21.0905 12.866C20.8851 12.4833 20.7825 12.0493 20.7825 11.564C20.7825 11.0693 20.8898 10.6307 21.1045 10.248C21.3191 9.86533 21.6108 9.569 21.9795 9.359C22.3528 9.149 22.7658 9.044 23.2185 9.044C23.5825 9.044 23.8998 9.08833 24.1705 9.177C24.4458 9.26567 24.7095 9.38933 24.9615 9.548C24.9988 9.56667 25.0315 9.59933 25.0595 9.646C25.0875 9.69267 25.1015 9.744 25.1015 9.8C25.1015 9.87933 25.0735 9.947 25.0175 10.003C24.9661 10.059 24.8961 10.087 24.8075 10.087C24.7561 10.087 24.7071 10.0753 24.6605 10.052C24.4411 9.92133 24.2218 9.82333 24.0025 9.758C23.7831 9.69267 23.5451 9.66 23.2885 9.66C22.9338 9.66 22.6141 9.73467 22.3295 9.884C22.0448 10.0333 21.8208 10.2527 21.6575 10.542C21.4988 10.8267 21.4195 11.1673 21.4195 11.564C21.4195 11.928 21.4941 12.2547 21.6435 12.544C21.7975 12.8287 22.0168 13.055 22.3015 13.223C22.5908 13.3863 22.9315 13.468 23.3235 13.468C23.7621 13.468 24.1705 13.3653 24.5485 13.16V11.893H23.3935C23.3141 11.893 23.2465 11.865 23.1905 11.809C23.1345 11.753 23.1065 11.6853 23.1065 11.606C23.1065 11.5267 23.1345 11.459 23.1905 11.403C23.2465 11.347 23.3141 11.319 23.3935 11.319H24.7725C24.8658 11.319 24.9451 11.3517 25.0105 11.417C25.0758 11.4823 25.1085 11.5617 25.1085 11.655V13.244C25.1085 13.342 25.0828 13.4307 25.0315 13.51C24.9848 13.5847 24.9218 13.6407 24.8425 13.678C24.3198 13.9393 23.7855 14.07 23.2395 14.07Z" fill="white"/>
<path d="M13 28.5007C13 26.8473 13.8714 25.628 15.1192 24.9247C14.1883 24.222 13.614 23.2713 13.614 21.9687C13.614 19.55 15.5357 18 17.8926 18C20.1901 18 22.1917 19.5293 22.1917 21.9687C22.1917 23.126 21.6365 24.284 20.6654 24.9247C22.0128 25.628 22.7852 26.9093 22.7852 28.5007C22.7852 31.374 20.5466 33.2133 17.892 33.2133C15.1594 33.2133 13 31.27 13 28.5007V28.5007ZM16.0903 28.2933C16.0903 29.348 16.6845 30.3613 17.8926 30.3613C19.0222 30.3613 19.6956 29.348 19.6956 28.2933C19.6956 26.9913 18.9826 26.2267 17.8926 26.2267C16.7445 26.2267 16.0903 27.136 16.0903 28.2933V28.2933ZM16.4666 22.2993C16.4666 23.2293 16.9822 23.87 17.8926 23.87C18.8037 23.87 19.3391 23.2293 19.3391 22.2993C19.3391 21.4107 18.8235 20.728 17.8926 20.728C16.9617 20.728 16.4666 21.4107 16.4666 22.2993V22.2993Z" fill="#66757F"/>
</svg>
