<svg viewBox="0 0 36 36" fill="none" xmlns="http://www.w3.org/2000/svg">
<path d="M35 32C35 34.209 33.209 36 31 36H5C2.791 36 1 34.209 1 32V8C1 5.791 2.791 4 5 4H31C33.209 4 35 5.791 35 8V32Z" fill="#292F33"/>
<path d="M33 32C33 33.104 32.104 34 31 34H5C3.896 34 3 33.104 3 32V12C3 10.896 3.896 10 5 10H31C32.104 10 33 10.896 33 12V32Z" fill="#E1E8ED"/>
<path d="M33 16H3V8C3 6.896 3.896 6 5 6H31C32.104 6 33 6.896 33 8V16Z" fill="#DD2E44"/>
<path d="M11 7C11 7.552 10.552 8 10 8C9.448 8 9 7.552 9 7V1C9 0.448 9.448 0 10 0C10.552 0 11 0.448 11 1V7ZM27 7C27 7.552 26.553 8 26 8C25.447 8 25 7.552 25 7V1C25 0.448 25.447 0 26 0C26.553 0 27 0.448 27 1V7Z" fill="#99AAB5"/>
<path d="M11.994 14C11.9053 14 11.8307 13.9697 11.77 13.909C11.7093 13.8483 11.679 13.7737 11.679 13.685V9.436C11.679 9.34733 11.7093 9.27267 11.77 9.212C11.8307 9.14667 11.9053 9.114 11.994 9.114H13.401C13.933 9.114 14.3833 9.233 14.752 9.471C15.1253 9.70433 15.4053 10.0077 15.592 10.381C15.7787 10.7543 15.872 11.1463 15.872 11.557C15.872 11.9677 15.7787 12.3597 15.592 12.733C15.4053 13.1063 15.1253 13.412 14.752 13.65C14.3833 13.8833 13.933 14 13.401 14H11.994ZM13.324 13.405C13.7067 13.405 14.0427 13.328 14.332 13.174C14.6213 13.0153 14.8453 12.7983 15.004 12.523C15.1627 12.243 15.242 11.921 15.242 11.557C15.242 11.193 15.1627 10.8733 15.004 10.598C14.8453 10.318 14.6213 10.101 14.332 9.947C14.0427 9.78833 13.7067 9.709 13.324 9.709H12.316V13.405H13.324ZM17.2508 14C17.1622 14 17.0875 13.9697 17.0268 13.909C16.9662 13.8483 16.9358 13.7737 16.9358 13.685V9.436C16.9358 9.34733 16.9662 9.27267 17.0268 9.212C17.0875 9.14667 17.1622 9.114 17.2508 9.114H20.0578C20.1418 9.114 20.2118 9.14433 20.2678 9.205C20.3285 9.261 20.3588 9.331 20.3588 9.415C20.3588 9.499 20.3285 9.569 20.2678 9.625C20.2118 9.681 20.1418 9.709 20.0578 9.709H17.5728V11.256H19.8058C19.8898 11.256 19.9598 11.2863 20.0158 11.347C20.0765 11.403 20.1068 11.473 20.1068 11.557C20.1068 11.641 20.0765 11.711 20.0158 11.767C19.9598 11.823 19.8898 11.851 19.8058 11.851H17.5728V13.405H20.0578C20.1418 13.405 20.2118 13.4353 20.2678 13.496C20.3285 13.552 20.3588 13.622 20.3588 13.706C20.3588 13.79 20.3285 13.86 20.2678 13.916C20.2118 13.972 20.1418 14 20.0578 14H17.2508ZM23.5079 14.07C23.0412 14.07 22.6212 13.9697 22.2479 13.769C21.8792 13.5637 21.5875 13.272 21.3729 12.894C21.1629 12.5113 21.0579 12.0657 21.0579 11.557C21.0579 11.0483 21.1629 10.605 21.3729 10.227C21.5875 9.84433 21.8792 9.55267 22.2479 9.352C22.6212 9.14667 23.0412 9.044 23.5079 9.044C23.8252 9.044 24.1075 9.08133 24.3549 9.156C24.6069 9.23067 24.8565 9.338 25.1039 9.478C25.2065 9.534 25.2579 9.62267 25.2579 9.744C25.2579 9.814 25.2322 9.877 25.1809 9.933C25.1295 9.98433 25.0619 10.01 24.9779 10.01C24.9312 10.01 24.8892 10.0007 24.8519 9.982C24.6465 9.87467 24.4459 9.793 24.2499 9.737C24.0539 9.681 23.8275 9.653 23.5709 9.653C23.1695 9.653 22.8265 9.737 22.5419 9.905C22.2619 10.0683 22.0495 10.2947 21.9049 10.584C21.7649 10.8687 21.6949 11.193 21.6949 11.557C21.6949 11.921 21.7649 12.2477 21.9049 12.537C22.0495 12.8217 22.2619 13.048 22.5419 13.216C22.8265 13.3793 23.1695 13.461 23.5709 13.461C23.8275 13.461 24.0539 13.433 24.2499 13.377C24.4459 13.321 24.6465 13.2393 24.8519 13.132C24.8892 13.1133 24.9312 13.104 24.9779 13.104C25.0619 13.104 25.1295 13.1297 25.1809 13.181C25.2322 13.2323 25.2579 13.2953 25.2579 13.37C25.2579 13.4913 25.2065 13.58 25.1039 13.636C24.8565 13.776 24.6069 13.8833 24.3549 13.958C24.1075 14.0327 23.8252 14.07 23.5079 14.07Z" fill="white"/>
<path d="M12.5153 20.8527H11.3468C10.3961 20.8527 10 20.1293 10 19.4267C10 18.7033 10.4951 18 11.3468 18H14.1592C15.0114 18 15.4868 18.6407 15.4868 19.4673V31.2293C15.4868 32.2633 14.853 32.8413 14.0007 32.8413C13.1491 32.8413 12.5153 32.2633 12.5153 31.2293V20.8527Z" fill="#66757F"/>
<path d="M25.3874 30.2651C26.297 30.2651 27 30.6794 27 31.6322C27 32.5857 26.297 33 25.512 33H18.6112C17.7023 33 17 32.5857 17 31.6322C17 31.1979 17.2685 30.8244 17.4751 30.5758C19.1896 28.5252 21.0494 26.6603 22.62 24.3811C22.9919 23.8426 23.343 23.1998 23.343 22.4541C23.343 21.6048 22.7027 20.8591 21.8551 20.8591C19.4788 20.8591 20.6156 24.2154 18.6319 24.2154C17.6404 24.2154 17.1233 23.5112 17.1233 22.7027C17.1233 20.0927 19.4375 18 21.979 18C24.5212 18 26.5655 19.6785 26.5655 22.3091C26.5655 25.1883 23.3637 28.0481 21.6072 30.2645H25.3874V30.2651Z" fill="#66757F"/>
</svg>
