<svg viewBox="0 0 36 36" fill="none" xmlns="http://www.w3.org/2000/svg">
<path d="M35 32C35 34.209 33.209 36 31 36H5C2.791 36 1 34.209 1 32V8C1 5.791 2.791 4 5 4H31C33.209 4 35 5.791 35 8V32Z" fill="#292F33"/>
<path d="M33 32C33 33.104 32.104 34 31 34H5C3.896 34 3 33.104 3 32V12C3 10.896 3.896 10 5 10H31C32.104 10 33 10.896 33 12V32Z" fill="#E1E8ED"/>
<path d="M33 16H3V8C3 6.896 3.896 6 5 6H31C32.104 6 33 6.896 33 8V16Z" fill="#DD2E44"/>
<path d="M11 7C11 7.552 10.552 8 10 8C9.448 8 9 7.552 9 7V1C9 0.448 9.448 0 10 0C10.552 0 11 0.448 11 1V7ZM27 7C27 7.552 26.553 8 26 8C25.447 8 25 7.552 25 7V1C25 0.448 25.447 0 26 0C26.553 0 27 0.448 27 1V7Z" fill="#99AAB5"/>
<path d="M11.136 14.04C11.0347 14.04 10.9493 14.0053 10.88 13.936C10.8107 13.8667 10.776 13.7813 10.776 13.68V8.784C10.776 8.68267 10.8107 8.59733 10.88 8.528C10.9493 8.45333 11.0347 8.416 11.136 8.416H14.248C14.344 8.416 14.424 8.45067 14.488 8.52C14.5573 8.584 14.592 8.664 14.592 8.76C14.592 8.856 14.5573 8.936 14.488 9C14.424 9.064 14.344 9.096 14.248 9.096H11.504V10.864H13.968C14.064 10.864 14.144 10.8987 14.208 10.968C14.2773 11.032 14.312 11.112 14.312 11.208C14.312 11.304 14.2773 11.384 14.208 11.448C14.144 11.512 14.064 11.544 13.968 11.544H11.504V13.68C11.504 13.7813 11.4667 13.8667 11.392 13.936C11.3227 14.0053 11.2373 14.04 11.136 14.04ZM16.0032 14C15.9019 14 15.8165 13.9653 15.7472 13.896C15.6779 13.8267 15.6432 13.7413 15.6432 13.64V8.784C15.6432 8.68267 15.6779 8.59733 15.7472 8.528C15.8165 8.45333 15.9019 8.416 16.0032 8.416H19.2112C19.3072 8.416 19.3872 8.45067 19.4512 8.52C19.5205 8.584 19.5552 8.664 19.5552 8.76C19.5552 8.856 19.5205 8.936 19.4512 9C19.3872 9.064 19.3072 9.096 19.2112 9.096H16.3712V10.864H18.9232C19.0192 10.864 19.0992 10.8987 19.1632 10.968C19.2325 11.032 19.2672 11.112 19.2672 11.208C19.2672 11.304 19.2325 11.384 19.1632 11.448C19.0992 11.512 19.0192 11.544 18.9232 11.544H16.3712V13.32H19.2112C19.3072 13.32 19.3872 13.3547 19.4512 13.424C19.5205 13.488 19.5552 13.568 19.5552 13.664C19.5552 13.76 19.5205 13.84 19.4512 13.904C19.3872 13.968 19.3072 14 19.2112 14H16.0032ZM21.1048 14C21.0034 14 20.9181 13.9653 20.8488 13.896C20.7794 13.8267 20.7448 13.7413 20.7448 13.64V8.784C20.7448 8.68267 20.7794 8.59733 20.8488 8.528C20.9181 8.45333 21.0034 8.416 21.1048 8.416H22.9928C23.5634 8.416 24.0034 8.54667 24.3128 8.808C24.6274 9.06933 24.7848 9.42133 24.7848 9.864C24.7848 10.1733 24.7101 10.432 24.5608 10.64C24.4168 10.8427 24.2301 10.9947 24.0008 11.096C24.3208 11.1973 24.5821 11.36 24.7848 11.584C24.9928 11.808 25.0968 12.0907 25.0968 12.432C25.0968 12.9227 24.9314 13.3067 24.6008 13.584C24.2701 13.8613 23.7501 14 23.0408 14H21.1048ZM22.8008 10.832C23.2754 10.832 23.6088 10.752 23.8008 10.592C23.9928 10.432 24.0888 10.208 24.0888 9.92C24.0888 9.66933 23.9848 9.46933 23.7768 9.32C23.5741 9.17067 23.2941 9.096 22.9368 9.096H21.4728V10.832H22.8008ZM22.9688 13.32C23.4861 13.32 23.8514 13.24 24.0648 13.08C24.2834 12.92 24.3928 12.6933 24.3928 12.4C24.3928 11.792 23.9208 11.488 22.9768 11.488H21.4728V13.32H22.9688Z" fill="white"/>
<path d="M21.0417 29.7274C21.9138 29.7274 22.5878 30.1236 22.5878 31.0346C22.5878 31.9463 21.9138 32.3424 21.1612 32.3424H14.5448C13.6734 32.3424 13 31.9463 13 31.0346C13 30.6193 13.2575 30.2622 13.4555 30.0245C15.0994 28.0638 16.8825 26.2806 18.3884 24.1014C18.7449 23.5864 19.0816 22.9718 19.0816 22.2588C19.0816 21.4468 18.4676 20.7338 17.6549 20.7338C15.3767 20.7338 16.4666 23.9429 14.5646 23.9429C13.614 23.9429 13.1182 23.2696 13.1182 22.4965C13.1182 20.001 15.3371 18 17.7738 18C20.2111 18 22.1712 19.6049 22.1712 22.1202C22.1712 24.8732 19.1014 27.6076 17.4173 29.7268H21.0417V29.7274Z" fill="#66757F"/>
</svg>
