<svg viewBox="0 0 36 36" fill="none" xmlns="http://www.w3.org/2000/svg">
<path d="M35 32C35 34.209 33.209 36 31 36H5C2.791 36 1 34.209 1 32V8C1 5.791 2.791 4 5 4H31C33.209 4 35 5.791 35 8V32Z" fill="#292F33"/>
<path d="M33 32C33 33.104 32.104 34 31 34H5C3.896 34 3 33.104 3 32V12C3 10.896 3.896 10 5 10H31C32.104 10 33 10.896 33 12V32Z" fill="#E1E8ED"/>
<path d="M33 16H3V8C3 6.896 3.896 6 5 6H31C32.104 6 33 6.896 33 8V16Z" fill="#DD2E44"/>
<path d="M11 7C11 7.552 10.552 8 10 8C9.448 8 9 7.552 9 7V1C9 0.448 9.448 0 10 0C10.552 0 11 0.448 11 1V7ZM27 7C27 7.552 26.553 8 26 8C25.447 8 25 7.552 25 7V1C25 0.448 25.447 0 26 0C26.553 0 27 0.448 27 1V7Z" fill="#99AAB5"/>
<path d="M12.176 14.07C11.8353 14.07 11.525 13.9907 11.245 13.832C11.1423 13.7713 11.091 13.685 11.091 13.573C11.091 13.4983 11.1143 13.433 11.161 13.377C11.2123 13.3163 11.2777 13.286 11.357 13.286C11.4037 13.286 11.4457 13.2953 11.483 13.314C11.6977 13.4167 11.9147 13.468 12.134 13.468C12.386 13.468 12.589 13.3957 12.743 13.251C12.9017 13.1063 12.981 12.8333 12.981 12.432V9.401C12.981 9.31233 13.0113 9.23767 13.072 9.177C13.1327 9.11167 13.2073 9.079 13.296 9.079C13.3847 9.079 13.4593 9.11167 13.52 9.177C13.5853 9.23767 13.618 9.31233 13.618 9.401V12.39C13.618 13.0013 13.4803 13.4353 13.205 13.692C12.9343 13.944 12.5913 14.07 12.176 14.07ZM14.9257 14.035C14.8324 14.035 14.7554 14.0047 14.6947 13.944C14.6387 13.8833 14.6107 13.8087 14.6107 13.72C14.6107 13.6827 14.6224 13.636 14.6457 13.58L16.4307 9.366C16.4681 9.282 16.5194 9.21433 16.5847 9.163C16.6547 9.107 16.7387 9.079 16.8367 9.079H16.9067C17.0047 9.079 17.0864 9.107 17.1517 9.163C17.2217 9.21433 17.2754 9.282 17.3127 9.366L19.0977 13.58C19.1211 13.636 19.1327 13.6827 19.1327 13.72C19.1327 13.8087 19.1024 13.8833 19.0417 13.944C18.9857 14.0047 18.9111 14.035 18.8177 14.035C18.7524 14.035 18.6917 14.0187 18.6357 13.986C18.5844 13.9487 18.5447 13.8997 18.5167 13.839L18.0617 12.747H15.6817L15.2267 13.839C15.1987 13.8997 15.1567 13.9487 15.1007 13.986C15.0494 14.0187 14.9911 14.035 14.9257 14.035ZM15.9267 12.166H17.8167L16.8717 9.891L15.9267 12.166ZM20.4774 14.035C20.3887 14.035 20.3141 14.0047 20.2534 13.944C20.1927 13.8833 20.1624 13.8087 20.1624 13.72V9.541C20.1624 9.415 20.2067 9.30767 20.2954 9.219C20.3841 9.12567 20.4914 9.079 20.6174 9.079H20.7084C20.8577 9.079 20.9861 9.149 21.0934 9.289L23.7884 13.181V9.401C23.7884 9.31233 23.8187 9.23767 23.8794 9.177C23.9401 9.11167 24.0147 9.079 24.1034 9.079C24.1921 9.079 24.2667 9.11167 24.3274 9.177C24.3927 9.23767 24.4254 9.31233 24.4254 9.401V13.58C24.4254 13.706 24.3787 13.8133 24.2854 13.902C24.1967 13.9907 24.0894 14.035 23.9634 14.035H23.8794C23.8047 14.035 23.7347 14.0187 23.6694 13.986C23.6041 13.9487 23.5504 13.902 23.5084 13.846L20.7994 9.933V13.72C20.7994 13.8087 20.7667 13.8833 20.7014 13.944C20.6407 14.0047 20.5661 14.035 20.4774 14.035Z" fill="white"/>
<path d="M17.5153 20.7338H16.3468C15.3961 20.7338 15 20.0406 15 19.3672C15 18.674 15.4951 18 16.3468 18H19.1592C20.0114 18 20.4868 18.614 20.4868 19.4062V30.6781C20.4868 31.669 19.853 32.2229 19.0007 32.2229C18.1491 32.2229 17.5153 31.669 17.5153 30.6781V20.7338Z" fill="#66757F"/>
</svg>
