<svg viewBox="0 0 36 36" fill="none" xmlns="http://www.w3.org/2000/svg">
<path d="M35 32C35 34.209 33.209 36 31 36H5C2.791 36 1 34.209 1 32V8C1 5.791 2.791 4 5 4H31C33.209 4 35 5.791 35 8V32Z" fill="#292F33"/>
<path d="M33 32C33 33.104 32.104 34 31 34H5C3.896 34 3 33.104 3 32V12C3 10.896 3.896 10 5 10H31C32.104 10 33 10.896 33 12V32Z" fill="#E1E8ED"/>
<path d="M33 16H3V8C3 6.896 3.896 6 5 6H31C32.104 6 33 6.896 33 8V16Z" fill="#DD2E44"/>
<path d="M11 7C11 7.552 10.552 8 10 8C9.448 8 9 7.552 9 7V1C9 0.448 9.448 0 10 0C10.552 0 11 0.448 11 1V7ZM27 7C27 7.552 26.553 8 26 8C25.447 8 25 7.552 25 7V1C25 0.448 25.447 0 26 0C26.553 0 27 0.448 27 1V7Z" fill="#99AAB5"/>
<path d="M13.176 14.07C12.8353 14.07 12.525 13.9907 12.245 13.832C12.1423 13.7713 12.091 13.685 12.091 13.573C12.091 13.4983 12.1143 13.433 12.161 13.377C12.2123 13.3163 12.2777 13.286 12.357 13.286C12.4037 13.286 12.4457 13.2953 12.483 13.314C12.6977 13.4167 12.9147 13.468 13.134 13.468C13.386 13.468 13.589 13.3957 13.743 13.251C13.9017 13.1063 13.981 12.8333 13.981 12.432V9.401C13.981 9.31233 14.0113 9.23767 14.072 9.177C14.1327 9.11167 14.2073 9.079 14.296 9.079C14.3847 9.079 14.4593 9.11167 14.52 9.177C14.5853 9.23767 14.618 9.31233 14.618 9.401V12.39C14.618 13.0013 14.4803 13.4353 14.205 13.692C13.9343 13.944 13.5913 14.07 13.176 14.07ZM17.9137 14.07C17.5824 14.07 17.2627 14 16.9547 13.86C16.6467 13.72 16.3947 13.5077 16.1987 13.223C16.0027 12.9337 15.9047 12.5813 15.9047 12.166V9.401C15.9047 9.31233 15.9351 9.23767 15.9957 9.177C16.0564 9.11167 16.1311 9.079 16.2197 9.079C16.3084 9.079 16.3831 9.11167 16.4437 9.177C16.5091 9.23767 16.5417 9.31233 16.5417 9.401V12.187C16.5417 12.467 16.6047 12.705 16.7307 12.901C16.8614 13.097 17.0317 13.244 17.2417 13.342C17.4517 13.44 17.6757 13.489 17.9137 13.489C18.1517 13.489 18.3757 13.44 18.5857 13.342C18.7957 13.244 18.9637 13.097 19.0897 12.901C19.2204 12.705 19.2857 12.467 19.2857 12.187V9.401C19.2857 9.31233 19.3161 9.23767 19.3767 9.177C19.4374 9.11167 19.5121 9.079 19.6007 9.079C19.6894 9.079 19.7641 9.11167 19.8247 9.177C19.8901 9.23767 19.9227 9.31233 19.9227 9.401V12.166C19.9227 12.5813 19.8247 12.9337 19.6287 13.223C19.4327 13.5077 19.1807 13.72 18.8727 13.86C18.5647 14 18.2451 14.07 17.9137 14.07ZM21.6854 14C21.5641 14 21.4591 13.958 21.3704 13.874C21.2864 13.7853 21.2444 13.6803 21.2444 13.559V9.401C21.2444 9.31233 21.2748 9.23767 21.3354 9.177C21.3961 9.11167 21.4708 9.079 21.5594 9.079C21.6481 9.079 21.7228 9.11167 21.7834 9.177C21.8488 9.23767 21.8814 9.31233 21.8814 9.401V13.363H24.1704C24.2591 13.363 24.3338 13.3957 24.3944 13.461C24.4598 13.5217 24.4924 13.5963 24.4924 13.685C24.4924 13.7737 24.4598 13.8483 24.3944 13.909C24.3338 13.9697 24.2591 14 24.1704 14H21.6854Z" fill="white"/>
<path d="M19.5365 20.8527H14.4656C13.3961 20.8527 13 20.1293 13 19.4267C13 18.7033 13.3763 18 14.4656 18H21.6365C22.6472 18 23.0631 18.9507 23.0631 19.488C23.0631 19.9013 22.8453 20.3353 22.6076 20.852L17.6946 31.27C17.14 32.4273 16.9221 32.84 16.0309 32.84C14.9416 32.84 14.3864 31.972 14.3864 31.3727C14.3864 31.1247 14.4458 30.9393 14.5851 30.6493L19.5365 20.8527Z" fill="#66757F"/>
</svg>
