<svg viewBox="0 0 36 36" fill="none" xmlns="http://www.w3.org/2000/svg">
<path d="M35 32C35 34.209 33.209 36 31 36H5C2.791 36 1 34.209 1 32V8C1 5.791 2.791 4 5 4H31C33.209 4 35 5.791 35 8V32Z" fill="#292F33"/>
<path d="M33 32C33 33.104 32.104 34 31 34H5C3.896 34 3 33.104 3 32V12C3 10.896 3.896 10 5 10H31C32.104 10 33 10.896 33 12V32Z" fill="#E1E8ED"/>
<path d="M33 16H3V8C3 6.896 3.896 6 5 6H31C32.104 6 33 6.896 33 8V16Z" fill="#DD2E44"/>
<path d="M11 7C11 7.552 10.552 8 10 8C9.448 8 9 7.552 9 7V1C9 0.448 9.448 0 10 0C10.552 0 11 0.448 11 1V7ZM27 7C27 7.552 26.553 8 26 8C25.447 8 25 7.552 25 7V1C25 0.448 25.447 0 26 0C26.553 0 27 0.448 27 1V7Z" fill="#99AAB5"/>
<path d="M12.176 14.07C11.8353 14.07 11.525 13.9907 11.245 13.832C11.1423 13.7713 11.091 13.685 11.091 13.573C11.091 13.4983 11.1143 13.433 11.161 13.377C11.2123 13.3163 11.2777 13.286 11.357 13.286C11.4037 13.286 11.4457 13.2953 11.483 13.314C11.6977 13.4167 11.9147 13.468 12.134 13.468C12.386 13.468 12.589 13.3957 12.743 13.251C12.9017 13.1063 12.981 12.8333 12.981 12.432V9.401C12.981 9.31233 13.0113 9.23767 13.072 9.177C13.1327 9.11167 13.2073 9.079 13.296 9.079C13.3847 9.079 13.4593 9.11167 13.52 9.177C13.5853 9.23767 13.618 9.31233 13.618 9.401V12.39C13.618 13.0013 13.4803 13.4353 13.205 13.692C12.9343 13.944 12.5913 14.07 12.176 14.07ZM16.9137 14.07C16.5824 14.07 16.2627 14 15.9547 13.86C15.6467 13.72 15.3947 13.5077 15.1987 13.223C15.0027 12.9337 14.9047 12.5813 14.9047 12.166V9.401C14.9047 9.31233 14.9351 9.23767 14.9957 9.177C15.0564 9.11167 15.1311 9.079 15.2197 9.079C15.3084 9.079 15.3831 9.11167 15.4437 9.177C15.5091 9.23767 15.5417 9.31233 15.5417 9.401V12.187C15.5417 12.467 15.6047 12.705 15.7307 12.901C15.8614 13.097 16.0317 13.244 16.2417 13.342C16.4517 13.44 16.6757 13.489 16.9137 13.489C17.1517 13.489 17.3757 13.44 17.5857 13.342C17.7957 13.244 17.9637 13.097 18.0897 12.901C18.2204 12.705 18.2857 12.467 18.2857 12.187V9.401C18.2857 9.31233 18.3161 9.23767 18.3767 9.177C18.4374 9.11167 18.5121 9.079 18.6007 9.079C18.6894 9.079 18.7641 9.11167 18.8247 9.177C18.8901 9.23767 18.9227 9.31233 18.9227 9.401V12.166C18.9227 12.5813 18.8247 12.9337 18.6287 13.223C18.4327 13.5077 18.1807 13.72 17.8727 13.86C17.5647 14 17.2451 14.07 16.9137 14.07ZM20.5594 14.035C20.4708 14.035 20.3961 14.0047 20.3354 13.944C20.2748 13.8833 20.2444 13.8087 20.2444 13.72V9.541C20.2444 9.415 20.2888 9.30767 20.3774 9.219C20.4661 9.12567 20.5734 9.079 20.6994 9.079H20.7904C20.9398 9.079 21.0681 9.149 21.1754 9.289L23.8704 13.181V9.401C23.8704 9.31233 23.9008 9.23767 23.9614 9.177C24.0221 9.11167 24.0968 9.079 24.1854 9.079C24.2741 9.079 24.3488 9.11167 24.4094 9.177C24.4748 9.23767 24.5074 9.31233 24.5074 9.401V13.58C24.5074 13.706 24.4608 13.8133 24.3674 13.902C24.2788 13.9907 24.1714 14.035 24.0454 14.035H23.9614C23.8868 14.035 23.8168 14.0187 23.7514 13.986C23.6861 13.9487 23.6324 13.902 23.5904 13.846L20.8814 9.933V13.72C20.8814 13.8087 20.8488 13.8833 20.7834 13.944C20.7228 14.0047 20.6481 14.035 20.5594 14.035Z" fill="white"/>
<path d="M13 27.0873C13 23.966 16.0309 19.584 18.0312 17.6407C18.1897 17.4753 18.4274 17.31 18.665 17.1447C18.8829 17 19.1014 17 19.2598 17C19.8137 17 20.666 17.7647 20.666 18.5093C20.666 18.7987 20.4878 19.0467 20.2501 19.3567C19.4579 20.3693 18.1705 21.692 17.5163 22.664L17.5559 22.7053C17.9124 22.54 18.3679 22.4573 18.8043 22.4573C21.1816 22.4573 22.9437 24.6487 22.9437 27.0873C22.9437 29.774 20.9031 32.214 17.9712 32.214C14.9218 32.2133 13 29.8367 13 27.0873ZM16.0903 27.0873C16.0903 28.2447 16.7835 29.2373 17.9718 29.2373C19.1014 29.2373 19.854 28.286 19.854 27.0873C19.854 25.992 19.2202 24.9373 17.9718 24.9373C16.8429 24.9373 16.0903 25.868 16.0903 27.0873Z" fill="#66757F"/>
</svg>
