<svg viewBox="0 0 36 36" fill="none" xmlns="http://www.w3.org/2000/svg">
<path d="M35 32C35 34.209 33.209 36 31 36H5C2.791 36 1 34.209 1 32V8C1 5.791 2.791 4 5 4H31C33.209 4 35 5.791 35 8V32Z" fill="#292F33"/>
<path d="M33 32C33 33.104 32.104 34 31 34H5C3.896 34 3 33.104 3 32V12C3 10.896 3.896 10 5 10H31C32.104 10 33 10.896 33 12V32Z" fill="#E1E8ED"/>
<path d="M33 16H3V8C3 6.896 3.896 6 5 6H31C32.104 6 33 6.896 33 8V16Z" fill="#DD2E44"/>
<path d="M11 7C11 7.552 10.552 8 10 8C9.448 8 9 7.552 9 7V1C9 0.448 9.448 0 10 0C10.552 0 11 0.448 11 1V7ZM27 7C27 7.552 26.553 8 26 8C25.447 8 25 7.552 25 7V1C25 0.448 25.447 0 26 0C26.553 0 27 0.448 27 1V7Z" fill="#99AAB5"/>
<path d="M9.994 14.035C9.90533 14.035 9.83067 14.0047 9.77 13.944C9.70933 13.8833 9.679 13.8087 9.679 13.72V9.541C9.679 9.415 9.72333 9.30767 9.812 9.219C9.90067 9.12567 10.008 9.079 10.134 9.079H10.365C10.4583 9.079 10.5423 9.107 10.617 9.163C10.6963 9.219 10.7547 9.289 10.792 9.373L12.381 13.335L13.97 9.373C14.0073 9.289 14.0633 9.219 14.138 9.163C14.2173 9.107 14.3037 9.079 14.397 9.079H14.628C14.754 9.079 14.8613 9.12567 14.95 9.219C15.0387 9.30767 15.083 9.415 15.083 9.541V13.72C15.083 13.8087 15.0527 13.8833 14.992 13.944C14.9313 14.0047 14.8567 14.035 14.768 14.035C14.6793 14.035 14.6023 14.0047 14.537 13.944C14.4763 13.8833 14.446 13.8087 14.446 13.72V9.744L12.829 13.741C12.7917 13.8297 12.731 13.902 12.647 13.958C12.5677 14.0093 12.479 14.035 12.381 14.035C12.283 14.035 12.192 14.0093 12.108 13.958C12.0287 13.902 11.9703 13.8297 11.933 13.741L10.316 9.744V13.72C10.316 13.8087 10.2833 13.8833 10.218 13.944C10.1573 14.0047 10.0827 14.035 9.994 14.035ZM16.4257 14.035C16.3324 14.035 16.2554 14.0047 16.1947 13.944C16.1387 13.8833 16.1107 13.8087 16.1107 13.72C16.1107 13.6827 16.1224 13.636 16.1457 13.58L17.9307 9.366C17.9681 9.282 18.0194 9.21433 18.0847 9.163C18.1547 9.107 18.2387 9.079 18.3367 9.079H18.4067C18.5047 9.079 18.5864 9.107 18.6517 9.163C18.7217 9.21433 18.7754 9.282 18.8127 9.366L20.5977 13.58C20.6211 13.636 20.6327 13.6827 20.6327 13.72C20.6327 13.8087 20.6024 13.8833 20.5417 13.944C20.4857 14.0047 20.4111 14.035 20.3177 14.035C20.2524 14.035 20.1917 14.0187 20.1357 13.986C20.0844 13.9487 20.0447 13.8997 20.0167 13.839L19.5617 12.747H17.1817L16.7267 13.839C16.6987 13.8997 16.6567 13.9487 16.6007 13.986C16.5494 14.0187 16.4911 14.035 16.4257 14.035ZM17.4267 12.166H19.3167L18.3717 9.891L17.4267 12.166ZM21.9774 14.035C21.8887 14.035 21.8141 14.0047 21.7534 13.944C21.6927 13.8833 21.6624 13.8087 21.6624 13.72V9.436C21.6624 9.34733 21.6927 9.27267 21.7534 9.212C21.8141 9.14667 21.8887 9.114 21.9774 9.114H23.6084C24.2431 9.114 24.7191 9.24467 25.0364 9.506C25.3537 9.76733 25.5124 10.1103 25.5124 10.535C25.5124 10.815 25.4331 11.0717 25.2744 11.305C25.1204 11.5337 24.8941 11.6993 24.5954 11.802C24.9314 11.8907 25.1601 12.1007 25.2814 12.432C25.4074 12.7587 25.4704 13.0807 25.4704 13.398V13.72C25.4704 13.8087 25.4401 13.8833 25.3794 13.944C25.3187 14.0047 25.2441 14.035 25.1554 14.035C25.0574 14.035 24.9781 14.007 24.9174 13.951C24.8614 13.8903 24.8334 13.8133 24.8334 13.72V13.51C24.8334 13.2767 24.8124 13.062 24.7704 12.866C24.7284 12.6653 24.6281 12.488 24.4694 12.334C24.3107 12.1753 24.0704 12.096 23.7484 12.096H22.2994V13.72C22.2994 13.8087 22.2667 13.8833 22.2014 13.944C22.1407 14.0047 22.0661 14.035 21.9774 14.035ZM23.5664 11.494C23.9677 11.494 24.2851 11.4147 24.5184 11.256C24.7564 11.0973 24.8754 10.8733 24.8754 10.584C24.8754 10.304 24.7727 10.0893 24.5674 9.94C24.3667 9.79067 24.0214 9.716 23.5314 9.716H22.2994V11.494H23.5664Z" fill="white"/>
<path d="M21.9534 21.6251C21.9534 22.8734 21.4193 23.9628 20.3293 24.6559C21.7553 25.3102 22.7456 26.6371 22.7456 28.2018C22.7456 30.5791 20.567 32.5801 17.754 32.5801C14.8221 32.5801 13 30.4206 13 28.856C13 28.0836 13.8127 27.529 14.5257 27.529C15.8724 27.529 15.5556 29.8469 17.7942 29.8469C18.8241 29.8469 19.6566 29.0547 19.6566 28.0044C19.6566 25.2309 16.2884 27.2716 16.2884 24.9339C16.2884 22.8543 19.1008 24.2605 19.1008 22.0614C19.1008 21.3082 18.5666 20.7338 17.6748 20.7338C15.7932 20.7338 16.0507 22.6748 14.7033 22.6748C13.8912 22.6748 13.4159 21.9419 13.4159 21.2091C13.4159 19.6643 15.5351 18 17.7342 18C20.5874 18 21.9534 20.0802 21.9534 21.6251V21.6251Z" fill="#66757F"/>
</svg>
