<svg viewBox="0 0 36 36" fill="none" xmlns="http://www.w3.org/2000/svg">
<path d="M35 32C35 34.209 33.209 36 31 36H5C2.791 36 1 34.209 1 32V8C1 5.791 2.791 4 5 4H31C33.209 4 35 5.791 35 8V32Z" fill="#292F33"/>
<path d="M33 32C33 33.104 32.104 34 31 34H5C3.896 34 3 33.104 3 32V12C3 10.896 3.896 10 5 10H31C32.104 10 33 10.896 33 12V32Z" fill="#E1E8ED"/>
<path d="M33 16H3V8C3 6.896 3.896 6 5 6H31C32.104 6 33 6.896 33 8V16Z" fill="#DD2E44"/>
<path d="M11 7C11 7.552 10.552 8 10 8C9.448 8 9 7.552 9 7V1C9 0.448 9.448 0 10 0C10.552 0 11 0.448 11 1V7ZM27 7C27 7.552 26.553 8 26 8C25.447 8 25 7.552 25 7V1C25 0.448 25.447 0 26 0C26.553 0 27 0.448 27 1V7Z" fill="#99AAB5"/>
<path d="M10.994 14.035C10.9053 14.035 10.8307 14.0047 10.77 13.944C10.7093 13.8833 10.679 13.8087 10.679 13.72V9.541C10.679 9.415 10.7233 9.30767 10.812 9.219C10.9007 9.12567 11.008 9.079 11.134 9.079H11.365C11.4583 9.079 11.5423 9.107 11.617 9.163C11.6963 9.219 11.7547 9.289 11.792 9.373L13.381 13.335L14.97 9.373C15.0073 9.289 15.0633 9.219 15.138 9.163C15.2173 9.107 15.3037 9.079 15.397 9.079H15.628C15.754 9.079 15.8613 9.12567 15.95 9.219C16.0387 9.30767 16.083 9.415 16.083 9.541V13.72C16.083 13.8087 16.0527 13.8833 15.992 13.944C15.9313 14.0047 15.8567 14.035 15.768 14.035C15.6793 14.035 15.6023 14.0047 15.537 13.944C15.4763 13.8833 15.446 13.8087 15.446 13.72V9.744L13.829 13.741C13.7917 13.8297 13.731 13.902 13.647 13.958C13.5677 14.0093 13.479 14.035 13.381 14.035C13.283 14.035 13.192 14.0093 13.108 13.958C13.0287 13.902 12.9703 13.8297 12.933 13.741L11.316 9.744V13.72C11.316 13.8087 11.2833 13.8833 11.218 13.944C11.1573 14.0047 11.0827 14.035 10.994 14.035ZM17.4257 14.035C17.3324 14.035 17.2554 14.0047 17.1947 13.944C17.1387 13.8833 17.1107 13.8087 17.1107 13.72C17.1107 13.6827 17.1224 13.636 17.1457 13.58L18.9307 9.366C18.9681 9.282 19.0194 9.21433 19.0847 9.163C19.1547 9.107 19.2387 9.079 19.3367 9.079H19.4067C19.5047 9.079 19.5864 9.107 19.6517 9.163C19.7217 9.21433 19.7754 9.282 19.8127 9.366L21.5977 13.58C21.6211 13.636 21.6327 13.6827 21.6327 13.72C21.6327 13.8087 21.6024 13.8833 21.5417 13.944C21.4857 14.0047 21.4111 14.035 21.3177 14.035C21.2524 14.035 21.1917 14.0187 21.1357 13.986C21.0844 13.9487 21.0447 13.8997 21.0167 13.839L20.5617 12.747H18.1817L17.7267 13.839C17.6987 13.8997 17.6567 13.9487 17.6007 13.986C17.5494 14.0187 17.4911 14.035 17.4257 14.035ZM18.4267 12.166H20.3167L19.3717 9.891L18.4267 12.166ZM23.8064 14.035C23.7177 14.035 23.6407 14.0047 23.5754 13.944C23.5147 13.8833 23.4844 13.8087 23.4844 13.72V11.935L21.8114 9.59C21.7741 9.52933 21.7554 9.46633 21.7554 9.401C21.7554 9.31233 21.7834 9.23767 21.8394 9.177C21.9001 9.11167 21.9747 9.079 22.0634 9.079C22.1801 9.079 22.2734 9.13267 22.3434 9.24L23.8064 11.368L25.2694 9.24C25.3394 9.13267 25.4327 9.079 25.5494 9.079C25.6381 9.079 25.7127 9.11167 25.7734 9.177C25.8341 9.23767 25.8621 9.31233 25.8574 9.401C25.8574 9.46633 25.8387 9.52933 25.8014 9.59L24.1214 11.935V13.72C24.1214 13.8087 24.0911 13.8833 24.0304 13.944C23.9697 14.0047 23.8951 14.035 23.8064 14.035Z" fill="white"/>
<path d="M17.0205 23.0433C17.4959 22.94 18.0114 22.8367 18.5066 22.8367C20.9037 22.8367 22.607 24.8213 22.607 27.2393C22.607 30.6913 20.7855 32.9653 17.3579 32.9653C15.9517 32.9653 13 32.014 13 30.1953C13 29.4307 13.614 28.7907 14.3468 28.7907C15.139 28.7907 16.0903 30.1133 17.4173 30.1133C18.8037 30.1133 19.5179 28.7073 19.5179 27.4053C19.5179 26.1653 18.8439 25.318 17.616 25.318C16.4666 25.318 16.2884 26 15.2783 26C14.5059 26 14.1098 25.38 14.1098 25.0287C14.1098 24.76 14.1494 24.5533 14.1692 24.326L14.6637 19.9633C14.8815 18.3513 15.2578 18 16.2085 18H20.9823C21.8946 18 22.4287 18.558 22.4287 19.302C22.4287 20.7287 21.3995 20.8527 21.0423 20.8527H17.3182L17.0205 23.0433V23.0433Z" fill="#66757F"/>
</svg>
