<svg viewBox="0 0 36 36" fill="none" xmlns="http://www.w3.org/2000/svg">
<path d="M35 32C35 34.209 33.209 36 31 36H5C2.791 36 1 34.209 1 32V8C1 5.791 2.791 4 5 4H31C33.209 4 35 5.791 35 8V32Z" fill="#292F33"/>
<path d="M33 32C33 33.104 32.104 34 31 34H5C3.896 34 3 33.104 3 32V12C3 10.896 3.896 10 5 10H31C32.104 10 33 10.896 33 12V32Z" fill="#E1E8ED"/>
<path d="M33 16H3V8C3 6.896 3.896 6 5 6H31C32.104 6 33 6.896 33 8V16Z" fill="#DD2E44"/>
<path d="M11 7C11 7.552 10.552 8 10 8C9.448 8 9 7.552 9 7V1C9 0.448 9.448 0 10 0C10.552 0 11 0.448 11 1V7ZM27 7C27 7.552 26.553 8 26 8C25.447 8 25 7.552 25 7V1C25 0.448 25.447 0 26 0C26.553 0 27 0.448 27 1V7Z" fill="#99AAB5"/>
<path d="M10.994 14.035C10.9053 14.035 10.8307 14.0047 10.77 13.944C10.7093 13.8833 10.679 13.8087 10.679 13.72V9.541C10.679 9.415 10.7233 9.30767 10.812 9.219C10.9007 9.12567 11.008 9.079 11.134 9.079H11.225C11.3743 9.079 11.5027 9.149 11.61 9.289L14.305 13.181V9.401C14.305 9.31233 14.3353 9.23767 14.396 9.177C14.4567 9.11167 14.5313 9.079 14.62 9.079C14.7087 9.079 14.7833 9.11167 14.844 9.177C14.9093 9.23767 14.942 9.31233 14.942 9.401V13.58C14.942 13.706 14.8953 13.8133 14.802 13.902C14.7133 13.9907 14.606 14.035 14.48 14.035H14.396C14.3213 14.035 14.2513 14.0187 14.186 13.986C14.1207 13.9487 14.067 13.902 14.025 13.846L11.316 9.933V13.72C11.316 13.8087 11.2833 13.8833 11.218 13.944C11.1573 14.0047 11.0827 14.035 10.994 14.035ZM18.4611 14.07C17.9711 14.07 17.5418 13.9627 17.1731 13.748C16.8045 13.5333 16.5198 13.237 16.3191 12.859C16.1185 12.481 16.0135 12.047 16.0041 11.557C16.0135 11.067 16.1185 10.633 16.3191 10.255C16.5198 9.877 16.8045 9.58067 17.1731 9.366C17.5418 9.15133 17.9711 9.044 18.4611 9.044C18.9511 9.044 19.3781 9.15133 19.7421 9.366C20.1108 9.58067 20.3955 9.87933 20.5961 10.262C20.8015 10.64 20.9088 11.0717 20.9181 11.557C20.9088 12.0423 20.8015 12.4763 20.5961 12.859C20.3955 13.237 20.1108 13.5333 19.7421 13.748C19.3781 13.9627 18.9511 14.07 18.4611 14.07ZM18.4611 13.475C18.8345 13.475 19.1588 13.391 19.4341 13.223C19.7095 13.055 19.9195 12.8263 20.0641 12.537C20.2088 12.2477 20.2811 11.921 20.2811 11.557C20.2811 11.193 20.2088 10.8663 20.0641 10.577C19.9195 10.2877 19.7095 10.059 19.4341 9.891C19.1588 9.723 18.8345 9.639 18.4611 9.639C18.0831 9.639 17.7565 9.723 17.4811 9.891C17.2105 10.059 17.0028 10.2877 16.8581 10.577C16.7135 10.8663 16.6411 11.193 16.6411 11.557C16.6411 11.921 16.7135 12.2477 16.8581 12.537C17.0028 12.8263 17.2105 13.055 17.4811 13.223C17.7565 13.391 18.0831 13.475 18.4611 13.475ZM23.5561 14.035C23.3648 14.035 23.2201 13.9277 23.1221 13.713L21.3931 9.52C21.3791 9.48267 21.3721 9.443 21.3721 9.401C21.3721 9.303 21.4001 9.226 21.4561 9.17C21.5121 9.10933 21.5891 9.079 21.6871 9.079C21.7524 9.079 21.8108 9.1 21.8621 9.142C21.9181 9.17933 21.9601 9.23067 21.9881 9.296L23.6331 13.398L25.2781 9.296C25.3061 9.23067 25.3458 9.17933 25.3971 9.142C25.4531 9.1 25.5138 9.079 25.5791 9.079C25.6771 9.079 25.7541 9.10933 25.8101 9.17C25.8661 9.226 25.8941 9.303 25.8941 9.401C25.8941 9.443 25.8871 9.48267 25.8731 9.52L24.1441 13.713C24.0461 13.9277 23.9014 14.035 23.7101 14.035H23.5561Z" fill="white"/>
<path d="M21.5153 20.8527H20.3468C19.3961 20.8527 19 20.1293 19 19.4267C19 18.7033 19.4951 18 20.3468 18H23.1592C24.0114 18 24.4868 18.6407 24.4868 19.4673V31.2293C24.4868 32.2633 23.853 32.8413 23.0007 32.8413C22.1491 32.8413 21.5153 32.2633 21.5153 31.2293V20.8527Z" fill="#66757F"/>
<path d="M12.5153 20.8527H11.3468C10.3961 20.8527 10 20.1293 10 19.4267C10 18.7033 10.4951 18 11.3468 18H14.1592C15.0114 18 15.4868 18.6407 15.4868 19.4673V31.2293C15.4868 32.2633 14.853 32.8413 14.0007 32.8413C13.1491 32.8413 12.5153 32.2633 12.5153 31.2293V20.8527Z" fill="#66757F"/>
</svg>
