<svg viewBox="0 0 36 36" fill="none" xmlns="http://www.w3.org/2000/svg">
<path d="M35 32C35 34.209 33.209 36 31 36H5C2.791 36 1 34.209 1 32V8C1 5.791 2.791 4 5 4H31C33.209 4 35 5.791 35 8V32Z" fill="#292F33"/>
<path d="M33 32C33 33.104 32.104 34 31 34H5C3.896 34 3 33.104 3 32V12C3 10.896 3.896 10 5 10H31C32.104 10 33 10.896 33 12V32Z" fill="#E1E8ED"/>
<path d="M33 16H3V8C3 6.896 3.896 6 5 6H31C32.104 6 33 6.896 33 8V16Z" fill="#DD2E44"/>
<path d="M11 7C11 7.552 10.552 8 10 8C9.448 8 9 7.552 9 7V1C9 0.448 9.448 0 10 0C10.552 0 11 0.448 11 1V7ZM27 7C27 7.552 26.553 8 26 8C25.447 8 25 7.552 25 7V1C25 0.448 25.447 0 26 0C26.553 0 27 0.448 27 1V7Z" fill="#99AAB5"/>
<path d="M12.842 14.07C12.352 14.07 11.9227 13.9627 11.554 13.748C11.1853 13.5333 10.9007 13.237 10.7 12.859C10.4993 12.481 10.3943 12.047 10.385 11.557C10.3943 11.067 10.4993 10.633 10.7 10.255C10.9007 9.877 11.1853 9.58067 11.554 9.366C11.9227 9.15133 12.352 9.044 12.842 9.044C13.332 9.044 13.759 9.15133 14.123 9.366C14.4917 9.58067 14.7763 9.87933 14.977 10.262C15.1823 10.64 15.2897 11.0717 15.299 11.557C15.2897 12.0423 15.1823 12.4763 14.977 12.859C14.7763 13.237 14.4917 13.5333 14.123 13.748C13.759 13.9627 13.332 14.07 12.842 14.07ZM12.842 13.475C13.2153 13.475 13.5397 13.391 13.815 13.223C14.0903 13.055 14.3003 12.8263 14.445 12.537C14.5897 12.2477 14.662 11.921 14.662 11.557C14.662 11.193 14.5897 10.8663 14.445 10.577C14.3003 10.2877 14.0903 10.059 13.815 9.891C13.5397 9.723 13.2153 9.639 12.842 9.639C12.464 9.639 12.1373 9.723 11.862 9.891C11.5913 10.059 11.3837 10.2877 11.239 10.577C11.0943 10.8663 11.022 11.193 11.022 11.557C11.022 11.921 11.0943 12.2477 11.239 12.537C11.3837 12.8263 11.5913 13.055 11.862 13.223C12.1373 13.391 12.464 13.475 12.842 13.475ZM18.5157 14.07C18.049 14.07 17.629 13.9697 17.2557 13.769C16.887 13.5637 16.5953 13.272 16.3807 12.894C16.1707 12.5113 16.0657 12.0657 16.0657 11.557C16.0657 11.0483 16.1707 10.605 16.3807 10.227C16.5953 9.84433 16.887 9.55267 17.2557 9.352C17.629 9.14667 18.049 9.044 18.5157 9.044C18.833 9.044 19.1153 9.08133 19.3627 9.156C19.6147 9.23067 19.8643 9.338 20.1117 9.478C20.2143 9.534 20.2657 9.62267 20.2657 9.744C20.2657 9.814 20.24 9.877 20.1887 9.933C20.1373 9.98433 20.0697 10.01 19.9857 10.01C19.939 10.01 19.897 10.0007 19.8597 9.982C19.6543 9.87467 19.4537 9.793 19.2577 9.737C19.0617 9.681 18.8353 9.653 18.5787 9.653C18.1773 9.653 17.8343 9.737 17.5497 9.905C17.2697 10.0683 17.0573 10.2947 16.9127 10.584C16.7727 10.8687 16.7027 11.193 16.7027 11.557C16.7027 11.921 16.7727 12.2477 16.9127 12.537C17.0573 12.8217 17.2697 13.048 17.5497 13.216C17.8343 13.3793 18.1773 13.461 18.5787 13.461C18.8353 13.461 19.0617 13.433 19.2577 13.377C19.4537 13.321 19.6543 13.2393 19.8597 13.132C19.897 13.1133 19.939 13.104 19.9857 13.104C20.0697 13.104 20.1373 13.1297 20.1887 13.181C20.24 13.2323 20.2657 13.2953 20.2657 13.37C20.2657 13.4913 20.2143 13.58 20.1117 13.636C19.8643 13.776 19.6147 13.8833 19.3627 13.958C19.1153 14.0327 18.833 14.07 18.5157 14.07ZM22.6759 14.035C22.5872 14.035 22.5125 14.0047 22.4519 13.944C22.3912 13.8833 22.3609 13.8087 22.3609 13.72V9.709H20.9329C20.8489 9.709 20.7789 9.681 20.7229 9.625C20.6669 9.569 20.6389 9.499 20.6389 9.415C20.6389 9.331 20.6669 9.261 20.7229 9.205C20.7789 9.14433 20.8489 9.114 20.9329 9.114H24.4189C24.5029 9.114 24.5729 9.14433 24.6289 9.205C24.6895 9.261 24.7199 9.331 24.7199 9.415C24.7199 9.499 24.6895 9.569 24.6289 9.625C24.5729 9.681 24.5029 9.709 24.4189 9.709H22.9979V13.72C22.9979 13.8087 22.9652 13.8833 22.8999 13.944C22.8392 14.0047 22.7645 14.035 22.6759 14.035Z" fill="white"/>
<path d="M11.2922 20.8832H10.2273C9.36097 20.8832 9 20.1521 9 19.4419C9 18.7109 9.45121 18 10.2273 18H12.7902C13.5668 18 14 18.6475 14 19.483V31.3708C14 32.4158 13.4224 33 12.6458 33C11.8697 33 11.2922 32.4158 11.2922 31.3708V20.8832Z" fill="#66757F"/>
<path d="M16 25.5C16 22.1779 17.308 18 21.4997 18C25.6927 18 27 22.1779 27 25.5C27 28.8221 25.6927 33 21.4997 33C17.308 33 16 28.8221 16 25.5V25.5ZM23.7622 25.5C23.7622 23.9514 23.6169 20.7719 21.5003 20.7719C19.3837 20.7719 19.2385 23.9514 19.2385 25.5C19.2385 26.9468 19.3837 30.2281 21.5003 30.2281C23.6169 30.2281 23.7622 26.9468 23.7622 25.5V25.5Z" fill="#66757F"/>
</svg>
