<svg viewBox="0 0 36 36" fill="none" xmlns="http://www.w3.org/2000/svg">
<path d="M35 32C35 34.209 33.209 36 31 36H5C2.791 36 1 34.209 1 32V8C1 5.791 2.791 4 5 4H31C33.209 4 35 5.791 35 8V32Z" fill="#292F33"/>
<path d="M33 32C33 33.104 32.104 34 31 34H5C3.896 34 3 33.104 3 32V12C3 10.896 3.896 10 5 10H31C32.104 10 33 10.896 33 12V32Z" fill="#E1E8ED"/>
<path d="M33 16H3V8C3 6.896 3.896 6 5 6H31C32.104 6 33 6.896 33 8V16Z" fill="#DD2E44"/>
<path d="M11 7C11 7.552 10.552 8 10 8C9.448 8 9 7.552 9 7V1C9 0.448 9.448 0 10 0C10.552 0 11 0.448 11 1V7ZM27 7C27 7.552 26.553 8 26 8C25.447 8 25 7.552 25 7V1C25 0.448 25.447 0 26 0C26.553 0 27 0.448 27 1V7Z" fill="#99AAB5"/>
<path d="M13.219 13.07C12.6263 13.07 12.071 12.958 11.553 12.734C11.497 12.7107 11.4503 12.6733 11.413 12.622C11.3757 12.566 11.357 12.5077 11.357 12.447C11.357 12.3677 11.3827 12.3 11.434 12.244C11.49 12.1833 11.56 12.153 11.644 12.153C11.6907 12.153 11.735 12.1623 11.777 12.181C12.2063 12.3723 12.666 12.468 13.156 12.468C13.9727 12.468 14.381 12.1997 14.381 11.663C14.381 11.523 14.3273 11.4063 14.22 11.313C14.1173 11.2197 13.989 11.1473 13.835 11.096C13.681 11.04 13.4617 10.9747 13.177 10.9C12.799 10.802 12.4933 10.7087 12.26 10.62C12.0267 10.5267 11.826 10.389 11.658 10.207C11.49 10.025 11.406 9.78233 11.406 9.479C11.406 9.213 11.476 8.97267 11.616 8.758C11.756 8.53867 11.9613 8.366 12.232 8.24C12.5073 8.10933 12.8363 8.044 13.219 8.044C13.7323 8.044 14.1967 8.121 14.612 8.275C14.7427 8.32167 14.808 8.415 14.808 8.555C14.808 8.62967 14.7823 8.69733 14.731 8.758C14.6797 8.81867 14.612 8.849 14.528 8.849C14.5 8.849 14.4627 8.83967 14.416 8.821C14.052 8.695 13.6763 8.632 13.289 8.632C12.9203 8.632 12.6193 8.702 12.386 8.842C12.1573 8.982 12.043 9.178 12.043 9.43C12.043 9.598 12.0967 9.73567 12.204 9.843C12.316 9.94567 12.4537 10.0273 12.617 10.088C12.785 10.144 13.0113 10.2047 13.296 10.27C13.6647 10.3587 13.961 10.4473 14.185 10.536C14.4137 10.6247 14.6073 10.7623 14.766 10.949C14.9293 11.1357 15.011 11.3877 15.011 11.705C15.011 11.9663 14.9363 12.202 14.787 12.412C14.6377 12.6173 14.4277 12.7783 14.157 12.895C13.8863 13.0117 13.5737 13.07 13.219 13.07ZM16.3075 13C16.2188 13 16.1441 12.9697 16.0835 12.909C16.0228 12.8483 15.9925 12.7737 15.9925 12.685V8.436C15.9925 8.34733 16.0228 8.27267 16.0835 8.212C16.1441 8.14667 16.2188 8.114 16.3075 8.114H19.1145C19.1985 8.114 19.2685 8.14433 19.3245 8.205C19.3851 8.261 19.4155 8.331 19.4155 8.415C19.4155 8.499 19.3851 8.569 19.3245 8.625C19.2685 8.681 19.1985 8.709 19.1145 8.709H16.6295V10.256H18.8625C18.9465 10.256 19.0165 10.2863 19.0725 10.347C19.1331 10.403 19.1635 10.473 19.1635 10.557C19.1635 10.641 19.1331 10.711 19.0725 10.767C19.0165 10.823 18.9465 10.851 18.8625 10.851H16.6295V12.405H19.1145C19.1985 12.405 19.2685 12.4353 19.3245 12.496C19.3851 12.552 19.4155 12.622 19.4155 12.706C19.4155 12.79 19.3851 12.86 19.3245 12.916C19.2685 12.972 19.1985 13 19.1145 13H16.3075ZM20.7713 13.035C20.6827 13.035 20.608 13.0047 20.5473 12.944C20.4867 12.8833 20.4563 12.8087 20.4563 12.72V8.436C20.4563 8.34733 20.4867 8.27267 20.5473 8.212C20.608 8.14667 20.6827 8.114 20.7713 8.114H22.3673C22.8107 8.114 23.1723 8.18867 23.4523 8.338C23.7323 8.48733 23.933 8.67867 24.0543 8.912C24.1757 9.14533 24.2363 9.39733 24.2363 9.668C24.2363 9.93867 24.1757 10.1907 24.0543 10.424C23.933 10.6573 23.7323 10.8487 23.4523 10.998C23.1723 11.1473 22.8107 11.222 22.3673 11.222H21.0933V12.72C21.0933 12.8087 21.0607 12.8833 20.9953 12.944C20.9347 13.0047 20.86 13.035 20.7713 13.035ZM22.3043 10.62C22.7803 10.62 23.114 10.529 23.3053 10.347C23.5013 10.165 23.5993 9.93867 23.5993 9.668C23.5993 9.39733 23.5013 9.171 23.3053 8.989C23.114 8.807 22.7803 8.716 22.3043 8.716H21.0933V10.62H22.3043Z" fill="white"/>
<path d="M23 23.0541C23 26.1317 19.9526 30.4522 17.9402 32.3683C17.7809 32.5313 17.5419 32.6943 17.3029 32.8574C17.0838 33 16.8647 33 16.7053 33C16.1476 33 15.2905 32.2454 15.2905 31.5118C15.2905 31.2266 15.4698 30.982 15.7088 30.6764C16.5055 29.6773 17.8008 28.3731 18.4581 27.4154L18.4183 27.3747C18.0598 27.5377 17.6016 27.6192 17.1635 27.6192C14.7727 27.6192 13 25.4586 13 23.0541C13 20.4045 15.0515 18 18 18C21.068 18 23 20.3433 23 23.0541V23.0541ZM19.8922 23.0541C19.8922 21.913 19.1944 20.9343 17.9994 20.9343C16.864 20.9343 16.1072 21.8716 16.1072 23.0541C16.1072 24.1348 16.7445 25.174 17.9994 25.174C19.136 25.174 19.8922 24.2564 19.8922 23.0541V23.0541Z" fill="#66757F"/>
</svg>
