<svg viewBox="0 0 36 36" fill="none" xmlns="http://www.w3.org/2000/svg">
<path d="M19.2077 29.9219C19.2077 31.6934 17.7716 32.3276 16.0002 32.3276C14.2287 32.3276 12.7926 31.6934 12.7926 29.9219L13.5945 22.705C13.5945 20.9345 14.2287 21.1013 16.0002 21.1013C17.7716 21.1013 18.4058 20.9345 18.4058 22.705L19.2077 29.9219Z" fill="#662113"/>
<path d="M26.7493 25.3493C21.1663 20.5664 18.9052 13.7184 16.0002 13.7184C13.0951 13.7184 10.8341 20.5673 5.25106 25.3493C2.90485 27.3593 4.02251 28.5222 7.23891 28.2889C10.1058 28.0822 12.7873 27.432 16.0002 27.432C19.213 27.432 21.8954 28.0822 24.7605 28.2889C27.9778 28.5222 29.0946 27.3584 26.7493 25.3493Z" fill="#5C913B"/>
<path d="M24.9361 23.4537C20.6456 19.5197 18.2346 13.8852 16.0001 13.8852C13.7675 13.8852 11.3556 19.5197 7.06503 23.4537C3.65527 26.5796 11.533 27.2812 16.0001 23.4537C20.4655 27.2821 28.345 26.5796 24.9361 23.4537Z" fill="#3E721D"/>
<path d="M24.9361 20.2666C20.6456 16.5916 18.2346 11.3279 16.0001 11.3279C13.7675 11.3279 11.3556 16.5916 7.06503 20.2666C3.65527 23.1867 11.533 23.8422 16.0001 20.2666C20.4655 23.8431 28.345 23.1867 24.9361 20.2666Z" fill="#5C913B"/>
<path d="M22.9758 17.6569C19.6272 14.7873 17.7449 10.6777 16.0001 10.6777C14.2571 10.6777 12.3739 14.7864 9.02449 17.6569C6.36339 19.9366 12.5123 20.4484 16.0001 17.6569C19.4862 20.4475 25.6378 19.9366 22.9758 17.6569Z" fill="#3E721D"/>
<path d="M22.9758 15.269C19.6272 12.3994 17.7449 8.29067 16.0001 8.29067C14.2571 8.29067 12.3739 12.3994 9.02449 15.269C6.36339 17.5496 12.5123 18.0605 16.0001 15.269C19.4862 18.0605 25.6378 17.5496 22.9758 15.269Z" fill="#5C913B"/>
<path d="M21.6293 13.1481C18.9265 10.8329 17.407 7.51629 15.9993 7.51629C14.5924 7.51629 13.0729 10.8329 10.3693 13.1481C8.22085 14.9887 13.1847 15.4012 15.9993 13.1481C18.8147 15.4012 23.7786 14.9887 21.6293 13.1481Z" fill="#3E721D"/>
<path d="M21.6293 11.3509C18.9265 9.03578 17.407 5.71915 15.9993 5.71915C14.5924 5.71915 13.0729 9.03578 10.3693 11.3509C8.22085 13.1915 13.1847 13.604 15.9993 11.3509C18.8147 13.604 23.7786 13.1915 21.6293 11.3509Z" fill="#5C913B"/>
<path d="M20.2837 8.70492C18.2275 6.94327 17.0717 4.41965 16.0002 4.41965C14.9295 4.41965 13.7728 6.94327 11.7158 8.70492C10.081 10.1055 13.858 10.4196 16.0002 8.70492C18.1415 10.4196 21.9194 10.1055 20.2837 8.70492Z" fill="#3E721D"/>
<path d="M20.2837 7.74781C18.2275 5.98526 17.0717 3.46165 16.0002 3.46165C14.9295 3.46165 13.7728 5.98526 11.7158 7.74781C10.081 9.14844 13.858 9.46245 16.0002 7.74781C18.1415 9.46156 21.9194 9.14755 20.2837 7.74781Z" fill="#5C913B"/>
<path d="M14.2509 12.8128C14.9858 12.8128 15.5815 12.2171 15.5815 11.4822C15.5815 10.7474 14.9858 10.1517 14.2509 10.1517C13.5161 10.1517 12.9204 10.7474 12.9204 11.4822C12.9204 12.2171 13.5161 12.8128 14.2509 12.8128Z" fill="#FFCC4D"/>
<path d="M17.3556 24.7505C18.3353 24.7505 19.1296 23.9562 19.1296 22.9764C19.1296 21.9966 18.3353 21.2024 17.3556 21.2024C16.3758 21.2024 15.5815 21.9966 15.5815 22.9764C15.5815 23.9562 16.3758 24.7505 17.3556 24.7505Z" fill="#FFCC4D"/>
<path d="M19.5732 16.7672C20.7979 16.7672 21.7907 15.7743 21.7907 14.5496C21.7907 13.3249 20.7979 12.332 19.5732 12.332C18.3484 12.332 17.3556 13.3249 17.3556 14.5496C17.3556 15.7743 18.3484 16.7672 19.5732 16.7672Z" fill="#DD2E44"/>
<path d="M8.48519 25.6376C9.46499 25.6376 10.2593 24.8433 10.2593 23.8635C10.2593 22.8837 9.46499 22.0894 8.48519 22.0894C7.5054 22.0894 6.71112 22.8837 6.71112 23.8635C6.71112 24.8433 7.5054 25.6376 8.48519 25.6376Z" fill="#DD2E44"/>
<path d="M12.0333 19.4283C13.0131 19.4283 13.8074 18.634 13.8074 17.6542C13.8074 16.6744 13.0131 15.8802 12.0333 15.8802C11.0536 15.8802 10.2593 16.6744 10.2593 17.6542C10.2593 18.634 11.0536 19.4283 12.0333 19.4283Z" fill="#A6D388"/>
<path d="M22.6778 22.9764C23.6576 22.9764 24.4518 22.1822 24.4518 21.2024C24.4518 20.2226 23.6576 19.4283 22.6778 19.4283C21.698 19.4283 20.9037 20.2226 20.9037 21.2024C20.9037 22.1822 21.698 22.9764 22.6778 22.9764Z" fill="#A6D388"/>
<path d="M16.8047 2.28987C16.9315 2.53381 17.2589 2.77686 17.5294 2.83008L18.7526 3.06869C19.0232 3.12191 19.087 3.32593 18.8937 3.52285L18.0217 4.41344C17.8292 4.61036 17.6979 4.99622 17.7325 5.26943L17.8833 6.50596C17.917 6.78005 17.7423 6.90335 17.4948 6.78094L16.3798 6.22654C16.1323 6.10413 15.7252 6.09881 15.475 6.21501L14.3449 6.74191C14.0948 6.85722 13.9227 6.72949 13.9635 6.45628L14.1454 5.2233C14.1853 4.95098 14.0646 4.56246 13.8775 4.36022L13.0268 3.44923C12.8388 3.24787 12.9071 3.04385 13.1794 2.99862L14.4079 2.79105C14.6802 2.74581 15.012 2.51075 15.1459 2.26947L15.75 1.1793C15.884 0.938031 16.0995 0.940692 16.2263 1.18463L16.8047 2.28987Z" fill="#FFAC33"/>
<g clip-path="url(#clip0_39_20)">
<path d="M30.0833 33.4722C30.0833 34.1444 29.5333 34.6944 28.8611 34.6944H22.1389C21.4667 34.6944 20.9167 34.1444 20.9167 33.4722V28.2778C20.9167 27.6056 21.4667 27.0556 22.1389 27.0556H28.8611C29.5333 27.0556 30.0833 27.6056 30.0833 28.2778V33.4722Z" fill="#FDD888"/>
<path d="M31 27.3611C31 28.0333 30.45 28.5833 29.7778 28.5833H21.2222C20.55 28.5833 20 28.0333 20 27.3611C20 26.6889 20.55 26.1389 21.2222 26.1389H29.7778C30.45 26.1389 31 26.6889 31 27.3611Z" fill="#FDD888"/>
<path d="M20.9167 28.5833H30.0833V29.1944H20.9167V28.5833Z" fill="#FCAB40"/>
<path d="M25.8055 24.9167H25.1944C24.6881 24.9167 24.2778 25.327 24.2778 25.8333V34.6944H26.7222V25.8333C26.7222 25.3273 26.3119 24.9167 25.8055 24.9167Z" fill="#DA2F47"/>
<path d="M24.8889 26.1389C25.225 26.1389 25.2748 25.9812 24.9992 25.7884L22.9452 24.3505C22.6696 24.1577 22.3082 24.2386 22.1413 24.5304L21.5253 25.6084C21.3585 25.9002 21.4972 26.1389 21.8333 26.1389H24.8889ZM26.1111 26.1389C25.775 26.1389 25.7252 25.9812 26.0008 25.7884L28.0551 24.3505C28.3304 24.1577 28.6921 24.2386 28.859 24.5304L29.475 25.6081C29.6415 25.9002 29.5028 26.1389 29.1667 26.1389H26.1111Z" fill="#DA2F47"/>
</g>
<defs>
<clipPath id="clip0_39_20">
<rect width="11" height="11" fill="white" transform="translate(20 24)"/>
</clipPath>
</defs>
</svg>
