<svg viewBox="0 0 36 36" fill="none" xmlns="http://www.w3.org/2000/svg">
<g clip-path="url(#clip0_40_2)">
<path d="M26 8.94445C26 8.14712 25.3529 7.50001 24.5556 7.50001C23.7582 7.50001 23.1111 8.14712 23.1111 8.94445C23.1111 8.94445 23.1032 11.317 20.9444 11.7568V9.66667C20.9444 5.27917 17.3875 1.72223 13 1.72223C8.6125 1.72223 5.05556 5.27917 5.05556 9.66667V12.0045C1.28411 13.1377 0 17.778 0 20.5C0 21.2973 0.647111 21.9445 1.44444 21.9445C2.24178 21.9445 2.88889 21.2973 2.88889 20.5C2.88889 20.5 2.89033 17.9433 5.29822 17.6415C5.66078 21.1377 6.46678 24.8333 7.94444 24.8333H8.66667C11.5556 24.8333 10.8333 26.2778 13.7222 26.2778C16.6111 26.2778 15.8889 24.8333 18.0556 24.8333C20.2222 24.8333 19.7853 26.2778 22.3889 26.2778C23.5856 26.2778 24.5556 25.3078 24.5556 24.1111C24.5556 23.6236 22.9132 20.5043 21.8436 17.4176C25.9863 16.418 26 11.53 26 8.94445Z" fill="#E1E8ED"/>
<path d="M9.38889 11.1111C10.1866 11.1111 10.8333 10.4644 10.8333 9.66667C10.8333 8.86893 10.1866 8.22223 9.38889 8.22223C8.59114 8.22223 7.94444 8.86893 7.94444 9.66667C7.94444 10.4644 8.59114 11.1111 9.38889 11.1111Z" fill="#292F33"/>
<path d="M16.6111 12.5555C18.2066 12.5555 19.5 11.2621 19.5 9.66666C19.5 8.07117 18.2066 6.77777 16.6111 6.77777C15.0156 6.77777 13.7222 8.07117 13.7222 9.66666C13.7222 11.2621 15.0156 12.5555 16.6111 12.5555Z" fill="#292F33"/>
<path d="M16.6111 11.8333C17.4089 11.8333 18.0556 11.1866 18.0556 10.3889C18.0556 9.59116 17.4089 8.94446 16.6111 8.94446C15.8134 8.94446 15.1667 9.59116 15.1667 10.3889C15.1667 11.1866 15.8134 11.8333 16.6111 11.8333Z" fill="#9AAAB4"/>
<path d="M16.0276 15.0768C17.9414 16.5119 18.6211 18.8403 17.5442 20.2761C16.4674 21.7119 14.0422 21.7119 12.1276 20.2761C10.2137 18.8411 9.53405 16.5126 10.6109 15.0768C11.6884 13.6403 14.1129 13.6411 16.0276 15.0768Z" fill="#292F33"/>
</g>
<path d="M34.1467 20.6773C32.3133 18.7967 29.0111 18.5834 26 18.5834C22.9889 18.5834 19.6867 18.7967 17.8533 20.6773C16.3233 22.2467 16 24.695 16 26.9395C16 29.8634 17.1011 33.2234 19.5317 34.8528C21.2022 35.9728 23.75 35.8728 26 35.8728C28.25 35.8728 30.7978 35.9728 32.4683 34.8528C34.8989 33.2228 36 29.8634 36 26.9395C36 24.695 35.6767 22.2467 34.1467 20.6773Z" fill="#F4900C"/>
<path d="M27.5461 18.9689C27.5844 19.2023 27.4228 19.3934 27.1867 19.3934H24.7139C24.4772 19.3934 24.3155 19.2023 24.3544 18.9689L24.7683 16.4845C24.8072 16.2506 25.0328 16.0601 25.2694 16.0601H26.6311C26.8678 16.0601 27.0933 16.2512 27.1317 16.4845L27.5461 18.9689Z" fill="#3F7123"/>
<path d="M27.4744 27.6995L26.5867 26.2573C26.425 25.9561 26.2128 25.8056 25.9994 25.8034C25.7867 25.8056 25.5739 25.9561 25.4122 26.2573L24.5244 27.6995C24.1983 28.3067 25.0094 28.6528 25.9989 28.6528C26.9883 28.6528 27.8006 28.3061 27.4744 27.6995ZM32.7567 29.4728C32.7317 29.4311 32.6867 29.4056 32.6378 29.4056H32.1706C32.1328 29.4056 32.0961 29.4211 32.07 29.4484L30.8306 30.745L29.3317 29.54C29.3033 29.5173 29.2667 29.5078 29.2289 29.5106C29.1922 29.5145 29.1583 29.5334 29.1356 29.5628L27.7978 31.2639L26.1011 29.4495C26.0939 29.4417 26.0828 29.44 26.0744 29.4339C26.0661 29.4284 26.0606 29.4189 26.0506 29.415C26.0472 29.4139 26.0433 29.415 26.04 29.4139C26.0267 29.41 26.0139 29.4111 26 29.4111C25.9861 29.4111 25.9733 29.41 25.96 29.4145C25.9567 29.4156 25.9528 29.4139 25.9489 29.4156C25.9389 29.4195 25.9339 29.4289 25.925 29.4345C25.9161 29.44 25.9056 29.4417 25.8983 29.4495L24.2022 31.2639L22.8639 29.5628C22.8411 29.5334 22.8072 29.5145 22.7706 29.5106C22.7339 29.5073 22.6967 29.5173 22.6678 29.54L21.1689 30.745L19.93 29.4484C19.9039 29.4211 19.8678 29.4056 19.8294 29.4056H19.3622C19.3139 29.4056 19.2683 29.4311 19.2433 29.4728C19.2183 29.5145 19.2167 29.5661 19.2394 29.6089L20.7694 32.5084C20.7883 32.5439 20.8211 32.5695 20.8606 32.5789C20.9 32.5884 20.9411 32.58 20.9733 32.5567L22.1033 31.7467L23.7722 33.765C23.7961 33.7945 23.8311 33.8123 23.8689 33.815L23.8794 33.8156C23.9139 33.8156 23.9467 33.8034 23.9722 33.7806L26 31.9645L28.0278 33.78C28.0533 33.8028 28.0861 33.815 28.1206 33.815L28.1311 33.8145C28.1689 33.8117 28.2039 33.7939 28.2278 33.7645L29.8972 31.7461L31.0272 32.5561C31.0606 32.58 31.1011 32.5895 31.14 32.5784C31.1789 32.5689 31.2122 32.5439 31.2306 32.5084L32.7611 29.6089C32.7833 29.5661 32.7822 29.5145 32.7567 29.4728ZM31.5422 24.5117C31.6139 25.6934 31.1067 26.6261 29.7617 26.7078C28.4172 26.7889 27.8011 25.9239 27.7294 24.7428C27.6578 23.5617 28.4139 21.8984 29.4667 21.835C30.52 21.7706 31.4711 23.33 31.5422 24.5117ZM20.4578 24.5117C20.3861 25.6934 20.8933 26.6261 22.2383 26.7078C23.5828 26.7889 24.1989 25.9239 24.2706 24.7428C24.3422 23.5617 23.5861 21.8984 22.5333 21.835C21.4806 21.7717 20.5289 23.33 20.4578 24.5117Z" fill="#642116"/>
<g clip-path="url(#clip1_40_2)">
<path d="M29.9853 9.53995C30.5789 11.7556 29.8735 13.3084 29.1759 13.4953C28.4782 13.6823 27.0909 12.6902 26.4972 10.4746C25.9035 8.25896 26.6239 7.82367 27.587 7.56562C28.5504 7.30747 29.3916 7.32433 29.9853 9.53995Z" fill="#66757F"/>
<path d="M27.6805 7.91444C28.451 7.70796 28.9083 6.91592 28.7018 6.14536C28.4954 5.3748 27.7033 4.91751 26.9328 5.12398C26.1622 5.33046 25.7049 6.1225 25.9114 6.89306C26.1179 7.66362 26.9099 8.12091 27.6805 7.91444Z" fill="#66757F"/>
<path d="M25.9114 6.89305C24.7465 5.33594 25.6059 4.35794 25.6059 4.35794C25.6059 4.35794 26.397 4.51982 26.6774 5.56624C26.9578 6.61266 25.9114 6.89305 25.9114 6.89305Z" fill="#66757F"/>
<path d="M26.0419 6.44832C25.5416 5.66382 25.6363 5.10049 25.7545 4.81312C25.9412 4.93094 26.1985 5.17416 26.3286 5.6597C26.4471 6.10198 26.2329 6.3336 26.0419 6.44832Z" fill="#546066"/>
<path d="M28.7018 6.14534C28.9321 4.21438 27.6988 3.79716 27.6988 3.79716C27.6988 3.79716 27.0946 4.33289 27.375 5.37931C27.6554 6.42573 28.7018 6.14534 28.7018 6.14534ZM26.895 7.75104C26.438 8.30602 23.5938 9.38328 23.2884 6.84817C23.2454 6.48958 22.8461 6.59282 22.5908 7.03509C21.8247 8.3619 21.2301 10.3284 23.0648 14.3851C23.6439 12.3607 24.7838 12.4291 25.5999 14.0796C26.2725 12.404 27.5058 12.8213 28.3904 13.3319C29.1564 12.0051 26.895 7.75104 26.895 7.75104ZM28.2682 7.38308C28.9414 7.63524 31.9432 7.14607 30.9402 4.79788C30.7981 4.46584 31.1955 4.35561 31.6378 4.61096C32.9646 5.37699 34.4628 6.78273 34.9022 11.2132C33.3885 9.74959 32.4356 10.3788 32.5541 12.2163C31.1338 11.1014 30.2743 12.0794 29.7636 12.964C28.4368 12.1979 28.2682 7.38308 28.2682 7.38308Z" fill="#66757F"/>
<path d="M26.7025 7.05493C26.8951 7.00331 27.0094 6.8053 26.9578 6.61266C26.9062 6.42002 26.7082 6.30569 26.5155 6.35731C26.3229 6.40893 26.2086 6.60694 26.2602 6.79958C26.3118 6.99222 26.5098 7.10654 26.7025 7.05493Z" fill="#292F33"/>
<path d="M28.0977 6.68109C28.2903 6.62947 28.4046 6.43146 28.353 6.23882C28.3014 6.04618 28.1034 5.93185 27.9108 5.98347C27.7181 6.03509 27.6038 6.2331 27.6554 6.42574C27.707 6.61838 27.905 6.7327 28.0977 6.68109Z" fill="#292F33"/>
<path d="M28.3664 5.82549C28.4071 4.89604 28.0434 4.45551 27.7978 4.26562C27.695 4.46102 27.5937 4.80032 27.7238 5.28585C27.8423 5.72814 28.1437 5.82162 28.3664 5.82549Z" fill="#546066"/>
<path d="M25.3041 13.0037C25.3638 11.9817 24.9443 10.8615 24.0305 9.64012C23.1642 8.48189 22.9803 7.55543 22.9429 7.15645C22.9297 7.17533 22.9167 7.19263 22.9035 7.21563C22.2126 8.41275 21.7114 10.0862 23.0498 13.4305C23.366 12.8303 23.7301 12.6041 24.0147 12.5279C24.4559 12.4096 24.9017 12.5829 25.3041 13.0037Z" fill="#99AAB5"/>
<path d="M23.6214 8.34779C23.612 8.33911 23.6017 8.3314 23.5924 8.32306C23.937 9.29131 24.5189 9.50962 25.0085 10.4996C25.4884 11.4701 25.6904 12.3802 25.7462 13.1298C25.9854 12.8522 26.2665 12.6636 26.5909 12.5767C27.0318 12.4585 27.5299 12.5262 28.1016 12.7801C26.6591 9.68349 24.7281 9.45319 23.6214 8.34779ZM32.2831 11.1337C31.7201 10.2785 31.5239 9.09851 31.7043 7.58394C31.8753 6.14775 31.5714 5.25344 31.4043 4.88923C31.4252 4.89895 31.4454 4.90737 31.4681 4.92075C32.6649 5.61206 33.9357 6.8107 34.4488 10.3762C33.8752 10.0144 33.4464 10.0006 33.1622 10.0768C32.7206 10.1951 32.4212 10.5681 32.2831 11.1337Z" fill="#99AAB5"/>
<path d="M31.4124 6.26022L31.4255 6.22418C31.6108 7.23514 31.216 7.71515 31.287 8.81729C31.3567 9.89774 31.6365 10.7869 31.9633 11.4639C31.6169 11.3432 31.2796 11.3204 30.9552 11.4073C30.5143 11.5254 30.1167 11.8331 29.7486 12.3388C29.4495 8.9358 31.0066 7.77087 31.4124 6.26022ZM27.7434 7.18948C27.6469 7.35666 27.4306 7.41461 27.2638 7.31799L27.0116 7.1721C26.8444 7.07558 26.8601 6.95548 27.0467 6.90548L27.7252 6.7237C27.9118 6.67369 27.9856 6.76942 27.8889 6.93704L27.7434 7.18948Z" fill="#99AAB5"/>
</g>
<defs>
<clipPath id="clip0_40_2">
<rect width="26" height="26" fill="white" transform="translate(0 1)"/>
</clipPath>
<clipPath id="clip1_40_2">
<rect width="13" height="13" fill="white" transform="translate(20 4.36465) rotate(-15)"/>
</clipPath>
</defs>
</svg>
