<svg xmlns="http://www.w3.org/2000/svg" viewBox="0 0 36 36"><path fill="#88C9F9" d="M19 27.586V8.415l4.828-4.829s.707-.707 0-1.415c-.707-.707-1.414 0-1.414 0L19 5.586V1s0-1-1-1-1 1-1 1v4.586l-3.414-3.415s-.707-.707-1.414 0c-.707.708 0 1.415 0 1.415L17 8.415v19.171l-4.828 4.828s-.707.707 0 1.414 1.414 0 1.414 0L17 30.414V35s0 1 1 1 1-1 1-1v-4.586l3.414 3.414s.707.707 1.414 0 0-1.414 0-1.414L19 27.586z"/><path fill="#88C9F9" d="M34.622 20.866c-.259-.966-1.225-.707-1.225-.707l-6.595 1.767-16.603-9.586-1.767-6.595s-.259-.966-1.225-.707C6.24 5.297 6.5 6.263 6.5 6.263l1.25 4.664-3.972-2.294s-.866-.5-1.366.366c-.5.866.366 1.366.366 1.366l3.971 2.293-4.664 1.249s-.967.259-.707 1.225c.259.967 1.225.708 1.225.708l6.596-1.767 16.603 9.586 1.767 6.596s.259.966 1.225.707c.966-.26.707-1.225.707-1.225l-1.25-4.664 3.972 2.293s.867.5 1.367-.365c.5-.867-.367-1.367-.367-1.367l-3.971-2.293 4.663-1.249c0-.001.966-.26.707-1.226z"/><path fill="#88C9F9" d="M33.915 13.907l-4.664-1.25 3.972-2.293s.867-.501.367-1.367c-.501-.867-1.367-.366-1.367-.366l-3.971 2.292 1.249-4.663s.259-.966-.707-1.225c-.966-.259-1.225.707-1.225.707l-1.767 6.595-16.604 9.589-6.594-1.768s-.966-.259-1.225.707c-.26.967.707 1.225.707 1.225l4.663 1.249-3.971 2.293s-.865.501-.365 1.367c.5.865 1.365.365 1.365.365l3.972-2.293-1.25 4.663s-.259.967.707 1.225c.967.26 1.226-.706 1.226-.706l1.768-6.597 16.604-9.585 6.595 1.768s.966.259 1.225-.707c.255-.967-.71-1.225-.71-1.225z"/></svg>225-.622 11.431-2.406 12.941-2.859.237-.071.35-.166.383-.273-.109-.117-.211-.228-.286-.327-.193-.076-.391-.142-.595-.194-2.554-.654-8.436-2.495-10.931-3.386-1.977-.706-4.487-.591-6.594-.119-2.34.524-7.081 1.706-9.446 2.02-.71.094-1.296.289-1.788.559.138.139.32.268.57.362 1.209.452 7.323 1.886 9.739 2.868z"/><path opacity=".5" fill="#CFE1EA" d="M18.648 22.73c-.405-.036-.786.014-1.196.117l-.006.493c-.048 4.716.194 8.644.127 9.281-.046.438-.315.814-.717 1.072.821.1 1.641.088 2.424-.042-.451-.385-.71-.998-.771-1.608-.064-.655.176-4.556.139-9.313z"/><path fill="#9BC2D4" d="M17.573 32.621c.067-.637-.176-4.564-.127-9.281l.006-.493c-.465.117-.971.297-1.625.496-2.466.751-8.592 2.467-12.344 3.136-.719.128-1.156.404-1.36.736.548.754 1.279 1.308 2.152 1.657 2.079.832 6.772 2.495 9.743 3.98.9.45 1.868.721 2.838.84.403-.257.671-.633.717-1.071zm14.505-2.62c1.347-.331 2.046-.888 2.398-1.618-.402-.274-.843-.486-1.268-.583-2.037-.465-11.554-3.853-12.922-4.544-.658-.332-1.168-.485-1.638-.526.037 4.758-.203 8.658-.138 9.313.061.611.32 1.223.771 1.608.503-.083.991-.207 1.451-.382 2.019-.773 8.197-2.496 11.346-3.268z"/><path fill="#C1E1EA" d="M7.571 18.69c-3.911 3.322-5.322 9.72-5.206 6.824.096-2.391-.017-9.487-.006-12.439.009-2.491.416-4.634 3.725-3.095 2.538 1.18 7.2 2.114 9.384 3.59 1.411.954-2.464.505-7.897 5.12z"/><path fill="#D2ECF3" d="M30.169 15.439c2.65 1.793 3.569 5.587 3.497 3.781-.06-1.491.006-4.939 0-6.779-.006-1.553.19-2.874-1.997-2.245-1.88.54-5.124.847-6.486 1.767-.88.594 1.408 1.056 4.986 3.476z"/></svg>