<svg xmlns="http://www.w3.org/2000/svg" viewBox="0 0 36 36"><path fill="#231F20" d="M1.339 31.21c-.194.535 0 1.847.292 2.381.292.535 1.458.826 2.77.923s3.499 0 4.227-.097c.337-.045.926-.798 1.992-.875 1.118-.08 4.033.072 6.521.183 1.799.081 5.922.812 9.223.886 2.332.052 5.831-.437 7.629-1.069 1.798-.632 2.38-2.53 1.166-2.624-1.215-.094-33.82.292-33.82.292z"/><path fill="#3E721D" d="M.764 24.065c.384-1.355 1.484-1.762 2.551-1.206 1.067.557 9.369 4.035 13.868 5.009 4.499.974 7.004.649 8.117 0 1.113-.649 2.273-1.391 2.968-1.16.696.232 4.36 1.484 5.705 1.994 1.073.407 1.855 1.531 1.67 2.505-.185.974-1.206 1.531-3.34 1.948-2.866.561-7.176.746-10.853.232-4.313-.603-10.436-.557-13.636-.371-2.269.132-5.844.093-6.586-1.067C.486 30.79-.21 27.497.764 24.065z"/><path fill="#D99E82" d="M3.283 23.436c.893.592 9.956 4.148 13.298 5.128 2.397.703 5.896 1.14 8.21.603 1.757-.408 2.644-1.16 2.968-1.577.325-.417.359-.9-.506-.706-.107.024-.323.082-.462.149-.475.233-.987.542-1.491.836-1.113.649-3.618.974-8.117 0-4.499-.974-12.802-4.453-13.868-5.009-1.113-.372-.72.119-.032.576z"/></svg>9 5.554.551-.258 1.542-.81 2.706-1.858-.302-.84-.991-2.708-1.711-4.286-.965-2.117-2.328-4.76-2.328-4.76.595-.156 1.414-.501 1.414-.501s1.273 2.507 2.25 4.652c.986 2.163 1.884 4.756 1.922 4.865l.152.444-.339.325c-2.226 2.135-4.033 2.694-4.109 2.717l-.501.152z"/><path fill="#292F33" d="M9.221 22.139c.49-.062 1.438-.699 1.783-.639.345.061 2.654 2.527 3.711 3.707s2.882 3.207 5.445 4.985c2.563 1.779 6.403 3.327 8.809 4.237s4.949 1.417 5.469 1.442c.521.025.49-.148.585-.334.095-.186.46-1.245.46-1.245s-2.248-.299-4.851-1.298c-2.603-.999-5.418-1.675-9.244-4.33s-5.666-5.081-7.369-6.919c-1.703-1.837-5.275-5.359-7.848-7.145-1.985-1.377-3.018-2.55-3.478-3.043-.165-.176-.38-.062-.51.12L.434 13.984c-.153.221-.321.849.178 1.374.499.527 8.119 6.843 8.609 6.781zm11.598-7.493c-.326 0-.638-.186-.782-.501-.198-.431-.009-.942.422-1.14l2.385-1.096c.433-.198.943-.009 1.141.422.198.431.009.942-.422 1.14l-2.385 1.096c-.117.054-.239.079-.359.079zm1.474 2.902c-.322 0-.631-.182-.778-.492-.203-.429-.02-.942.409-1.145l2.371-1.122c.432-.203.942-.02 1.146.409.203.429.02.942-.409 1.145l-2.371 1.122c-.12.056-.245.083-.368.083zm1.397 3.039c-.317 0-.621-.176-.771-.479-.211-.426-.036-.941.389-1.152l2.225-1.101c.427-.212.94-.036 1.152.389.211.426.036.941-.389 1.152l-2.225 1.101c-.123.062-.253.09-.381.09z"/></svg>