<svg xmlns="http://www.w3.org/2000/svg" viewBox="0 0 36 36"><path fill="#FFCC4D" d="M35 17c0 9.389-7.611 17-17 17-9.388 0-17-7.611-17-17C1 7.612 8.612 0 18 0c9.389 0 17 7.612 17 17"/><ellipse fill="#664500" cx="18" cy="19.5" rx="7" ry="7.5"/><path fill="#F4900C" d="M22.468 27.371s.997-.721.165-1.614c-.832-.893-1.621.052-1.621.052l-4.148 3.866c-.069-.205-.459-.743-.55-.947l5.755-5.366s.998-.721.164-1.615c-.832-.892-1.622.051-1.622.051l-5.413 5.046c-.125-.158-.461-.54-.594-.698l6.276-5.85s.997-.722.164-1.614c-.832-.893-1.621.051-1.621.051l-6.278 5.848c-.15-.145-.612-.609-.764-.746l5.866-5.468s.996-.722.164-1.614c-.833-.893-1.621.051-1.621.051l-6.203 5.781-.497.464-.22.207s-.538.744-1.087.179l1.842-4.158s.58-1.074-.493-1.655c-1.075-.581-1.655.493-1.655.493l-1.668 2.758c-.663 1.093-1.349 2.178-2.159 3.167-2.284 2.793-2.211 6.914.318 9.629 2.759 2.959 7.396 3.122 10.355.364l.447-.418 6.698-6.244z"/><path fill="#664500" d="M11.016 6.08c-2.255.604-3.48 1.965-3.555 2.05-.364.415-.323 1.047.091 1.412.415.365 1.046.325 1.411-.091.079-.087 2.09-2.253 5.81-1.492.542.111 1.07-.239 1.18-.779.111-.541-.238-1.07-.779-1.18-1.635-.336-3.026-.223-4.158.08zm13.968.001c-1.132-.303-2.523-.416-4.159-.082-.541.111-.89.639-.779 1.18.112.541.639.89 1.18.779 3.724-.762 5.731 1.405 5.814 1.497.367.407 1 .444 1.41.078.41-.366.451-.991.088-1.404-.075-.084-1.3-1.444-3.554-2.048z"/></svg>-.033.018-.058.018-.092 0-.564-.41-.889-.917-.889h-2.682l3.203-4.487c.156-.212.212-.339.212-.606 0-.55-.479-.635-.663-.635h-4.004l-.024-.515s-1.055.622-1.125.665c-.07.043-.378.279-.378.739 0 .564.409.889.917.889H21.8l-3.19 4.487c-.07.113-.183.324-.183.55 0 .466.38.691.832.691h4.728c.193 0 .385-.057.51-.132l1.125-.665h-.736z"/><path fill="#2A6797" d="M22.896 1.903h-2.357c-.508 0-.917-.324-.917-.889 0-.564.409-.889.917-.889h4.615c.184 0 .663.085.663.635 0 .268-.057.395-.211.607l-3.203 4.487h2.682c.505 0 .915.324.915.889s-.41.889-.917.889h-4.728c-.452 0-.832-.226-.832-.691 0-.226.113-.437.183-.55l3.19-4.488z"/><path fill="#FFAC33" d="M17.741 10.425c.003-.028.015-.049.015-.079 0-.483-.351-.761-.785-.761h-2.295l2.742-3.84c.132-.181.181-.29.181-.519 0-.471-.41-.544-.567-.544h-3.427l-.021-.441-.963.569c-.06.037-.324.238-.324.633 0 .483.35.761.785.761h2.017l-2.73 3.84c-.06.097-.157.278-.157.471 0 .399.326.592.712.592h4.047c.165 0 .33-.049.436-.113l.963-.569h-.629z"/><path fill="#2A6797" d="M16.037 5.652H14.02c-.435 0-.785-.278-.785-.761s.35-.761.785-.761h3.95c.157 0 .567.073.567.544 0 .229-.048.338-.181.519l-2.742 3.84h2.295c.434 0 .785.278.785.761s-.351.761-.785.761h-4.047c-.386 0-.712-.193-.712-.592 0-.193.096-.374.157-.471l2.73-3.84z"/></svg>