<svg viewBox="0 0 36 36" fill="none" xmlns="http://www.w3.org/2000/svg">
<path d="M7.39899 17.278C5.52099 18.313 4.15899 19.733 4.06299 19.895C3.82399 20.299 3.62599 21.487 3.78699 22.31C3.93199 23.051 3.96399 24.548 4.44699 25.225C4.64499 25.502 4.55399 25.984 4.41499 26.433C3.99599 27.786 4.72099 29.632 4.26999 29.315C3.35199 28.671 3.19599 27.485 3.22299 26.787C3.23799 26.394 3.05699 25.903 2.96599 25.649C2.90699 25.489 1.72099 22.446 1.44799 21.109C1.29999 20.387 1.11499 19.807 1.72299 18.954C2.62599 17.688 3.81699 15.958 5.03399 15.069C7.04599 13.598 8.96999 13.382 8.96999 13.382C8.96999 13.382 8.05899 16.914 7.39899 17.278ZM30.399 10.652C30.315 10.661 30.256 10.754 30.196 10.89C30.173 10.726 30.122 10.614 30.012 10.626C29.883 10.639 29.811 10.846 29.708 11.118C29.681 11.071 29.646 11.039 29.591 11.04C29.33 11.049 29.242 11.851 28.682 12.374C28.601 12.41 28.528 12.452 28.434 12.478C28.375 12.494 28.336 12.519 28.288 12.539C28.293 12.284 28.459 12.134 28.559 12.065C28.798 11.899 28.648 11.479 28.245 11.734C27.956 11.917 27.835 12.099 27.744 12.284C27.489 12.803 27.39 13.342 27.411 13.771L27.292 13.986C27.153 14.228 25.666 15.156 24.596 15.953C23.53 16.746 22.75 17.647 22.181 17.085C21.785 16.694 20.59 15.379 18.859 14.252C17.766 13.54 16.126 13.386 16.126 13.386C15.319 14.048 16.292 16.495 17.02 16.952C17.958 17.541 21.28 19.877 22.326 20.343C23.372 20.809 24.03 20.182 24.522 19.734C24.925 19.368 27.956 15.662 28.225 15.408C28.59 15.064 29.288 14.611 29.682 13.917C30.02 13.321 30.225 12.838 30.349 12.062C30.42 11.606 30.751 10.615 30.399 10.652Z" fill="#AF7E57"/>
<path d="M16.125 13.384C16.125 13.384 13.865 13.247 12.361 13.247C10.857 13.247 9.40201 13.347 8.96901 13.384L7.00601 17.003L7.53201 17.286C7.53201 17.286 8.74101 21.64 8.74101 22.488C8.74101 23.336 7.53201 27.69 7.53201 27.69H17.206C17.206 27.69 15.997 23.615 15.997 22.488C15.997 21.361 17.206 17.286 17.206 17.286L17.701 17.02L16.125 13.384Z" fill="#AF7E57"/>
<path d="M8.96901 13.384L7.53201 17.286L8.51501 23.574L16.212 23.901L17.206 17.286L16.125 13.384C16.125 13.384 15.268 13.208 12.563 13.208C9.85801 13.208 8.96901 13.384 8.96901 13.384Z" fill="#FF5540"/>
<path d="M10.63 9.38699V13.101C10.63 14.127 11.461 16.711 12.487 16.711C13.513 16.711 14.344 14.127 14.344 13.101V9.38699H10.63Z" fill="#AF7E57"/>
<path d="M10.63 12.825C11.147 13.41 11.789 13.568 12.487 13.568C13.184 13.568 13.826 13.409 14.344 12.825V11.339H10.63V12.825Z" fill="#9B6A49"/>
<path d="M14.509 0.428998C13.466 0.0909982 11.011 0.182998 10.397 0.980998C8.801 1.012 6.93 2.454 6.684 4.357C6.441 6.24 6.982 7.114 7.175 8.53C7.393 10.134 8.295 10.647 9.016 10.862C10.053 12.233 11.156 12.174 13.008 12.174C16.624 12.174 18.346 9.755 18.498 5.645C18.591 3.16 17.132 1.278 14.509 0.428998Z" fill="#744EAA"/>
<path d="M16.577 5.821C16.227 5.337 15.779 4.946 14.797 4.808C15.165 4.977 15.518 5.56 15.564 5.882C15.61 6.204 15.656 6.465 15.365 6.143C14.197 4.852 12.925 5.36 11.665 4.572C10.785 4.021 10.517 3.412 10.517 3.412C10.517 3.412 10.41 4.225 9.075 5.054C8.688 5.294 8.226 5.829 7.97 6.619C7.785 7.187 7.842 7.693 7.842 8.558C7.842 11.084 9.923 13.207 12.491 13.207C15.059 13.207 17.14 11.065 17.14 8.558C17.141 6.987 16.976 6.374 16.577 5.821Z" fill="#AF7E57"/>
<path d="M14.558 11.141H10.426C10.426 11.141 10.943 12.174 12.492 12.174C14.041 12.174 14.558 11.141 14.558 11.141ZM13.008 9.85H11.975C11.832 9.85 11.717 9.734 11.717 9.592C11.717 9.45 11.833 9.334 11.975 9.334H13.008C13.151 9.334 13.266 9.45 13.266 9.592C13.266 9.734 13.151 9.85 13.008 9.85Z" fill="#915A34"/>
<path d="M10.425 8.042C10.14 8.042 9.90799 7.811 9.90799 7.525V7.009C9.90799 6.724 10.139 6.492 10.425 6.492C10.71 6.492 10.942 6.723 10.942 7.009V7.526C10.942 7.811 10.711 8.042 10.425 8.042ZM14.558 8.042C14.273 8.042 14.041 7.811 14.041 7.525V7.009C14.041 6.724 14.272 6.492 14.558 6.492C14.844 6.492 15.075 6.723 15.075 7.009V7.526C15.074 7.811 14.843 8.042 14.558 8.042Z" fill="#662113"/>
<g clip-path="url(#clip0)">
<path d="M30.9471 11.8311C31.2077 12.1724 31.1415 12.6654 30.7996 12.9258L27.3435 14.6911C27.0015 14.9515 26.5092 14.8854 26.2487 14.5442L24.827 12.6811C24.5664 12.3399 24.6326 11.8469 24.9745 11.5865L27.5881 8.71846C27.9301 8.45804 28.4223 8.52407 28.6829 8.8653L30.9471 11.8311Z" fill="#BB1A34"/>
<path d="M19.7759 22.1553C18.1694 22.4616 18.0006 19.83 18.0006 19.83C18.0006 19.83 18.7944 19.2221 18.3489 18.5268C19.2845 17.8132 18.8578 17.3353 18.8578 17.3353C17.6311 15.7293 15.3365 15.4215 13.7314 16.6476C13.5291 16.8021 13.3858 16.9459 13.2645 17.0854C13.2119 17.1418 13.1642 17.2004 13.1158 17.2588L13.103 17.277C12.8502 17.5937 12.6515 17.9412 12.5176 18.3122C12.3735 18.5283 12.1788 18.7531 11.8498 19.005C10.6871 19.8926 8.33055 18.0111 6.00453 19.7863C5.98068 19.8045 5.96519 19.8319 5.94439 19.855C5.86807 19.9067 5.7891 19.9507 5.71418 20.0086C2.98516 22.0921 2.66004 26.2546 4.98971 29.3052C7.20179 32.2035 11.0117 33.0496 13.7274 31.3407C13.7725 31.3239 13.8181 31.3079 13.8576 31.2777C13.9161 31.2324 13.9626 31.1885 14.018 31.1443C14.0611 31.1139 14.106 31.0874 14.1486 31.0562C15.5407 29.9927 16.2093 28.5798 16.226 27.0462C16.273 26.3218 16.2781 25.7498 16.7345 25.4014C17.3158 24.9575 18.7848 25.6764 19.9474 24.7887C21.6886 23.4562 20.7922 21.9625 19.7759 22.1553Z" fill="#BB1A34"/>
<path d="M14.9766 20.2945L27.5889 10.6662L28.9202 12.4109L16.3078 22.0399L14.9766 20.2945Z" fill="#292F33"/>
<path d="M10.3675 27.222C11.5352 28.3211 11.45 29.9304 11.2532 30.8472C11.1714 31.2259 11.5422 31.5487 11.901 31.4042C13.9008 30.5979 15.6059 29.1048 15.5923 26.1036C15.5833 25.5599 15.8786 24.5795 17.4734 24.5802C19.0683 24.5801 19.7125 24.0694 19.9436 23.8155C20.076 23.6702 20.2348 23.2405 19.8005 23.166C19.3669 23.0916 18.239 23.2857 17.4235 22.0088C16.608 20.7318 16.5099 20.2419 16.5011 20.0599C16.4923 19.8779 15.8388 17.2447 14.8517 18.4629C14.0318 19.4755 12.9937 21.5415 10.5045 21.7818C9.49145 21.8792 8.18181 22.212 7.73006 22.8562C6.97088 23.9382 7.79856 24.8766 8.53249 25.5345C9.26724 26.1917 10.3675 27.222 10.3675 27.222Z" fill="#F5F8FA"/>
<path d="M13.5394 20.4722L14.7021 19.5839L16.9219 22.4906L15.7593 23.3782L13.5394 20.4722ZM9.85996 23.2807L11.0233 22.3931L13.2424 25.2998L12.0798 26.1874L9.85996 23.2807Z" fill="#292F33"/>
<path d="M8.66803 25.5585L26.5907 11.9014L26.9233 12.3379L9.00137 25.9951L8.66803 25.5585ZM9.21364 26.2723L27.1362 12.6159L27.4688 13.0524L9.54678 26.7104L9.21364 26.2723Z" fill="#CCD6DD"/>
<path d="M10.3113 26.6174C10.5555 26.9372 10.4937 27.3983 10.1738 27.6425C9.85398 27.8867 9.39288 27.8249 9.14869 27.505L7.81651 25.7609C7.57232 25.4411 7.63417 24.98 7.95402 24.7358L7.95474 24.7359C8.2746 24.4917 8.73569 24.5536 8.97989 24.8734L10.3113 26.6174Z" fill="#292F33"/>
<path d="M12.4238 28.5473C12.8242 28.601 13.1923 28.32 13.246 27.9196C13.2997 27.5191 13.0187 27.151 12.6183 27.0973C12.2179 27.0436 11.8497 27.3247 11.796 27.7251C11.7423 28.1255 12.0234 28.4936 12.4238 28.5473Z" fill="#292F33"/>
<path d="M13.3222 29.6457C13.2854 29.9205 13.033 30.1132 12.7582 30.0763C12.4834 30.0395 12.2907 29.7871 12.3275 29.5123C12.3644 29.2375 12.6168 29.0448 12.8916 29.0817C13.1664 29.1185 13.3591 29.3709 13.3222 29.6457Z" fill="#292F33"/>
<path d="M28.2639 15.5208C28.5142 15.5544 28.7443 15.3787 28.7778 15.1285C28.8114 14.8782 28.6357 14.6481 28.3855 14.6146C28.1352 14.581 27.9052 14.7567 27.8716 15.0069C27.838 15.2572 28.0137 15.4872 28.2639 15.5208Z" fill="#66757F"/>
<path d="M29.2582 15.0305C29.5084 15.0641 29.7385 14.8885 29.7721 14.6382C29.8056 14.388 29.63 14.1579 29.3797 14.1243C29.1295 14.0907 28.8994 14.2664 28.8658 14.5166C28.8323 14.7669 29.0079 14.997 29.2582 15.0305Z" fill="#66757F"/>
<path d="M30.2531 14.5404C30.5034 14.5739 30.7334 14.3983 30.767 14.148C30.8006 13.8978 30.6249 13.6677 30.3747 13.6341C30.1244 13.6005 29.8943 13.7762 29.8608 14.0265C29.8272 14.2767 30.0028 14.5068 30.2531 14.5404Z" fill="#66757F"/>
<path d="M24.8847 10.9412C25.1349 10.9747 25.365 10.7991 25.3986 10.5488C25.4322 10.2986 25.2565 10.0685 25.0063 10.0349C24.756 10.0014 24.5259 10.177 24.4924 10.4273C24.4588 10.6775 24.6344 10.9076 24.8847 10.9412Z" fill="#66757F"/>
<path d="M25.6165 10.1242C25.8667 10.1577 26.0968 9.98207 26.1304 9.73182C26.1639 9.48156 25.9883 9.25148 25.738 9.21791C25.4878 9.18435 25.2577 9.36 25.2241 9.61026C25.1906 9.86051 25.3662 10.0906 25.6165 10.1242Z" fill="#66757F"/>
<path d="M26.3481 9.30787C26.5984 9.34144 26.8284 9.16578 26.862 8.91553C26.8956 8.66528 26.7199 8.4352 26.4697 8.40163C26.2194 8.36806 25.9893 8.54372 25.9558 8.79397C25.9222 9.04422 26.0979 9.27431 26.3481 9.30787Z" fill="#66757F"/>
</g>
<defs>
<clipPath id="clip0">
<rect x="5.95004" y="5.12743" width="26.3335" height="26.3335" transform="rotate(7.63979 5.95004 5.12743)" fill="white"/>
</clipPath>
</defs>
</svg>
