<svg viewBox="0 0 36 36" fill="none" xmlns="http://www.w3.org/2000/svg">
<g clip-path="url(#clip0)">
<path d="M19 0C17.279 0 15.657 0.406 14.207 1.111C13.814 1.043 13.412 1 13 1C9.134 1 6 4.134 6 8V20H6.018C6.201 26.467 11.489 31.656 18 31.656C24.511 31.656 29.799 26.467 29.982 20H30V11C30 4.925 25.075 0 19 0Z" fill="#963B22"/>
<path d="M27 27H9C6.791 27 5 28.791 5 31V36H31V31C31 28.791 29.209 27 27 27Z" fill="#9268CA"/>
<path d="M15 22V28C15 29.657 16.343 31 18 31C19.657 31 21 29.657 21 28V22H15Z" fill="#D5AB88"/>
<path d="M9 5V17C9 21.971 13.029 26 18 26C22.971 26 27 21.971 27 17V5H9Z" fill="#D5AB88"/>
<path d="M27.999 5L26 4H8V11C14 11 14 5 14 5C14 5 16 12 28 12L27.999 5Z" fill="#963B22"/>
<path d="M9 32H10V36H9V32ZM26 32H27V36H26V32Z" fill="#7450A8"/>
<path d="M18 24C18.5523 24 19 23.5523 19 23C19 22.4477 18.5523 22 18 22C17.4477 22 17 22.4477 17 23C17 23.5523 17.4477 24 18 24Z" fill="#DF1F32"/>
<path d="M14 16C13.448 16 13 15.552 13 15V14C13 13.448 13.448 13 14 13C14.552 13 15 13.448 15 14V15C15 15.552 14.552 16 14 16ZM22 16C21.447 16 21 15.552 21 15V14C21 13.448 21.447 13 22 13C22.553 13 23 13.448 23 14V15C23 15.552 22.553 16 22 16Z" fill="#662113"/>
<path d="M19 19.5H17C16.724 19.5 16.5 19.276 16.5 19C16.5 18.724 16.724 18.5 17 18.5H19C19.276 18.5 19.5 18.724 19.5 19C19.5 19.276 19.276 19.5 19 19.5Z" fill="#C1694F"/>
<path d="M16.5556 36.5C16.5556 37.2973 17.2027 37.9444 18 37.9444C18.7973 37.9444 19.4445 37.2973 19.4445 36.5V23.5C19.4445 22.7027 18.7973 22.0556 18 22.0556C17.2027 22.0556 16.5556 22.7027 16.5556 23.5V36.5Z" fill="#292F33"/>
<path d="M18 35.7778C18 36.5751 18.6471 37.2222 19.4444 37.2222H28.1111C28.9084 37.2222 29.5555 36.5751 29.5555 35.7778V22.7778C29.5555 21.9804 28.9084 21.3333 28.1111 21.3333H19.4444C18.6471 21.3333 18 21.9804 18 22.7778V35.7778Z" fill="#99AAB5"/>
<path d="M18 35.7778C18.7215 34.3348 20.6412 34.3333 20.8889 34.3333C22.3333 34.3333 24.5 35.7778 26.6667 35.7778C27.3889 35.7778 28.1111 35.1307 28.1111 34.3333V22.7778C28.1111 21.9804 27.3889 21.3333 26.6667 21.3333C24.3158 21.3333 22.3333 19.8889 20.8889 19.8889C18.7222 19.8889 18 21.2582 18 22.0556V35.7778Z" fill="#E1E8ED"/>
<path d="M6.44444 35.7778C6.44444 36.5751 7.09156 37.2222 7.88889 37.2222H16.5556C17.3529 37.2222 18 36.5751 18 35.7778V22.7778C18 21.9804 17.3529 21.3333 16.5556 21.3333H7.88889C7.09156 21.3333 6.44444 21.9804 6.44444 22.7778V35.7778Z" fill="#99AAB5"/>
<path d="M18 35.7778C17.2785 34.3348 15.3588 34.3333 15.1111 34.3333C13.6667 34.3333 11.5 35.7778 9.33333 35.7778C8.61111 35.7778 7.88889 35.1307 7.88889 34.3333V22.7778C7.88889 21.9804 8.61111 21.3333 9.33333 21.3333C11.6849 21.3333 13.6667 19.8889 15.1111 19.8889C17.2778 19.8889 18 21.2582 18 22.0556V35.7778Z" fill="#CCD6DD"/>
<path d="M7.88889 22H28.1111C29.7065 22 31 23.3432 31 25V36.25C31 37.9067 29.7065 39.25 28.1111 39.25H19.8662C19.4907 39.697 18.7995 40 18 40C17.2005 40 16.5086 39.697 16.1338 39.25H7.88889C6.2935 39.25 5 37.9067 5 36.25V25C5 23.3432 6.2935 22 7.88889 22Z" fill="#226699"/>
</g>
<defs>
<clipPath id="clip0">
<rect width="36" height="36" fill="white"/>
</clipPath>
</defs>
</svg>
