<svg viewBox="0 0 36 36" fill="none" xmlns="http://www.w3.org/2000/svg">
<path d="M17.3744 28.5333H3.15897C1.41443 28.5333 0 30.0192 0 31.8519V36H20.5333V31.8519C20.5333 30.0192 19.1189 28.5333 17.3744 28.5333Z" fill="#4289C1"/>
<path d="M16.9037 33.2H17.7333V36H16.9037V33.2ZM2.79999 33.2H3.62962V36H2.79999V33.2Z" fill="#2A6797"/>
<path d="M2.79999 12.6667V21.4154C2.79999 25.3469 6.14257 28.5333 10.2667 28.5333C14.3907 28.5333 17.7333 25.3469 17.7333 21.4154V12.9134L2.79999 12.6667Z" fill="#D5AB88"/>
<path d="M10.2667 26.6667C10.7821 26.6667 11.2 26.2488 11.2 25.7333C11.2 25.2179 10.7821 24.8 10.2667 24.8C9.75121 24.8 9.33334 25.2179 9.33334 25.7333C9.33334 26.2488 9.75121 26.6667 10.2667 26.6667Z" fill="#C1694F"/>
<path d="M7.27999 20.1333C6.86783 20.1333 6.53333 19.8546 6.53333 19.5111V18.8889C6.53333 18.5454 6.86783 18.2667 7.27999 18.2667C7.69215 18.2667 8.02666 18.5454 8.02666 18.8889V19.5111C8.02666 19.8546 7.69215 20.1333 7.27999 20.1333ZM13.2533 20.1333C12.8412 20.1333 12.5067 19.8546 12.5067 19.5111V18.8889C12.5067 18.5454 12.8412 18.2667 13.2533 18.2667C13.6655 18.2667 14 18.5454 14 18.8889V19.5111C14 19.8546 13.6655 20.1333 13.2533 20.1333Z" fill="#662113"/>
<path d="M10.8889 22.9333H9.64445C9.47272 22.9333 9.33334 22.7243 9.33334 22.4667C9.33334 22.2091 9.47272 22 9.64445 22H10.8889C11.0606 22 11.2 22.2091 11.2 22.4667C11.2 22.7243 11.0606 22.9333 10.8889 22.9333Z" fill="#C1694F"/>
<path d="M4.66641 18.7333C4.66641 20.0219 4.04007 21.0667 3.26654 21.0667C2.49301 21.0667 1.86667 20.0219 1.86667 18.7333C1.86667 17.4447 2.49379 16.4 3.26654 16.4C4.03928 16.4 4.66641 17.4447 4.66641 18.7333ZM18.6667 18.7333C18.6667 20.0219 18.0403 21.0667 17.2668 21.0667C16.4933 21.0667 15.8669 20.0219 15.8669 18.7333C15.8669 17.4447 16.4933 16.4 17.2668 16.4C18.0403 16.4 18.6667 17.4447 18.6667 18.7333Z" fill="#D5AB88"/>
<path d="M10.2667 8C4.45154 8 1.86667 11.6736 1.86667 14.7354C1.86667 17.7964 2.97932 18.6458 3.1591 17.7964C3.80532 14.7354 5.74397 13.7958 5.74397 13.7958C9.62128 16.8576 8.97506 14.4083 8.97506 14.4083C12.8515 18.0819 10.9137 14.4083 10.9137 14.4083C12.2062 15.6334 16.0826 15.6334 16.0826 15.6334C16.0826 15.6334 16.7288 16.5729 17.3742 17.7972C18.0205 19.0222 18.6667 17.7972 18.6667 14.7362C18.6667 11.6736 15.4356 8 10.2667 8Z" fill="#963B22"/>
<path d="M7.46667 26.6667V29.8667C7.46667 31.1923 8.72014 32.2667 10.2667 32.2667C11.8132 32.2667 13.0667 31.1923 13.0667 29.8667V26.6667H7.46667Z" fill="#D5AB88"/>
<path d="M28.0588 6C23.6731 6 20.1176 8.76529 20.1176 12.1765C20.1176 14.1035 21.2532 15.8241 23.0312 16.9566C22.8 17.9753 22.2613 19.4863 21 21C23.5403 20.5765 25.1647 19.3407 26.1688 18.1694C26.7759 18.285 27.4063 18.3529 28.0588 18.3529C32.4446 18.3529 36 15.5876 36 12.1765C36 8.76529 32.4446 6 28.0588 6Z" fill="#8CCAF7"/>
<g clip-path="url(#clip0)">
<path d="M29.9117 11.3529C29.3787 11.3529 29.0872 10.8281 28.8053 10.3206C28.5811 9.91712 28.3493 9.5 28.0588 9.5C27.7681 9.5 27.5365 9.91712 27.3123 10.3206C27.0302 10.8281 26.7387 11.3529 26.2058 11.3529C25.6603 11.3529 25.4126 10.7958 25.1941 10.3042C24.9784 9.8183 24.8174 9.5 24.5588 9.5C24.4451 9.5 24.3529 9.40777 24.3529 9.29412C24.3529 9.18047 24.4451 9.08824 24.5588 9.08824C25.1044 9.08824 25.3521 9.64535 25.5705 10.137C25.7863 10.6227 25.9473 10.9412 26.2058 10.9412C26.4966 10.9412 26.7282 10.5241 26.9524 10.1205C27.2344 9.61303 27.526 9.08824 28.0588 9.08824C28.5918 9.08824 28.8833 9.61303 29.1652 10.1205C29.3894 10.5241 29.6212 10.9412 29.9117 10.9412C30.1703 10.9412 30.3311 10.6227 30.5471 10.137C30.7655 9.64535 31.0134 9.08824 31.5588 9.08824C31.6726 9.08824 31.7647 9.18047 31.7647 9.29412C31.7647 9.40777 31.6726 9.5 31.5588 9.5C31.3002 9.5 31.1394 9.8183 30.9234 10.3042C30.705 10.7958 30.4571 11.3529 29.9117 11.3529Z" fill="#292F33"/>
</g>
<g clip-path="url(#clip1)">
<path d="M29.9117 15.5882C29.3787 15.5882 29.0872 15.0634 28.8053 14.5559C28.5811 14.1524 28.3493 13.7353 28.0588 13.7353C27.7681 13.7353 27.5365 14.1524 27.3123 14.5559C27.0302 15.0634 26.7387 15.5882 26.2058 15.5882C25.6603 15.5882 25.4126 15.0311 25.1941 14.5395C24.9784 14.0536 24.8174 13.7353 24.5588 13.7353C24.4451 13.7353 24.3529 13.6431 24.3529 13.5294C24.3529 13.4158 24.4451 13.3235 24.5588 13.3235C25.1044 13.3235 25.3521 13.8806 25.5705 14.3723C25.7863 14.858 25.9473 15.1765 26.2058 15.1765C26.4966 15.1765 26.7282 14.7594 26.9524 14.3558C27.2344 13.8483 27.526 13.3235 28.0588 13.3235C28.5918 13.3235 28.8833 13.8483 29.1652 14.3558C29.3894 14.7594 29.6212 15.1765 29.9117 15.1765C30.1703 15.1765 30.3311 14.858 30.5471 14.3723C30.7655 13.8806 31.0134 13.3235 31.5588 13.3235C31.6726 13.3235 31.7647 13.4158 31.7647 13.5294C31.7647 13.6431 31.6726 13.7353 31.5588 13.7353C31.3002 13.7353 31.1394 14.0536 30.9234 14.5395C30.705 15.0311 30.4571 15.5882 29.9117 15.5882Z" fill="#292F33"/>
</g>
<defs>
<clipPath id="clip0">
<rect x="24.3529" y="6.61765" width="7.41177" height="7.41177" fill="white"/>
</clipPath>
<clipPath id="clip1">
<rect x="24.3529" y="10.8529" width="7.41177" height="7.41177" fill="white"/>
</clipPath>
</defs>
</svg>
