<svg viewBox="0 0 36 36" fill="none" xmlns="http://www.w3.org/2000/svg">
<path d="M35 36V30.96C35 28.5732 32.4488 27 30.1538 27H21.8462C19.5525 27 17 28.5732 17 30.96V36H35Z" fill="#9266CC"/>
<path d="M26.0028 12C29.0021 12 34 13.4064 34 19.5C34 25.5936 34 27 32.5003 27C31 27 29.0014 25.5936 26.0021 25.5936C23.0035 25.5936 21.0466 27 19.5046 27C17.834 27 18.0049 21.375 18.0049 19.5C18.0064 13.4064 23.0043 12 26.0028 12Z" fill="#60352A"/>
<path d="M23 27.4725C23 28.6143 24.4812 29 25.5041 29C26.527 29 28 28.6143 28 27.4725V25H23V27.4725Z" fill="#AF7E57"/>
<path d="M23 26C23.697 26.7868 24.5608 27 25.4997 27C26.4392 27 27.303 26.7875 28 26V24H23V26Z" fill="#9B6A49"/>
<path d="M20 19.5996C20 15.4023 22.6863 12 25.9996 12C29.313 12 32 15.4023 32 19.5996C32 23.7962 29.313 27 25.9996 27C22.6863 27 20 23.797 20 19.5996Z" fill="#AF7E57"/>
<path d="M26.0009 25C24.8276 25 24.2127 24.2263 24.1469 24.1376C23.951 23.8774 23.951 23.4555 24.1469 23.1953C24.3414 22.937 24.6528 22.9351 24.8488 23.1885C24.8743 23.2196 25.253 23.6669 26.0009 23.6669C26.7605 23.6669 27.1392 23.206 27.1538 23.1875C27.3534 22.938 27.6677 22.9458 27.8578 23.207C28.0479 23.4691 28.0479 23.8803 27.8549 24.1376C27.7898 24.2263 27.1757 25 26.0009 25Z" fill="#DF1F32"/>
<path d="M18.5362 22C18.5208 21.2861 18.504 21.8401 18.504 21.6681C18.504 19.2252 20.0038 22.0207 20.0038 20.281C20.0038 18.5399 21.0031 18.3657 22.0025 17.3891C22.5029 16.9001 23.5023 15.9428 23.5023 15.9428C23.5023 15.9428 26.0014 17.4184 28.0009 17.4184C29.9996 17.4184 31.9998 18.4 31.9998 20.3538C31.9998 22.3077 33.4996 19.2231 33.4996 21.6652C33.4996 21.8394 33.4835 21.2861 33.4704 22H33.9949C34 20.5723 34 20.6265 34 19.7142C34 13.3643 29.001 11 26.0022 11C23.0033 11 18.0051 13.3251 18.0051 19.6749C18.0051 20.241 17.9904 20.5723 18.0109 22H18.5362Z" fill="#60352A"/>
<path d="M23.6002 21C23.2703 21 23 20.6996 23 20.3331V19.6669C23 19.3004 23.2703 19 23.6002 19C23.9301 19 24.2011 19.3004 24.2011 19.6669V20.3331C24.2011 20.6996 23.9301 21 23.6002 21ZM28.3998 21C28.0699 21 27.7996 20.6996 27.7996 20.3331V19.6669C27.7996 19.3004 28.0699 19 28.3998 19C28.7297 19 29 19.3004 29 19.6669V20.3331C29 20.6996 28.7297 21 28.3998 21Z" fill="#60352A"/>
<path d="M26.6665 23H25.3335C25.1498 23 25 22.81 25 22.577V22.424C25 22.191 25.149 22 25.3335 22H26.6665C26.8494 22 27 22.19 27 22.424V22.577C27 22.81 26.8494 23 26.6665 23Z" fill="#915A34"/>
<path d="M21.3335 20.0004C21.3335 21.1047 20.811 22 20.1667 22C19.5225 22 19 21.1047 19 20.0004C19 18.8961 19.5225 18 20.1667 18C20.811 17.9992 21.3335 18.8953 21.3335 20.0004ZM33 20.0004C33 21.1047 32.4782 22 31.8333 22C31.189 22 30.6665 21.1047 30.6665 20.0004C30.6665 18.8961 31.1883 18 31.8333 18C32.4782 17.9992 33 18.8953 33 20.0004Z" fill="#AF7E57"/>
<path d="M34 35.5C34 35.7765 33.6648 36 33.25 36H25.75C25.3353 36 25 35.7765 25 35.5C25 35.2235 25.3353 35 25.75 35H33.25C33.6648 35 34 35.2235 34 35.5Z" fill="#E1E8ED"/>
<path d="M24.3186 26H12.9053C11.8499 26 10.4967 26.5507 11.1893 28.5221L13.3167 34.5757C13.3174 34.5757 13.5916 36 15.1497 36H29L26.2299 27.9714C25.9266 27.0271 25.3747 26 24.3186 26Z" fill="#E1E8ED"/>
<path d="M24.3186 26H12.9053C11.8499 26 10.4967 26.5507 11.1893 28.5221L13.3167 34.5757C13.3174 34.5757 13.5916 36 15.1497 36H29L26.2299 27.9714C25.9266 27.0271 25.3747 26 24.3186 26Z" fill="#99AAB5"/>
<path d="M20.0702 31.4072C20.4295 32.5556 20.1387 33.6937 19.4194 33.9486C18.7015 34.2043 17.8272 33.4804 17.4679 32.332C17.1086 31.1836 17.4 30.0455 18.1186 29.7906C18.8373 29.5356 19.7115 30.2588 20.0702 31.4072ZM23.4857 28.0958H12.5143C12.2304 28.0958 12 27.8503 12 27.5479C12 27.2455 12.2304 27 12.5143 27H23.4857C23.7696 27 24 27.2455 24 27.5479C24 27.8503 23.7696 28.0958 23.4857 28.0958Z" fill="#E1E8ED"/>
<path d="M4.23528 29.084C4.23528 29.7523 4.02053 30.2941 3.4208 30.2941H1.52035C0.434378 30.2941 0.434378 26.0588 1.52035 26.0588H3.4208C4.02053 26.0588 4.23528 26.6006 4.23528 27.2689V29.084Z" fill="#553788"/>
<path d="M10.9664 29.6891H10.6387V26.6639H10.9664C11.1476 26.6639 11.2941 26.5286 11.2941 26.3613C11.2941 26.194 11.1476 26.0588 10.9664 26.0588H3.10084C1.78991 26.0588 1.78991 30.2941 3.10084 30.2941H10.9664C11.1476 30.2941 11.2941 30.1589 11.2941 29.9916C11.2941 29.8243 11.1476 29.6891 10.9664 29.6891Z" fill="#9266CC"/>
<path d="M11.0191 29.5882H3.32179C2.65743 29.5882 2.65743 26.0588 3.32179 26.0588H11.0191C11.3858 26.0588 11.3858 29.5882 11.0191 29.5882Z" fill="#CCD6DD"/>
<path d="M3.49157 26.6734H11.2941C11.249 26.3124 11.1738 26.0588 11.0675 26.0588H3.32449C2.7728 26.0588 2.6769 28.151 3.03612 28.8824C2.90513 27.973 3.05684 26.6734 3.49157 26.6734Z" fill="#99AAB5"/>
<path d="M3.52941 21.246C3.52941 21.9548 2.95476 22.5294 2.24599 22.5294H0.962567C-0.320856 22.5294 -0.320856 19 0.962567 19H2.24599C2.95476 19 3.52941 19.5747 3.52941 20.2834V21.246Z" fill="#226699"/>
<path d="M10.2605 21.8877H9.93278V19.6417H10.2605C10.4417 19.6417 10.5882 19.4983 10.5882 19.3209C10.5882 19.1434 10.4417 19 10.2605 19H2.39497C1.08404 19 1.08404 22.5294 2.39497 22.5294H10.2605C10.4417 22.5294 10.5882 22.386 10.5882 22.2086C10.5882 22.0311 10.4417 21.8877 10.2605 21.8877Z" fill="#55ACEE"/>
<path d="M10.2903 21.8235H1.95157C1.23184 21.8235 1.23184 19.7059 1.95157 19.7059H10.2903C10.6876 19.7059 10.6876 21.8235 10.2903 21.8235Z" fill="#CCD6DD"/>
<path d="M1.95131 20.3333H10.5882C10.5471 19.9804 10.4568 19.7059 10.3164 19.7059H1.95131C1.52064 19.7059 1.3488 20.4867 1.43219 21.1177C1.48851 20.6916 1.65998 20.3333 1.95131 20.3333Z" fill="#99AAB5"/>
<path d="M6.35293 24.4902C6.35293 25.3565 5.758 26.0588 5.02421 26.0588H1.70241C0.373692 26.0588 0.373692 22.5294 1.70241 22.5294H5.02421C5.758 22.5294 6.35293 23.2318 6.35293 24.098V24.4902Z" fill="#F4900C"/>
<path d="M11.6471 25.2745H11.2941V23.3137H11.6471C11.8422 23.3137 12 23.1384 12 22.9216C12 22.7047 11.8422 22.5294 11.6471 22.5294H4.58824C3.17648 22.5294 3.17648 26.0588 4.58824 26.0588H11.6471C11.8422 26.0588 12 25.8835 12 25.6667C12 25.4498 11.8422 25.2745 11.6471 25.2745Z" fill="#FFAC33"/>
<path d="M11.701 25.3529H4.77701C4.05472 25.3529 4.05472 23.2353 4.77701 23.2353H11.701C12.0997 23.2353 12.0997 25.3529 11.701 25.3529Z" fill="#CCD6DD"/>
<path d="M4.77624 24.042H12C11.9765 23.6136 11.8793 23.2353 11.7065 23.2353H4.77624C4.31572 23.2353 4.1498 24.0529 4.27632 24.6471C4.34789 24.3086 4.51381 24.042 4.77624 24.042Z" fill="#99AAB5"/>
<g clip-path="url(#clip0)">
<path d="M19 15.1667C19 15.6267 18.6267 16 18.1667 16H4.83333C4.37333 16 4 15.6267 4 15.1667V7.25001C4 6.79001 4.37333 6.41667 4.83333 6.41667H18.1667C18.6267 6.41667 19 6.79001 19 7.25001V15.1667Z" fill="#FFCC4D"/>
<path d="M18.1667 6.41667H4.83333C4.37333 6.41667 4 6.79001 4 7.25001H19C19 6.79001 18.6267 6.41667 18.1667 6.41667Z" fill="#6D6E71"/>
<path d="M4.83334 11H18.1667V12.6667H4.83334V11ZM4.83334 8.5H18.1667V10.1667H4.83334V8.5ZM4.83334 13.5H18.1667V15.1667H4.83334V13.5Z" fill="#3B88C3"/>
<path d="M15.6667 8.08333H16.5V15.5833H15.6667V8.08333Z" fill="#FFCC4D"/>
<path d="M13.1667 1H6.49999C6.03999 1 5.66666 1.37333 5.66666 1.83333V16H14V1.83333C14 1.37333 13.6267 1 13.1667 1Z" fill="#FFE8B6"/>
<path d="M13.1667 1H6.49999C6.03999 1 5.66666 1.37333 5.66666 1.83333H14C14 1.37333 13.6267 1 13.1667 1Z" fill="#808285"/>
<path d="M6.5 8.5H13.1667V10.1667H6.5V8.5ZM6.5 11H13.1667V12.6667H6.5V11ZM6.5 13.5H13.1667V15.1667H6.5V13.5Z" fill="#55ACEE"/>
<path d="M8.16666 3.91667H8.99999V16H8.16666V3.91667ZM10.6667 3.91667H11.5V16H10.6667V3.91667Z" fill="#FFE8B6"/>
<path d="M9 13.5H10.6667V16H9V13.5Z" fill="#226699"/>
<path d="M9.83334 7.25C11.2141 7.25 12.3333 6.13071 12.3333 4.75C12.3333 3.36929 11.2141 2.25 9.83334 2.25C8.45263 2.25 7.33334 3.36929 7.33334 4.75C7.33334 6.13071 8.45263 7.25 9.83334 7.25Z" fill="#A7A9AC"/>
<path d="M9.83332 6.41666C10.7538 6.41666 11.5 5.67047 11.5 4.74999C11.5 3.82952 10.7538 3.08333 9.83332 3.08333C8.91285 3.08333 8.16666 3.82952 8.16666 4.74999C8.16666 5.67047 8.91285 6.41666 9.83332 6.41666Z" fill="#E6E7E8"/>
<path d="M11.0833 5.16667H9.83332C9.60332 5.16667 9.41666 4.98 9.41666 4.75V2.66667C9.41666 2.43667 9.60332 2.25 9.83332 2.25C10.0633 2.25 10.25 2.43667 10.25 2.66667V4.33333H11.0833C11.3133 4.33333 11.5 4.52 11.5 4.75C11.5 4.98 11.3133 5.16667 11.0833 5.16667Z" fill="#A0041E"/>
</g>
<defs>
<clipPath id="clip0">
<rect x="4" y="1" width="15" height="15" fill="white"/>
</clipPath>
</defs>
</svg>
