<svg viewBox="0 0 36 36" fill="none" xmlns="http://www.w3.org/2000/svg">
<path d="M31 29.5C31 30.328 30.328 31 29.5 31C28.672 31 28 30.328 28 29.5V5.5C28 4.671 28.672 4 29.5 4C30.328 4 31 4.671 31 5.5V29.5Z" fill="#CCD6DD"/>
<path d="M34.882 32C34.919 31.836 34.944 31.67 34.944 31.5C34.944 29.567 32.481 28 29.444 28C26.407 28 23.944 29.567 23.944 31.5C23.944 31.67 23.969 31.836 24.006 32H34.882Z" fill="#CCD6DD"/>
<path d="M35.944 9C36.278 10.125 35.048 11 33.944 11H24.944C23.84 11 22.653 10 22.944 9L24.944 2C25.194 0.916 25.84 0 26.944 0H31.944C33.049 0 33.694 1.125 33.944 2L35.944 9Z" fill="#FCAB40"/>
<path d="M29.006 29.101C29.006 30.316 27.989 31.3 26.735 31.3H6.29599C5.04199 31.3 4.02499 30.316 4.02499 29.101V19.201C4.02499 17.986 5.04199 17.001 6.29599 17.001H26.735C27.989 17.001 29.006 17.986 29.006 19.201V29.101Z" fill="#5D9040"/>
<path d="M27.5 31.3C27.5 32.515 26.515 33.5 25.3 33.5H6.59999C5.38499 33.5 4.39999 32.515 4.39999 31.3V30.2C4.39999 28.985 5.38499 28 6.59999 28H25.3C26.515 28 27.5 28.985 27.5 30.2V31.3Z" fill="#3F7123"/>
<path d="M16.516 25.25C23.4107 25.25 29 22.5077 29 19.125C29 15.7423 23.4107 13 16.516 13C9.62129 13 4.03201 15.7423 4.03201 19.125C4.03201 22.5077 9.62129 25.25 16.516 25.25Z" fill="#5D9040"/>
<path d="M6.6 23.601C6.6 25.423 5.122 26.901 3.3 26.901C1.478 26.901 0 25.423 0 23.601C0 21.777 1.478 20.3 3.3 20.3C5.123 20.3 6.6 21.777 6.6 23.601Z" fill="#78B159"/>
<path d="M6.60001 33.5C6.60001 34.715 5.61501 35.7 4.40001 35.7C3.18501 35.7 2.20001 34.715 2.20001 33.5V23.601C2.20001 22.386 3.18501 21.401 4.40001 21.401C5.61501 21.401 6.60001 22.386 6.60001 23.601V33.5ZM26.4 23.601C26.4 25.423 27.877 26.901 29.7 26.901C31.521 26.901 33 25.423 33 23.601C33 21.778 31.521 20.3 29.7 20.3C27.878 20.3 26.4 21.777 26.4 23.601Z" fill="#78B159"/>
<path d="M26.4 33.5C26.4 34.715 27.384 35.7 28.599 35.7C29.814 35.7 30.799 34.715 30.799 33.5V23.601C30.799 22.386 29.814 21.401 28.599 21.401C27.384 21.401 26.4 22.386 26.4 23.601V33.5ZM16.5 28C16.5 29.215 15.515 30.2 14.3 30.2H8.80001C7.58501 30.2 6.60001 29.215 6.60001 28C6.60001 26.785 7.58501 25.8 8.80001 25.8H14.3C15.515 25.8 16.5 26.785 16.5 28ZM26.4 28C26.4 29.215 25.415 30.2 24.2 30.2H18.7C17.485 30.2 16.5 29.215 16.5 28C16.5 26.785 17.485 25.8 18.7 25.8H24.2C25.415 25.8 26.4 26.785 26.4 28Z" fill="#78B159"/>
<path d="M6 28H27V31H6V28Z" fill="#78B159"/>
<path d="M26.702 24.8284C26.5982 23.9966 25.7873 23.702 25.3854 23.702C24.8698 23.702 23.6401 24.3472 23.4167 23.3607L23.3951 23.254L17.6143 23.247L17.5833 23.3543C17.3646 24.3507 16.1297 23.702 15.6128 23.702C15.2109 23.702 14.4001 23.9966 14.2963 24.8284C14.2963 24.8284 18.2425 26.25 20.5 26.25C22.7593 26.25 26.702 24.8284 26.702 24.8284Z" fill="#4289C1"/>
<path d="M17.0963 16.9248C16.7778 16.8717 16.4779 17.087 16.4248 17.4043L15.9436 20.2901C15.9022 20.3152 15.8608 20.3408 15.817 20.3688C14.7892 21.0286 14.8481 22.4274 14.1055 23.0615C14.0058 23.1467 13.5519 23.5083 13.4038 23.8344C13.2078 24.2649 13.5321 24.0934 13.43 24.2398C13.1932 24.5805 13.1885 25.102 13.3559 25.2233L13.5735 25.2817C13.8984 25.5167 14.7874 24.5023 14.9041 23.9388C15.0791 23.0971 16.6978 22.043 16.9977 21.2246C17.0922 20.9656 17.1283 20.7655 17.0986 20.5981L17.7438 17.5968C17.7968 17.2783 17.4136 16.9773 17.0963 16.9248ZM27.5508 24.2737C27.4487 24.1272 27.8057 24.2643 27.6097 23.8338C27.4609 23.5072 26.9744 23.1461 26.8753 23.0609C26.1327 22.4268 26.2243 21.028 25.1964 20.3682C25.148 20.3367 25.1008 20.3076 25.0547 20.2802L24.5752 17.4043C24.5227 17.087 24.2211 16.8723 23.9043 16.9248C23.5864 16.9779 23.1839 17.2783 23.2364 17.5962L23.9078 20.6424C23.8915 20.8011 23.9288 20.9877 24.0152 21.2246C24.3144 22.0424 25.9338 23.0965 26.1088 23.9388C26.226 24.5029 27.115 25.5173 27.4393 25.2817L27.6569 25.2233C27.8255 25.1008 27.7882 24.6143 27.5508 24.2737Z" fill="#7C533E"/>
<path d="M23.2749 27.895C22.6683 27.9469 22.0966 27.7737 21.5249 27.895C21.2478 27.9125 21.0571 27.895 20.78 27.6523C20.5029 27.4097 15.9459 26.7686 15.1141 26.2144C14.7303 25.9583 14.1446 25.3161 14.2998 24.7765C14.4532 24.2439 14.9642 23.9429 15.5819 23.9277C16.7865 23.898 19.0819 25.6433 20.745 26.2844C21.0472 26.4011 21.298 26.2541 21.6807 26.3538C22.0791 26.4577 23.0323 26.0301 23.5176 26.0937C24.1762 26.1806 24.4358 26.4921 24.3838 27.0293C24.329 27.5975 23.8816 27.8431 23.2749 27.895Z" fill="#7C533E"/>
<path d="M23.2749 27.895C22.6683 27.9469 22.0966 27.7737 21.5249 27.895C21.2478 27.9125 21.0571 27.895 20.78 27.6523C20.5029 27.4097 21.2986 26.2529 21.6813 26.3527C22.0797 26.4565 23.0328 26.0289 23.5182 26.0925C24.1768 26.1794 24.4363 26.4909 24.3844 27.0282C24.329 27.5975 23.8816 27.8431 23.2749 27.895ZM16.531 26.3702C16.6698 26.0062 17.224 25.8504 17.4842 25.816C17.7443 25.7816 18.1772 25.9373 18.4718 26.0587C18.7663 26.18 19.1239 26.1952 19.3491 26.1082C19.5743 26.0213 19.7388 26.0359 19.9079 26.1082C19.9534 26.1275 20.1547 26.1082 20.2264 26.0692C20.2264 26.0692 21.2706 26.4285 20.8891 26.5498C20.5082 26.6712 17.7268 26.8555 17.3459 26.8555C16.965 26.8555 16.531 26.3702 16.531 26.3702Z" fill="#664131"/>
<path d="M14.2998 24.7765C14.3033 24.7648 14.3091 24.7549 14.3126 24.7438C14.4298 25.1883 14.7559 25.7122 15.1298 25.851C15.5977 26.0243 19.3573 27.1332 19.8251 27.1851C20.2929 27.237 20.9859 27.3064 21.1248 27.4103C21.2636 27.5141 21.627 27.5491 21.9216 27.4797C22.2162 27.4103 22.9611 27.6873 23.3426 27.601C23.7235 27.5147 24.2783 27.3414 24.3821 26.8736C24.3838 26.8648 24.3862 26.8608 24.3885 26.8538C24.3908 26.9098 24.3903 26.9675 24.3844 27.0299C24.3296 27.5987 23.8822 27.8443 23.2755 27.8962C22.6688 27.9481 22.0972 27.7748 21.5255 27.8962C21.2484 27.9137 21.0577 27.8962 20.7806 27.6535C20.5035 27.4108 15.9465 26.7698 15.1147 26.2156C14.7303 25.9583 14.1446 25.3155 14.2998 24.7765Z" fill="#664131"/>
<path d="M17.7251 27.895C18.3317 27.9469 18.9034 27.7737 19.4751 27.895C19.7521 27.9125 19.9429 27.895 20.22 27.6523C20.4971 27.4097 25.0541 26.7686 25.8859 26.2144C26.2697 25.9583 26.8554 25.3161 26.7002 24.7765C26.5468 24.2439 26.0358 23.9429 25.4181 23.9277C24.2135 23.898 21.9181 25.6433 20.255 26.2844C19.9528 26.4011 19.702 26.2541 19.3193 26.3538C18.9209 26.4577 17.9677 26.0301 17.4824 26.0937C16.8238 26.1806 16.5642 26.4921 16.6162 27.0293C16.671 27.5975 17.1184 27.8431 17.7251 27.895Z" fill="#7C533E"/>
<path d="M21.0833 7C20.346 7 19.6629 7.22925 19.0988 7.61892C18.9845 7.60142 18.8696 7.58333 18.75 7.58333C17.4614 7.58333 16.4167 8.62808 16.4167 9.91667V12.25C16.4167 14.5052 18.2448 16.3333 20.5 16.3333C22.7552 16.3333 24.5833 14.5052 24.5833 12.25V10.5006C24.5833 8.56742 23.0165 7 21.0833 7Z" fill="#0B0200"/>
<path d="M23.1501 15.75H17.8482C16.3537 15.75 16.1495 18.0833 16.1495 18.0833L17.5833 18.452C17.5833 18.452 17.8482 19.838 17.8482 20.9819C17.8482 22.1258 17.5833 23.3333 17.5833 23.3333C17.5833 23.3333 18.7681 23.5287 20.5 23.5287C22.2319 23.5287 23.4167 23.3333 23.4167 23.3333C23.4167 23.3333 23.1326 22.1252 23.1326 20.9644C23.1326 19.8036 23.4167 18.452 23.4167 18.452L24.8505 18.0833C24.8505 18.0833 24.6446 15.75 23.1501 15.75Z" fill="#9268CA"/>
<path d="M19.3333 13.4167V15.75C19.3333 16.394 19.856 16.9167 20.5 16.9167C21.144 16.9167 21.6667 16.394 21.6667 15.75V13.4167H19.3333Z" fill="#7C533E"/>
<path d="M21.6667 13.4167L19.3333 13.4277V15.75C19.3333 15.75 20.5 16.3333 21.6667 15.75V13.4167Z" fill="#664131"/>
<path d="M19.3333 8.75C19.3333 8.75 19.3269 10.6663 17.5833 11.0215V12.25C17.5833 13.8612 18.8888 15.1667 20.5 15.1667C22.1112 15.1667 23.4167 13.8618 23.4167 12.25V11.0647C19.3444 10.8757 19.3333 8.75 19.3333 8.75Z" fill="#7C533E"/>
<path d="M21.6667 14H19.3333C19.3333 14 19.3333 14.5833 20.5 14.5833C21.6667 14.5833 21.6667 14 21.6667 14Z" fill="#DF1F32"/>
<path d="M19.9167 12.8333H21.0834C21.0834 12.8333 21.0834 13.4167 20.5 13.4167C19.9167 13.4167 19.9167 12.8333 19.9167 12.8333Z" fill="#3D2E24"/>
<path d="M19.3 12C19.1344 12 19 11.8507 19 11.6667V11.3333C19 11.1493 19.1344 11 19.3 11C19.4656 11 19.6 11.1493 19.6 11.3333V11.6667C19.6 11.8507 19.4656 12 19.3 12ZM21.7 12C21.5344 12 21.4 11.8507 21.4 11.6667V11.3333C21.4 11.1493 21.5344 11 21.7 11C21.8656 11 22 11.1493 22 11.3333V11.6667C22 11.8507 21.8656 12 21.7 12Z" fill="#3D2E24"/>
<path d="M5.74999 24.8333C6.07216 24.8333 6.33332 24.5722 6.33332 24.25C6.33332 23.9278 6.07216 23.6667 5.74999 23.6667C5.42782 23.6667 5.16666 23.9278 5.16666 24.25C5.16666 24.5722 5.42782 24.8333 5.74999 24.8333Z" fill="#66757F"/>
<path d="M16.25 24.8333C16.5722 24.8333 16.8333 24.5722 16.8333 24.25C16.8333 23.9278 16.5722 23.6667 16.25 23.6667C15.9278 23.6667 15.6667 23.9278 15.6667 24.25C15.6667 24.5722 15.9278 24.8333 16.25 24.8333Z" fill="#66757F"/>
<path d="M11 16.2778C14.1111 16.2778 14.8889 16.6667 15.2778 17.0556C15.6667 17.4444 16.0556 18.2222 16.0556 20.1667C16.0556 22.1111 15.6667 22.8889 15.2778 23.2778C14.8889 23.6667 14.1111 24.0556 11 24.0556C7.8889 24.0556 7.11112 23.6667 6.72224 23.2778C6.33335 22.8889 5.94446 22.1111 5.94446 20.1667C5.94446 18.2222 6.33335 17.4444 6.72224 17.0556C7.11112 16.6667 7.8889 16.2778 11 16.2778Z" fill="#55ACEE"/>
<path d="M17.6111 24.0556C17.6111 24.0556 17.6111 25.6111 16.0556 25.6111H5.94444C4.38889 25.6111 4.38889 24.0556 4.38889 24.0556V16.6667C4.38889 15.1111 5.94444 15.1111 5.94444 15.1111H16.0556C16.0556 15.1111 17.6111 15.1111 17.6111 16.6667V24.0556Z" fill="#31373D"/>
<path d="M12.2845 16.0402C12.4365 16.1922 12.4365 16.438 12.2845 16.5901C12.1324 16.7421 11.8867 16.7421 11.7346 16.5901L8.15994 13.0154C8.00788 12.8633 8.00788 12.6176 8.15994 12.4655C8.312 12.3134 8.55777 12.3134 8.70983 12.4655L12.2845 16.0402Z" fill="#31373D"/>
<path d="M9.71551 16.0402C9.56346 16.1922 9.56346 16.438 9.71551 16.5901C9.86757 16.7421 10.1133 16.7421 10.2654 16.5901L13.8401 13.0154C13.9921 12.8633 13.9921 12.6176 13.8401 12.4655C13.688 12.3134 13.4422 12.3134 13.2902 12.4655L9.71551 16.0402Z" fill="#31373D"/>
<path d="M4 26C2.9 26 2 26.6429 2 27.4286V34.5714C2 35.3571 2.9 36 4 36C5.1 36 6 35.3571 6 34.5714V27.4286C6 26.6429 5.1 26 4 26ZM22 26C20.9 26 20 26.6429 20 27.4286V34.5714C20 35.3571 20.9 36 22 36C23.1 36 24 35.3571 24 34.5714V27.4286C24 26.6429 23.1 26 22 26Z" fill="#A4523A"/>
<path d="M24.44 28H1.56C0.698 28 0 27.328 0 26.5C0 25.672 0.698 25 1.56 25H24.44C25.302 25 26 25.672 26 26.5C26 27.328 25.302 28 24.44 28Z" fill="#C1694F"/>
</svg>
