<svg viewBox="0 0 36 36" fill="none" xmlns="http://www.w3.org/2000/svg">
<path d="M36 32C36 34.209 34.209 36 32 36H4C1.791 36 0 34.209 0 32V4C0 1.791 1.791 0 4 0H32C34.209 0 36 1.791 36 4V32Z" fill="#3B88C3"/>
<path d="M16.343 22.303C16.343 19.823 17.707 17.994 19.66 16.939C18.203 15.885 17.304 14.459 17.304 12.505C17.304 8.877 20.312 6.552 24.001 6.552C27.597 6.552 30.73 8.846 30.73 12.505C30.73 14.241 29.861 15.978 28.341 16.939C30.45 17.994 31.659 19.916 31.659 22.303C31.659 26.613 28.155 29.372 24 29.372C19.723 29.372 16.343 26.457 16.343 22.303V22.303ZM21.18 21.992C21.18 23.574 22.11 25.094 24.001 25.094C25.769 25.094 26.823 23.574 26.823 21.992C26.823 20.039 25.707 18.892 24.001 18.892C22.204 18.892 21.18 20.256 21.18 21.992V21.992ZM21.769 13.001C21.769 14.396 22.576 15.357 24.001 15.357C25.427 15.357 26.265 14.396 26.265 13.001C26.265 11.668 25.458 10.644 24.001 10.644C22.544 10.644 21.769 11.668 21.769 13.001V13.001Z" fill="white"/>
<path d="M8.937 11.279H7.108C5.62 11.279 5 10.194 5 9.14C5 8.055 5.775 7 7.108 7H11.51C12.844 7 13.588 7.961 13.588 9.201V26.844C13.588 28.395 12.596 29.262 11.262 29.262C9.929 29.262 8.937 28.395 8.937 26.844V11.279Z" fill="white"/>
</svg>
