<svg viewBox="0 0 36 36" fill="none" xmlns="http://www.w3.org/2000/svg">
<path d="M36 32C36 34.209 34.209 36 32 36H4C1.791 36 0 34.209 0 32V4C0 1.791 1.791 0 4 0H32C34.209 0 36 1.791 36 4V32Z" fill="#3B88C3"/>
<path d="M17.785 18.41C17.785 13.356 19.739 7 26.001 7C32.265 7 34.218 13.356 34.218 18.41C34.218 23.464 32.265 29.82 26.001 29.82C19.739 29.82 17.785 23.464 17.785 18.41V18.41ZM29.381 18.41C29.381 16.054 29.164 11.217 26.002 11.217C22.84 11.217 22.623 16.054 22.623 18.41C22.623 20.611 22.84 25.603 26.002 25.603C29.164 25.603 29.381 20.611 29.381 18.41V18.41Z" fill="white"/>
<path d="M2 22.751C2 20.271 3.364 18.442 5.317 17.387C3.86 16.333 2.961 14.907 2.961 12.953C2.961 9.325 5.969 7 9.658 7C13.254 7 16.387 9.294 16.387 12.953C16.387 14.689 15.518 16.426 13.998 17.387C16.107 18.442 17.316 20.364 17.316 22.751C17.316 27.061 13.812 29.82 9.657 29.82C5.38 29.82 2 26.905 2 22.751V22.751ZM6.837 22.44C6.837 24.022 7.767 25.542 9.658 25.542C11.426 25.542 12.48 24.022 12.48 22.44C12.48 20.487 11.364 19.34 9.658 19.34C7.861 19.34 6.837 20.704 6.837 22.44V22.44ZM7.426 13.449C7.426 14.844 8.233 15.805 9.658 15.805C11.084 15.805 11.922 14.844 11.922 13.449C11.922 12.116 11.115 11.092 9.658 11.092C8.201 11.092 7.426 12.116 7.426 13.449V13.449Z" fill="white"/>
</svg>
