<svg viewBox="0 0 36 36" fill="none" xmlns="http://www.w3.org/2000/svg">
<path d="M36 32C36 34.209 34.209 36 32 36H4C1.791 36 0 34.209 0 32V4C0 1.791 1.791 0 4 0H32C34.209 0 36 1.791 36 4V32Z" fill="#3B88C3"/>
<path d="M9.937 11.279H8.108C6.62 11.279 6 10.194 6 9.14C6 8.055 6.775 7 8.108 7H12.51C13.844 7 14.588 7.961 14.588 9.201V26.844C14.588 28.395 13.596 29.262 12.262 29.262C10.929 29.262 9.937 28.395 9.937 26.844V11.279Z" fill="white"/>
<path d="M24.937 11.279H23.108C21.62 11.279 21 10.194 21 9.14C21 8.055 21.775 7 23.108 7H27.51C28.844 7 29.588 7.961 29.588 9.201V26.844C29.588 28.395 28.596 29.262 27.262 29.262C25.929 29.262 24.937 28.395 24.937 26.844V11.279Z" fill="white"/>
</svg>
