<svg viewBox="0 0 36 36" fill="none" xmlns="http://www.w3.org/2000/svg">
<path d="M36 32C36 34.209 34.209 36 32 36H4C1.791 36 0 34.209 0 32V4C0 1.791 1.791 0 4 0H32C34.209 0 36 1.791 36 4V32Z" fill="#3B88C3"/>
<path d="M17.785 18.41C17.785 13.356 19.739 7 26.001 7C32.265 7 34.218 13.356 34.218 18.41C34.218 23.464 32.265 29.82 26.001 29.82C19.739 29.82 17.785 23.464 17.785 18.41V18.41ZM29.381 18.41C29.381 16.054 29.164 11.217 26.002 11.217C22.84 11.217 22.623 16.054 22.623 18.41C22.623 20.611 22.84 25.603 26.002 25.603C29.164 25.603 29.381 20.611 29.381 18.41V18.41Z" fill="white"/>
<path d="M8.293 14.565C9.037 14.41 9.844 14.255 10.619 14.255C14.371 14.255 17.037 17.232 17.037 20.859C17.037 26.037 14.186 29.448 8.821 29.448C6.62 29.448 2 28.021 2 25.293C2 24.146 2.961 23.186 4.108 23.186C5.348 23.186 6.837 25.17 8.914 25.17C11.084 25.17 12.202 23.061 12.202 21.108C12.202 19.248 11.147 17.977 9.225 17.977C7.426 17.977 7.147 19 5.566 19C4.357 19 3.737 18.07 3.737 17.543C3.737 17.14 3.799 16.83 3.83 16.489L4.604 9.945C4.945 7.527 5.534 7 7.022 7H14.494C15.922 7 16.758 7.837 16.758 8.953C16.758 11.093 15.147 11.279 14.588 11.279H8.759L8.293 14.565V14.565Z" fill="white"/>
</svg>
