<svg viewBox="0 0 36 36" fill="none" xmlns="http://www.w3.org/2000/svg">
<path d="M36 32C36 34.209 34.209 36 32 36H4C1.791 36 0 34.209 0 32V4C0 1.791 1.791 0 4 0H32C34.209 0 36 1.791 36 4V32Z" fill="#3B88C3"/>
<path d="M22.389 14.489C23.133 14.334 23.94 14.179 24.715 14.179C28.467 14.179 31.133 17.156 31.133 20.783C31.133 25.961 28.282 29.372 22.917 29.372C20.716 29.372 16.096 27.945 16.096 25.217C16.096 24.07 17.057 23.11 18.204 23.11C19.444 23.11 20.933 25.094 23.01 25.094C25.18 25.094 26.298 22.985 26.298 21.032C26.298 19.172 25.243 17.901 23.321 17.901C21.522 17.901 21.243 18.924 19.662 18.924C18.453 18.924 17.833 17.994 17.833 17.467C17.833 17.064 17.895 16.754 17.926 16.413L18.7 9.869C19.041 7.451 19.63 6.924 21.118 6.924H28.59C30.018 6.924 30.854 7.761 30.854 8.877C30.854 11.017 29.243 11.203 28.684 11.203H22.855L22.389 14.489V14.489Z" fill="white"/>
<path d="M8.937 11.279H7.108C5.62 11.279 5 10.194 5 9.14C5 8.055 5.775 7 7.108 7H11.51C12.844 7 13.588 7.961 13.588 9.201V26.844C13.588 28.395 12.596 29.262 11.262 29.262C9.929 29.262 8.937 28.395 8.937 26.844V11.279Z" fill="white"/>
</svg>
