<svg viewBox="0 0 36 36" fill="none" xmlns="http://www.w3.org/2000/svg">
<path d="M36 32C36 34.209 34.209 36 32 36H4C1.791 36 0 34.209 0 32V4C0 1.791 1.791 0 4 0H32C34.209 0 36 1.791 36 4V32Z" fill="#3B88C3"/>
<path d="M17.785 17.41C17.785 12.356 19.739 6 26.001 6C32.265 6 34.218 12.356 34.218 17.41C34.218 22.464 32.265 28.82 26.001 28.82C19.739 28.82 17.785 22.464 17.785 17.41V17.41ZM29.381 17.41C29.381 15.054 29.164 10.217 26.002 10.217C22.84 10.217 22.623 15.054 22.623 17.41C22.623 19.611 22.84 24.603 26.002 24.603C29.164 24.603 29.381 19.611 29.381 17.41V17.41Z" fill="white"/>
<path d="M3.17 23.58C1.651 23.58 1 22.558 1 21.751C1 21.069 1.248 20.696 1.434 20.387L8.38 7.798C9.062 6.558 9.93 6 11.542 6C13.341 6 15.108 7.147 15.108 9.969V19.488H15.635C16.844 19.488 17.805 20.295 17.805 21.535C17.805 22.775 16.844 23.581 15.635 23.581H15.108V26.217C15.108 27.861 14.457 28.635 12.876 28.635C11.295 28.635 10.643 27.861 10.643 26.217V23.581H3.17V23.58ZM10.643 10.837H10.581L6.395 19.487H10.643V10.837Z" fill="white"/>
</svg>
