<svg viewBox="0 0 36 36" fill="none" xmlns="http://www.w3.org/2000/svg">
<path d="M36 32C36 34.209 34.209 36 32 36H4C1.791 36 0 34.209 0 32V4C0 1.791 1.791 0 4 0H32C34.209 0 36 1.791 36 4V32Z" fill="#3B88C3"/>
<path d="M16.769 24.132C15.25 24.132 14.599 23.11 14.599 22.303C14.599 21.621 14.847 21.248 15.033 20.939L21.979 8.35C22.661 7.11 23.529 6.552 25.141 6.552C26.94 6.552 28.707 7.699 28.707 10.521V20.04H29.234C30.443 20.04 31.404 20.847 31.404 22.087C31.404 23.327 30.443 24.133 29.234 24.133H28.707V26.769C28.707 28.413 28.056 29.187 26.475 29.187C24.894 29.187 24.242 28.413 24.242 26.769V24.133H16.769V24.132ZM24.242 11.389H24.18L19.994 20.039H24.242V11.389Z" fill="white"/>
<path d="M8.937 11.279H7.108C5.62 11.279 5 10.194 5 9.14C5 8.055 5.775 7 7.108 7H11.51C12.844 7 13.588 7.961 13.588 9.201V26.844C13.588 28.395 12.596 29.262 11.262 29.262C9.929 29.262 8.937 28.395 8.937 26.844V11.279Z" fill="white"/>
</svg>
