<svg viewBox="0 0 36 36" fill="none" xmlns="http://www.w3.org/2000/svg">
<path d="M36 32C36 34.209 34.209 36 32 36H4C1.791 36 0 34.209 0 32V4C0 1.791 1.791 0 4 0H32C34.209 0 36 1.791 36 4V32Z" fill="#3B88C3"/>
<path d="M31.784 14.241C31.784 18.923 27.041 25.496 23.909 28.411C23.661 28.659 23.289 28.907 22.917 29.155C22.576 29.372 22.235 29.372 21.987 29.372C21.119 29.372 19.785 28.224 19.785 27.108C19.785 26.674 20.064 26.302 20.436 25.837C21.676 24.317 23.692 22.333 24.715 20.876L24.653 20.814C24.095 21.062 23.382 21.186 22.7 21.186C18.979 21.186 16.22 17.899 16.22 14.241C16.22 10.21 19.413 6.552 24.002 6.552C28.777 6.552 31.784 10.117 31.784 14.241V14.241ZM26.947 14.241C26.947 12.505 25.861 11.016 24.001 11.016C22.234 11.016 21.056 12.442 21.056 14.241C21.056 15.885 22.048 17.466 24.001 17.466C25.77 17.466 26.947 16.07 26.947 14.241V14.241Z" fill="white"/>
<path d="M8.937 11.279H7.108C5.62 11.279 5 10.194 5 9.14C5 8.055 5.775 7 7.108 7H11.51C12.844 7 13.588 7.961 13.588 9.201V26.844C13.588 28.395 12.596 29.262 11.262 29.262C9.929 29.262 8.937 28.395 8.937 26.844V11.279Z" fill="white"/>
</svg>
