<svg viewBox="0 0 36 36" fill="none" xmlns="http://www.w3.org/2000/svg">
<path d="M36 32C36 34.209 34.209 36 32 36H4C1.791 36 0 34.209 0 32V4C0 1.791 1.791 0 4 0H32C34.209 0 36 1.791 36 4V32Z" fill="#3B88C3"/>
<path d="M17.785 17.41C17.785 12.356 19.739 6 26.001 6C32.265 6 34.218 12.356 34.218 17.41C34.218 22.464 32.265 28.82 26.001 28.82C19.739 28.82 17.785 22.464 17.785 17.41V17.41ZM29.381 17.41C29.381 15.054 29.164 10.217 26.002 10.217C22.84 10.217 22.623 15.054 22.623 17.41C22.623 19.611 22.84 24.603 26.002 24.603C29.164 24.603 29.381 19.611 29.381 17.41V17.41Z" fill="white"/>
<path d="M17.564 13.689C17.564 18.371 12.821 24.944 9.689 27.859C9.441 28.107 9.069 28.355 8.697 28.603C8.356 28.82 8.015 28.82 7.767 28.82C6.899 28.82 5.565 27.672 5.565 26.556C5.565 26.122 5.844 25.75 6.216 25.285C7.456 23.765 9.472 21.781 10.495 20.324L10.433 20.262C9.875 20.51 9.162 20.634 8.48 20.634C4.759 20.634 2 17.347 2 13.689C2 9.658 5.193 6 9.782 6C14.557 6 17.564 9.565 17.564 13.689V13.689ZM12.727 13.689C12.727 11.953 11.641 10.464 9.781 10.464C8.014 10.464 6.836 11.89 6.836 13.689C6.836 15.333 7.828 16.914 9.781 16.914C11.55 16.914 12.727 15.518 12.727 13.689V13.689Z" fill="white"/>
</svg>
