<svg viewBox="0 0 36 36" fill="none" xmlns="http://www.w3.org/2000/svg">
<path d="M36 32C36 34.209 34.209 36 32 36H4C1.791 36 0 34.209 0 32V4C0 1.791 1.791 0 4 0H32C34.209 0 36 1.791 36 4V32Z" fill="#3B88C3"/>
<path d="M26.357 11.203H18.42C16.746 11.203 16.126 10.118 16.126 9.064C16.126 7.979 16.715 6.924 18.42 6.924H29.644C31.226 6.924 31.877 8.35 31.877 9.156C31.877 9.776 31.536 10.427 31.164 11.202L23.474 26.829C22.606 28.565 22.265 29.184 20.87 29.184C19.165 29.184 18.296 27.882 18.296 26.983C18.296 26.611 18.389 26.333 18.607 25.898L26.357 11.203Z" fill="white"/>
<path d="M8.937 11.279H7.108C5.62 11.279 5 10.194 5 9.14C5 8.055 5.775 7 7.108 7H11.51C12.844 7 13.588 7.961 13.588 9.201V26.844C13.588 28.395 12.596 29.262 11.262 29.262C9.929 29.262 8.937 28.395 8.937 26.844V11.279Z" fill="white"/>
</svg>
