<svg viewBox="0 0 36 36" fill="none" xmlns="http://www.w3.org/2000/svg">
<path d="M36 32C36 34.209 34.209 36 32 36H4C1.791 36 0 34.209 0 32V4C0 1.791 1.791 0 4 0H32C34.209 0 36 1.791 36 4V32Z" fill="#3B88C3"/>
<path d="M17.785 18.41C17.785 13.356 19.739 7 26.001 7C32.265 7 34.218 13.356 34.218 18.41C34.218 23.464 32.265 29.82 26.001 29.82C19.739 29.82 17.785 23.464 17.785 18.41V18.41ZM29.381 18.41C29.381 16.054 29.164 11.217 26.002 11.217C22.84 11.217 22.623 16.054 22.623 18.41C22.623 20.611 22.84 25.603 26.002 25.603C29.164 25.603 29.381 20.611 29.381 18.41V18.41Z" fill="white"/>
<path d="M12.231 11.279H4.294C2.62 11.279 2 10.194 2 9.14C2 8.055 2.589 7 4.294 7H15.518C17.1 7 17.751 8.426 17.751 9.232C17.751 9.852 17.41 10.503 17.038 11.278L9.348 26.905C8.48 28.641 8.139 29.26 6.744 29.26C5.039 29.26 4.17 27.958 4.17 27.059C4.17 26.687 4.263 26.409 4.481 25.974L12.231 11.279Z" fill="white"/>
</svg>
