<svg viewBox="0 0 36 36" fill="none" xmlns="http://www.w3.org/2000/svg">
<path d="M36 32C36 34.209 34.209 36 32 36H4C1.791 36 0 34.209 0 32V4C0 1.791 1.791 0 4 0H32C34.209 0 36 1.791 36 4V32Z" fill="#3B88C3"/>
<path d="M16.219 21.683C16.219 17.001 20.963 10.428 24.094 7.513C24.342 7.265 24.714 7.017 25.086 6.769C25.427 6.552 25.769 6.552 26.017 6.552C26.884 6.552 28.218 7.699 28.218 8.816C28.218 9.25 27.939 9.622 27.567 10.087C26.327 11.606 24.312 13.59 23.288 15.048L23.35 15.11C23.908 14.862 24.621 14.738 25.304 14.738C29.025 14.738 31.783 18.025 31.783 21.683C31.783 25.713 28.589 29.373 24 29.373C19.227 29.372 16.219 25.807 16.219 21.683ZM21.056 21.683C21.056 23.419 22.141 24.908 24.001 24.908C25.769 24.908 26.947 23.481 26.947 21.683C26.947 20.04 25.955 18.458 24.001 18.458C22.234 18.458 21.056 19.854 21.056 21.683Z" fill="white"/>
<path d="M8.937 11.279H7.108C5.62 11.279 5 10.194 5 9.14C5 8.055 5.775 7 7.108 7H11.51C12.844 7 13.588 7.961 13.588 9.201V26.844C13.588 28.395 12.596 29.262 11.262 29.262C9.929 29.262 8.937 28.395 8.937 26.844V11.279Z" fill="white"/>
</svg>
