<svg viewBox="0 0 36 36" fill="none" xmlns="http://www.w3.org/2000/svg">
<path d="M36 32C36 34.209 34.209 36 32 36H4C1.791 36 0 34.209 0 32V4C0 1.791 1.791 0 4 0H32C34.209 0 36 1.791 36 4V32Z" fill="#3B88C3"/>
<path d="M17.785 18.41C17.785 13.356 19.739 7 26.001 7C32.265 7 34.218 13.356 34.218 18.41C34.218 23.464 32.265 29.82 26.001 29.82C19.739 29.82 17.785 23.464 17.785 18.41V18.41ZM29.381 18.41C29.381 16.054 29.164 11.217 26.002 11.217C22.84 11.217 22.623 16.054 22.623 18.41C22.623 20.611 22.84 25.603 26.002 25.603C29.164 25.603 29.381 20.611 29.381 18.41V18.41Z" fill="white"/>
<path d="M2 22.131C2 17.449 6.744 10.876 9.875 7.961C10.123 7.713 10.495 7.465 10.867 7.217C11.208 7 11.55 7 11.798 7C12.665 7 13.999 8.147 13.999 9.264C13.999 9.698 13.72 10.07 13.348 10.535C12.108 12.054 10.093 14.038 9.069 15.496L9.131 15.558C9.689 15.31 10.402 15.186 11.085 15.186C14.806 15.186 17.564 18.473 17.564 22.131C17.564 26.161 14.37 29.821 9.781 29.821C5.008 29.82 2 26.255 2 22.131ZM6.837 22.131C6.837 23.867 7.922 25.356 9.782 25.356C11.55 25.356 12.728 23.929 12.728 22.131C12.728 20.488 11.736 18.906 9.782 18.906C8.015 18.906 6.837 20.302 6.837 22.131Z" fill="white"/>
</svg>
