<svg viewBox="0 0 36 36" fill="none" xmlns="http://www.w3.org/2000/svg">
<path d="M36 32C36 34.209 34.209 36 32 36H4C1.791 36 0 34.209 0 32V4C0 1.791 1.791 0 4 0H32C34.209 0 36 1.791 36 4V32Z" fill="#3B88C3"/>
<path d="M17.785 18.41C17.785 13.356 19.739 7 26.001 7C32.265 7 34.218 13.356 34.218 18.41C34.218 23.464 32.265 29.82 26.001 29.82C19.739 29.82 17.785 23.464 17.785 18.41V18.41ZM29.381 18.41C29.381 16.054 29.164 11.217 26.002 11.217C22.84 11.217 22.623 16.054 22.623 18.41C22.623 20.611 22.84 25.603 26.002 25.603C29.164 25.603 29.381 20.611 29.381 18.41V18.41Z" fill="white"/>
<path d="M16.014 12.674C16.014 14.628 15.178 16.333 13.472 17.418C15.704 18.442 17.254 20.519 17.254 22.968C17.254 26.689 13.844 29.821 9.441 29.821C4.852 29.821 2 26.441 2 23.992C2 22.783 3.272 21.915 4.388 21.915C6.496 21.915 6 25.543 9.504 25.543C11.116 25.543 12.419 24.303 12.419 22.659C12.419 18.318 7.147 21.512 7.147 17.853C7.147 14.598 11.549 16.799 11.549 13.357C11.549 12.178 10.713 11.279 9.317 11.279C6.372 11.279 6.775 14.317 4.666 14.317C3.395 14.317 2.651 13.17 2.651 12.023C2.651 9.605 5.968 7 9.41 7C13.876 7 16.014 10.256 16.014 12.674V12.674Z" fill="white"/>
</svg>
