<svg viewBox="0 0 36 36" fill="none" xmlns="http://www.w3.org/2000/svg">
<path d="M36 32C36 34.209 34.209 36 32 36H4C1.791 36 0 34.209 0 32V4C0 1.791 1.791 0 4 0H32C34.209 0 36 1.791 36 4V32Z" fill="#3B88C3"/>
<path d="M30.109 12.226C30.109 14.18 29.273 15.885 27.567 16.97C29.799 17.994 31.349 20.071 31.349 22.52C31.349 26.241 27.939 29.373 23.536 29.373C18.947 29.373 16.095 25.993 16.095 23.544C16.095 22.335 17.367 21.467 18.483 21.467C20.591 21.467 20.095 25.095 23.599 25.095C25.211 25.095 26.514 23.855 26.514 22.211C26.514 17.87 21.242 21.064 21.242 17.405C21.242 14.15 25.644 16.351 25.644 12.909C25.644 11.73 24.808 10.831 23.412 10.831C20.467 10.831 20.87 13.869 18.761 13.869C17.49 13.869 16.746 12.722 16.746 11.575C16.746 9.157 20.063 6.552 23.505 6.552C27.971 6.552 30.109 9.808 30.109 12.226V12.226Z" fill="white"/>
<path d="M8.937 11.279H7.108C5.62 11.279 5 10.194 5 9.14C5 8.055 5.775 7 7.108 7H11.51C12.844 7 13.588 7.961 13.588 9.201V26.844C13.588 28.395 12.596 29.262 11.262 29.262C9.929 29.262 8.937 28.395 8.937 26.844V11.279Z" fill="white"/>
</svg>
