<svg viewBox="0 0 36 36" fill="none" xmlns="http://www.w3.org/2000/svg">
<path d="M36 32C36 34.209 34.209 36 32 36H4C1.791 36 0 34.209 0 32V4C0 1.791 1.791 0 4 0H32C34.209 0 36 1.791 36 4V32Z" fill="#3B88C3"/>
<path d="M8.937 11.279H7.108C5.62 11.279 5 10.194 5 9.14C5 8.055 5.775 7 7.108 7H11.51C12.844 7 13.588 7.961 13.588 9.201V26.844C13.588 28.395 12.596 29.262 11.262 29.262C9.929 29.262 8.937 28.395 8.937 26.844V11.279Z" fill="white"/>
<path d="M29.587 25.356C30.952 25.356 32.007 25.976 32.007 27.402C32.007 28.829 30.952 29.449 29.774 29.449H19.418C18.054 29.449 17 28.829 17 27.402C17 26.752 17.403 26.193 17.713 25.821C20.286 22.752 23.077 19.961 25.434 16.55C25.992 15.744 26.519 14.782 26.519 13.666C26.519 12.395 25.558 11.279 24.286 11.279C20.72 11.279 22.426 16.302 19.449 16.302C17.961 16.302 17.185 15.248 17.185 14.038C17.185 10.132 20.658 7 24.472 7C28.287 7 31.355 9.512 31.355 13.449C31.355 17.758 26.55 22.038 23.914 25.355H29.587V25.356Z" fill="white"/>
</svg>
