<svg viewBox="0 0 36 36" fill="none" xmlns="http://www.w3.org/2000/svg">
<path d="M36 32C36 34.209 34.209 36 32 36H4C1.791 36 0 34.209 0 32V4C0 1.791 1.791 0 4 0H32C34.209 0 36 1.791 36 4V32Z" fill="#3B88C3"/>
<path d="M33.784 14.241C33.784 18.923 29.041 25.496 25.909 28.411C25.661 28.659 25.289 28.907 24.917 29.155C24.576 29.372 24.235 29.372 23.987 29.372C23.119 29.372 21.785 28.224 21.785 27.108C21.785 26.674 22.064 26.302 22.436 25.837C23.676 24.317 25.692 22.333 26.715 20.876L26.653 20.814C26.095 21.062 25.382 21.186 24.7 21.186C20.979 21.186 18.22 17.899 18.22 14.241C18.22 10.21 21.413 6.552 26.002 6.552C30.777 6.552 33.784 10.117 33.784 14.241V14.241ZM28.947 14.241C28.947 12.505 27.861 11.016 26.001 11.016C24.234 11.016 23.056 12.442 23.056 14.241C23.056 15.885 24.048 17.466 26.001 17.466C27.77 17.466 28.947 16.07 28.947 14.241V14.241Z" fill="white"/>
<path d="M14.587 25.356C15.952 25.356 17.007 25.976 17.007 27.402C17.007 28.829 15.952 29.449 14.774 29.449H4.418C3.054 29.449 2 28.829 2 27.402C2 26.752 2.403 26.193 2.713 25.821C5.286 22.752 8.077 19.961 10.434 16.55C10.992 15.744 11.519 14.782 11.519 13.666C11.519 12.395 10.558 11.279 9.286 11.279C5.72 11.279 7.426 16.302 4.449 16.302C2.961 16.302 2.185 15.248 2.185 14.038C2.185 10.132 5.658 7 9.472 7C13.287 7 16.355 9.512 16.355 13.449C16.355 17.758 11.55 22.038 8.914 25.355H14.587V25.356Z" fill="white"/>
</svg>
