<svg viewBox="0 0 36 36" fill="none" xmlns="http://www.w3.org/2000/svg">
<path d="M36 32C36 34.209 34.209 36 32 36H4C1.791 36 0 34.209 0 32V4C0 1.791 1.791 0 4 0H32C34.209 0 36 1.791 36 4V32Z" fill="#3B88C3"/>
<path d="M18.769 24.132C17.25 24.132 16.599 23.11 16.599 22.303C16.599 21.621 16.847 21.248 17.033 20.939L23.979 8.35C24.661 7.11 25.529 6.552 27.141 6.552C28.94 6.552 30.707 7.699 30.707 10.521V20.04H31.234C32.443 20.04 33.404 20.847 33.404 22.087C33.404 23.327 32.443 24.133 31.234 24.133H30.707V26.769C30.707 28.413 30.056 29.187 28.475 29.187C26.894 29.187 26.242 28.413 26.242 26.769V24.133H18.769V24.132ZM26.242 11.389H26.18L21.994 20.039H26.242V11.389Z" fill="white"/>
<path d="M14.587 24.356C15.952 24.356 17.007 24.976 17.007 26.402C17.007 27.829 15.952 28.449 14.774 28.449H4.418C3.054 28.449 2 27.829 2 26.402C2 25.752 2.403 25.193 2.713 24.821C5.286 21.752 8.077 18.961 10.434 15.55C10.992 14.744 11.519 13.782 11.519 12.666C11.519 11.395 10.558 10.279 9.286 10.279C5.72 10.279 7.426 15.302 4.449 15.302C2.961 15.302 2.185 14.248 2.185 13.038C2.185 9.132 5.658 6 9.472 6C13.287 6 16.355 8.512 16.355 12.449C16.355 16.758 11.55 21.038 8.914 24.355H14.587V24.356Z" fill="white"/>
</svg>
