<svg viewBox="0 0 36 36" fill="none" xmlns="http://www.w3.org/2000/svg">
<path d="M36 32C36 34.209 34.209 36 32 36H4C1.791 36 0 34.209 0 32V4C0 1.791 1.791 0 4 0H32C34.209 0 36 1.791 36 4V32Z" fill="#3B88C3"/>
<path d="M24.389 14.489C25.133 14.334 25.94 14.179 26.715 14.179C30.467 14.179 33.133 17.156 33.133 20.783C33.133 25.961 30.282 29.372 24.917 29.372C22.716 29.372 18.096 27.945 18.096 25.217C18.096 24.07 19.057 23.11 20.204 23.11C21.444 23.11 22.933 25.094 25.01 25.094C27.18 25.094 28.298 22.985 28.298 21.032C28.298 19.172 27.243 17.901 25.321 17.901C23.522 17.901 23.243 18.924 21.662 18.924C20.453 18.924 19.833 17.994 19.833 17.467C19.833 17.064 19.895 16.754 19.926 16.413L20.7 9.869C21.041 7.451 21.63 6.924 23.118 6.924H30.59C32.018 6.924 32.854 7.761 32.854 8.877C32.854 11.017 31.243 11.203 30.684 11.203H24.855L24.389 14.489V14.489Z" fill="white"/>
<path d="M14.587 25.356C15.952 25.356 17.007 25.976 17.007 27.402C17.007 28.829 15.952 29.449 14.774 29.449H4.418C3.054 29.449 2 28.829 2 27.402C2 26.752 2.403 26.193 2.713 25.821C5.286 22.752 8.077 19.961 10.434 16.55C10.992 15.744 11.519 14.782 11.519 13.666C11.519 12.395 10.558 11.279 9.286 11.279C5.72 11.279 7.426 16.302 4.449 16.302C2.961 16.302 2.185 15.248 2.185 14.038C2.185 10.132 5.658 7 9.472 7C13.287 7 16.355 9.512 16.355 13.449C16.355 17.758 11.55 22.038 8.914 25.355H14.587V25.356Z" fill="white"/>
</svg>
