<svg viewBox="0 0 36 36" fill="none" xmlns="http://www.w3.org/2000/svg">
<path d="M36 32C36 34.209 34.209 36 32 36H4C1.791 36 0 34.209 0 32V4C0 1.791 1.791 0 4 0H32C34.209 0 36 1.791 36 4V32Z" fill="#3B88C3"/>
<path d="M17.785 18.41C17.785 13.356 19.739 7 26.001 7C32.265 7 34.218 13.356 34.218 18.41C34.218 23.464 32.265 29.82 26.001 29.82C19.739 29.82 17.785 23.464 17.785 18.41V18.41ZM29.381 18.41C29.381 16.054 29.164 11.217 26.002 11.217C22.84 11.217 22.623 16.054 22.623 18.41C22.623 20.611 22.84 25.603 26.002 25.603C29.164 25.603 29.381 20.611 29.381 18.41V18.41Z" fill="white"/>
<path d="M14.587 25.356C15.952 25.356 17.007 25.976 17.007 27.402C17.007 28.829 15.952 29.449 14.774 29.449H4.418C3.054 29.449 2 28.829 2 27.402C2 26.752 2.403 26.193 2.713 25.821C5.286 22.752 8.077 19.961 10.434 16.55C10.992 15.744 11.519 14.782 11.519 13.666C11.519 12.395 10.558 11.279 9.286 11.279C5.72 11.279 7.426 16.302 4.449 16.302C2.961 16.302 2.185 15.248 2.185 14.038C2.185 10.132 5.658 7 9.472 7C13.287 7 16.355 9.512 16.355 13.449C16.355 17.758 11.55 22.038 8.914 25.355H14.587V25.356Z" fill="white"/>
</svg>
