<svg viewBox="0 0 36 36" fill="none" xmlns="http://www.w3.org/2000/svg">
<path d="M36 32C36 34.209 34.209 36 32 36H4C1.791 36 0 34.209 0 32V4C0 1.791 1.791 0 4 0H32C34.209 0 36 1.791 36 4V32Z" fill="#3B88C3"/>
<path d="M18.343 22.303C18.343 19.823 19.707 17.994 21.66 16.939C20.203 15.885 19.304 14.459 19.304 12.505C19.304 8.877 22.312 6.552 26.001 6.552C29.597 6.552 32.73 8.846 32.73 12.505C32.73 14.241 31.861 15.978 30.341 16.939C32.45 17.994 33.659 19.916 33.659 22.303C33.659 26.613 30.155 29.372 26 29.372C21.723 29.372 18.343 26.457 18.343 22.303V22.303ZM23.18 21.992C23.18 23.574 24.11 25.094 26.001 25.094C27.769 25.094 28.823 23.574 28.823 21.992C28.823 20.039 27.707 18.892 26.001 18.892C24.204 18.892 23.18 20.256 23.18 21.992V21.992ZM23.769 13.001C23.769 14.396 24.576 15.357 26.001 15.357C27.427 15.357 28.265 14.396 28.265 13.001C28.265 11.668 27.458 10.644 26.001 10.644C24.544 10.644 23.769 11.668 23.769 13.001V13.001Z" fill="white"/>
<path d="M14.587 25.356C15.952 25.356 17.007 25.976 17.007 27.402C17.007 28.829 15.952 29.449 14.774 29.449H4.418C3.054 29.449 2 28.829 2 27.402C2 26.752 2.403 26.193 2.713 25.821C5.286 22.752 8.077 19.961 10.434 16.55C10.992 15.744 11.519 14.782 11.519 13.666C11.519 12.395 10.558 11.279 9.286 11.279C5.72 11.279 7.426 16.302 4.449 16.302C2.961 16.302 2.185 15.248 2.185 14.038C2.185 10.132 5.658 7 9.472 7C13.287 7 16.355 9.512 16.355 13.449C16.355 17.758 11.55 22.038 8.914 25.355H14.587V25.356Z" fill="white"/>
</svg>
