<svg viewBox="0 0 36 36" fill="none" xmlns="http://www.w3.org/2000/svg">
<path d="M36 32C36 34.209 34.209 36 32 36H4C1.791 36 0 34.209 0 32V4C0 1.791 1.791 0 4 0H32C34.209 0 36 1.791 36 4V32Z" fill="#3B88C3"/>
<path d="M24.937 11.279H23.108C21.62 11.279 21 10.194 21 9.14C21 8.055 21.775 7 23.108 7H27.51C28.844 7 29.588 7.961 29.588 9.201V26.844C29.588 28.395 28.596 29.262 27.262 29.262C25.929 29.262 24.937 28.395 24.937 26.844V11.279Z" fill="white"/>
<path d="M17.587 25.356C18.952 25.356 20.007 25.976 20.007 27.402C20.007 28.829 18.952 29.449 17.774 29.449H7.418C6.054 29.449 5 28.829 5 27.402C5 26.752 5.403 26.193 5.713 25.821C8.286 22.752 11.077 19.961 13.434 16.55C13.992 15.744 14.519 14.782 14.519 13.666C14.519 12.395 13.558 11.279 12.286 11.279C8.72 11.279 10.426 16.302 7.449 16.302C5.961 16.302 5.185 15.248 5.185 14.038C5.185 10.132 8.658 7 12.472 7C16.287 7 19.355 9.512 19.355 13.449C19.355 17.758 14.55 22.038 11.914 25.355H17.587V25.356Z" fill="white"/>
</svg>
