<svg viewBox="0 0 36 36" fill="none" xmlns="http://www.w3.org/2000/svg">
<path d="M36 32C36 34.209 34.209 36 32 36H4C1.791 36 0 34.209 0 32V4C0 1.791 1.791 0 4 0H32C34.209 0 36 1.791 36 4V32Z" fill="#3B88C3"/>
<path d="M18.219 21.683C18.219 17.001 22.963 10.428 26.094 7.513C26.342 7.265 26.714 7.017 27.086 6.769C27.427 6.552 27.769 6.552 28.017 6.552C28.884 6.552 30.218 7.699 30.218 8.816C30.218 9.25 29.939 9.622 29.567 10.087C28.327 11.606 26.312 13.59 25.288 15.048L25.35 15.11C25.908 14.862 26.621 14.738 27.304 14.738C31.025 14.738 33.783 18.025 33.783 21.683C33.783 25.713 30.589 29.373 26 29.373C21.227 29.372 18.219 25.807 18.219 21.683ZM23.056 21.683C23.056 23.419 24.141 24.908 26.001 24.908C27.769 24.908 28.947 23.481 28.947 21.683C28.947 20.04 27.955 18.458 26.001 18.458C24.234 18.458 23.056 19.854 23.056 21.683Z" fill="white"/>
<path d="M14.587 24.356C15.952 24.356 17.007 24.976 17.007 26.402C17.007 27.829 15.952 28.449 14.774 28.449H4.418C3.054 28.449 2 27.829 2 26.402C2 25.752 2.403 25.193 2.713 24.821C5.286 21.752 8.077 18.961 10.434 15.55C10.992 14.744 11.519 13.782 11.519 12.666C11.519 11.395 10.558 10.279 9.286 10.279C5.72 10.279 7.426 15.302 4.449 15.302C2.961 15.302 2.185 14.248 2.185 13.038C2.185 9.132 5.658 6 9.472 6C13.287 6 16.355 8.512 16.355 12.449C16.355 16.758 11.55 21.038 8.914 24.355H14.587V24.356Z" fill="white"/>
</svg>
