<svg viewBox="0 0 36 36" fill="none" xmlns="http://www.w3.org/2000/svg">
<path d="M36 32C36 34.209 34.209 36 32 36H4C1.791 36 0 34.209 0 32V4C0 1.791 1.791 0 4 0H32C34.209 0 36 1.791 36 4V32Z" fill="#3B88C3"/>
<path d="M32.109 12.674C32.109 14.628 31.273 16.333 29.567 17.418C31.799 18.442 33.349 20.519 33.349 22.968C33.349 26.689 29.939 29.821 25.536 29.821C20.947 29.821 18.095 26.441 18.095 23.992C18.095 22.783 19.367 21.915 20.483 21.915C22.591 21.915 22.095 25.543 25.599 25.543C27.211 25.543 28.514 24.303 28.514 22.659C28.514 18.318 23.242 21.512 23.242 17.853C23.242 14.598 27.644 16.799 27.644 13.357C27.644 12.178 26.808 11.279 25.412 11.279C22.467 11.279 22.87 14.317 20.761 14.317C19.49 14.317 18.746 13.17 18.746 12.023C18.746 9.605 22.063 7 25.505 7C29.971 7 32.109 10.256 32.109 12.674V12.674Z" fill="white"/>
<path d="M14.587 25.356C15.952 25.356 17.007 25.976 17.007 27.402C17.007 28.829 15.952 29.449 14.774 29.449H4.418C3.054 29.449 2 28.829 2 27.402C2 26.752 2.403 26.193 2.713 25.821C5.286 22.752 8.077 19.961 10.434 16.55C10.992 15.744 11.519 14.782 11.519 13.666C11.519 12.395 10.558 11.279 9.286 11.279C5.72 11.279 7.426 16.302 4.449 16.302C2.961 16.302 2.185 15.248 2.185 14.038C2.185 10.132 5.658 7 9.472 7C13.287 7 16.355 9.512 16.355 13.449C16.355 17.758 11.55 22.038 8.914 25.355H14.587V25.356Z" fill="white"/>
</svg>
