<svg viewBox="0 0 36 36" fill="none" xmlns="http://www.w3.org/2000/svg">
<path d="M36 32C36 34.209 34.209 36 32 36H4C1.791 36 0 34.209 0 32V4C0 1.791 1.791 0 4 0H32C34.209 0 36 1.791 36 4V32Z" fill="#3B88C3"/>
<path d="M28.357 11.203H20.42C18.746 11.203 18.126 10.118 18.126 9.064C18.126 7.979 18.715 6.924 20.42 6.924H31.644C33.226 6.924 33.877 8.35 33.877 9.156C33.877 9.776 33.536 10.427 33.164 11.202L25.474 26.829C24.606 28.565 24.265 29.184 22.87 29.184C21.165 29.184 20.296 27.882 20.296 26.983C20.296 26.611 20.389 26.333 20.607 25.898L28.357 11.203Z" fill="white"/>
<path d="M14.587 25.356C15.952 25.356 17.007 25.976 17.007 27.402C17.007 28.829 15.952 29.449 14.774 29.449H4.418C3.054 29.449 2 28.829 2 27.402C2 26.752 2.403 26.193 2.713 25.821C5.286 22.752 8.077 19.961 10.434 16.55C10.992 15.744 11.519 14.782 11.519 13.666C11.519 12.395 10.558 11.279 9.286 11.279C5.72 11.279 7.426 16.302 4.449 16.302C2.961 16.302 2.185 15.248 2.185 14.038C2.185 10.132 5.658 7 9.472 7C13.287 7 16.355 9.512 16.355 13.449C16.355 17.758 11.55 22.038 8.914 25.355L14.587 25.356Z" fill="white"/>
</svg>
