<svg viewBox="0 0 36 36" fill="none" xmlns="http://www.w3.org/2000/svg">
<path d="M36 32C36 34.209 34.209 36 32 36H4C1.791 36 0 34.209 0 32V4C0 1.791 1.791 0 4 0H32C34.209 0 36 1.791 36 4V32Z" fill="#3B88C3"/>
<path d="M31.587 25.356C32.952 25.356 34.007 25.976 34.007 27.402C34.007 28.829 32.952 29.449 31.774 29.449H21.418C20.054 29.449 19 28.829 19 27.402C19 26.752 19.403 26.193 19.713 25.821C22.286 22.752 25.077 19.961 27.434 16.55C27.992 15.744 28.519 14.782 28.519 13.666C28.519 12.395 27.558 11.279 26.286 11.279C22.72 11.279 24.426 16.302 21.449 16.302C19.961 16.302 19.185 15.248 19.185 14.038C19.185 10.132 22.658 7 26.472 7C30.287 7 33.355 9.512 33.355 13.449C33.355 17.758 28.55 22.038 25.914 25.355H31.587V25.356Z" fill="white"/>
<path d="M15.587 25.356C16.952 25.356 18.007 25.976 18.007 27.402C18.007 28.829 16.952 29.449 15.774 29.449H5.418C4.054 29.449 3 28.829 3 27.402C3 26.752 3.403 26.193 3.713 25.821C6.286 22.752 9.077 19.961 11.434 16.55C11.992 15.744 12.519 14.782 12.519 13.666C12.519 12.395 11.558 11.279 10.286 11.279C6.72 11.279 8.426 16.302 5.449 16.302C3.961 16.302 3.185 15.248 3.185 14.038C3.185 10.132 6.658 7 10.472 7C14.287 7 17.355 9.512 17.355 13.449C17.355 17.758 12.55 22.038 9.914 25.355H15.587V25.356Z" fill="white"/>
</svg>
