<svg viewBox="0 0 260 260" fill="none" xmlns="http://www.w3.org/2000/svg">
<g clip-path="url(#clip0_2612_2)">
<path d="M91.6834 109.391C90.3019 106.945 84.5078 97.1522 83.7805 94.7685C83.0566 92.3743 81.5185 74.1673 82.3015 65.1995C82.3015 65.1995 67.7902 55.7793 69.0603 66.1773C70.3514 76.7285 73.3998 96.7138 73.974 98.6417C74.5517 100.563 82.9836 110.62 85.6039 113.929C87.0551 115.763 92.8874 111.517 91.6834 109.391Z" fill="#CC9B7A"/>
<path d="M82.7052 65.1995L67.1151 66.1774C67.9398 71.8949 64.867 82.3382 72.3698 87.3388C72.3698 87.3388 82.1728 85.2961 87.8137 87.1753C90.6394 88.1183 82.1658 70.4333 82.7052 65.1995Z" fill="#BE1931"/>
<path d="M79.2217 62.4921C77.4157 52.5186 61.0565 64.1242 61.0565 64.1242C61.0565 64.1242 54.904 94.2221 54.904 97.114C54.904 99.9953 58.0846 112.871 58.9581 117.492C59.2504 119.02 68.1208 119.629 67.738 116.261C67.4978 114.176 65.9388 100.629 66.1929 99.0418C66.4469 97.448 67.7658 88.9918 70.0521 83.6396C71.6877 79.8117 81.6333 75.8133 79.2217 62.4921Z" fill="#D5AB88"/>
<path d="M58.9929 64.1207L52.7951 84.5653C61.4393 87.8817 72.1575 87.8225 72.3698 87.3388C72.6551 86.6881 70.5567 85.2613 70.8699 84.6697C72.9092 80.8418 85.6214 75.8098 82.6112 62.4886C80.3597 52.5186 58.9929 64.1207 58.9929 64.1207Z" fill="#DD2E44"/>
<path d="M56.5256 11.6363C55.9967 12.6038 54.288 12.6803 52.7221 11.8173L43.629 6.87928C42.063 6.01277 43.7264 2.34492 45.2924 3.21143L54.6604 8.31301C56.2264 9.17952 56.5256 11.6363 56.5256 11.6363Z" fill="#66757F"/>
<path d="M67.9503 116.953C65.6605 113.946 51.5284 117.844 46.66 120.283C43.4098 121.915 44.3737 124.804 44.3737 124.804H68.8481C68.8481 124.804 70.2401 119.963 67.9503 116.953Z" fill="#CCD6DD"/>
<path d="M81.3341 30.6089C73.8592 26.7114 63.8544 21.0565 56.0246 10.7281C55.2068 9.64929 48.6401 14.0131 49.1726 14.7509C56.5674 24.9749 64.6165 33.8905 87.7128 40.4954C87.953 40.565 84.4313 32.2271 81.3341 30.6089Z" fill="#CC9B7A"/>
<path d="M98.866 17.6775C98.866 24.5538 93.2947 30.1322 86.4148 30.1322C79.535 30.1322 73.9567 24.5538 73.9567 17.6775C73.9567 10.8011 79.535 5.22281 86.4148 5.22281C93.2947 5.22281 98.866 10.7977 98.866 17.6775Z" fill="#D5AB88"/>
<path d="M79.9108 17.674C73.9601 13.2267 70.9082 4.27628 73.1249 1.92732C77.2869 -2.48524 85.9589 1.54801 88.1861 5.3481C90.4167 9.15515 81.7134 19.0208 79.9108 17.674Z" fill="#DD2E44"/>
<path d="M58.9929 64.1207C58.9929 64.1207 56.6092 40.5198 67.2856 32.2828C75.2512 26.1303 88.6629 30.7307 92.2194 37.8472C95.7828 44.9637 83.0497 48.8682 83.0497 66.6611C83.0532 70.221 58.9929 71.0945 58.9929 64.1207Z" fill="#9266CC"/>
<path d="M80.7808 19.755C79.1591 23.4716 78.0386 26.6348 77.3426 29.4397C79.3401 30.3827 81.0348 33.9984 83.262 34.8057C86.9368 36.1385 87.3439 33.8418 87.4274 33.4207C88.3218 28.9072 90.5872 24.5921 92.0488 22.2745C93.8305 19.4592 82.8444 15.0223 80.7808 19.755Z" fill="#D5AB88"/>
<path d="M76.4761 10.1748C76.4761 14.1802 82.3015 25.7858 93.7749 25.7405C99.7847 25.7162 100.863 19.0939 100.832 14.7022C100.811 10.9404 96.7398 4.38069 91.0605 2.75556C85.3847 1.13043 76.4761 5.11844 76.4761 10.1748Z" fill="#EA596E"/>
<path d="M90.2044 108.991C95.4243 108.104 94.6796 113.814 94.5439 115.86C94.2203 120.732 93.2563 124.804 89.8042 124.804H78.2474C78.2474 124.804 77.6071 119.507 83.8257 118.303C85.0541 118.063 82.74 110.258 90.2044 108.991Z" fill="#CCD6DD"/>
<path d="M72.8396 33.1841C65.9041 33.1841 60.886 31.4511 57.9246 28.0303C55.4295 25.1489 54.5247 21.1296 55.1546 16.1115C57.2147 15.2102 58.6554 13.2128 58.6554 10.8812C58.6554 7.70403 56.0002 5.13235 52.7221 5.13235C49.4509 5.13235 46.7923 7.70403 46.7923 10.8812C46.7923 11.5563 46.935 12.1931 47.1542 12.7952C47.1403 12.8543 47.102 12.8996 47.095 12.9622C44.064 37.7498 61.3593 40.1892 67.042 40.9931C67.3935 41.0418 73.1945 33.1841 72.8396 33.1841Z" fill="#D5AB88"/>
<path d="M92.2924 27.0316C92.2924 27.0316 91.5999 23.3011 96.8163 22.8661C101.118 22.5076 102.255 27.209 105.37 28.8898C107.719 30.1565 110.405 30.1983 112.278 28.9351C112.278 28.9351 109.703 32.0531 106.811 33.2432C103.052 34.7883 98.4206 33.7966 96.2108 32.6134C92.7587 30.7655 92.2924 27.0316 92.2924 27.0316Z" fill="#963B22"/>
<path d="M113.527 40.9965C113.482 40.9757 113.44 40.9722 113.398 40.9548C113.228 40.8295 113.082 40.6903 112.887 40.5824L58.5301 10.481C56.9676 9.6145 56.0733 13.7034 57.6358 14.5699L109.428 43.2446C107.91 45.8476 106.933 49.7555 106.55 51.3842C105.892 54.1855 110.506 56.9868 113.524 56.9868C116.541 56.9903 117.097 42.8166 113.527 40.9965Z" fill="#66757F"/>
<path d="M60.7607 28.7054C59.4244 33.1702 55.1754 38.1813 55.1754 38.1813C61.3175 43.6761 68.5523 44.1633 68.5523 44.1633C68.5523 44.1633 74.8788 37.0329 76.0655 32.7491C70.6681 34.2524 60.7607 28.7054 60.7607 28.7054Z" fill="#9266CC"/>
<path d="M130 202.23C125.005 200.656 115.806 189.806 107.833 189.806C96.75 189.806 96.75 163.944 93.0555 156.556C89.3611 149.167 81.9722 141.778 81.9722 138.083C81.9722 134.389 70.8889 130.694 52.4167 138.083C33.9444 145.472 22.8611 145.472 15.4722 145.472C8.08332 145.472 4.38888 152.861 0.694435 160.25C-3.00001 167.639 0.694435 167.639 0.694435 167.639C4.38888 171.333 8.08332 160.25 15.4722 156.556C22.8611 152.861 26.5555 160.25 33.9444 156.556C39.4602 153.796 51.1532 157.217 59.8055 156.053C62.7389 155.658 65.3214 154.734 67.1944 152.861C67.1944 152.861 67.1944 182.417 74.5833 193.5C74.5833 193.5 70.8889 197.194 67.1944 208.278C63.5 219.361 59.8055 208.278 59.8055 200.889C59.8055 193.5 56.1111 182.417 41.3333 175.028C34.724 171.725 20.4302 172.504 15.4722 182.417C8.08332 197.194 15.4722 211.972 22.8611 215.667C30.25 219.361 33.9444 223.056 48.7222 223.056C55.9005 223.056 114.528 224.829 130 224.4V202.23Z" fill="#AF7E57"/>
<path d="M27.228 187.607C35.304 180.436 48.0388 181.371 56.8759 189.351C54.227 184.279 49.4648 179.095 41.3333 175.028C34.724 171.725 20.4302 172.504 15.4722 182.417C8.08334 197.194 15.4722 211.972 22.8611 215.667C23.7441 216.106 24.5716 216.55 25.377 216.982C18.6753 207.299 19.2258 194.723 27.228 187.607Z" fill="#4289C1"/>
<path d="M41.3333 195.347C40.8604 195.347 40.3875 195.166 40.0255 194.808C39.3051 194.087 39.3051 192.916 40.0255 192.196C44.215 188.006 48.5412 187.958 48.7222 187.958C49.7419 187.958 50.5694 188.786 50.5694 189.806C50.5694 190.825 49.7419 191.653 48.7222 191.653C48.6188 191.653 45.6891 191.756 42.6412 194.808C42.2791 195.166 41.8062 195.347 41.3333 195.347ZM26.5555 206.431C26.0827 206.431 25.6098 206.25 25.2477 205.891C24.5273 205.171 24.5273 204 25.2477 203.279C29.4372 199.09 33.7634 199.042 33.9444 199.042C34.9641 199.042 35.7917 199.869 35.7917 200.889C35.7917 201.909 34.9641 202.736 33.9444 202.736C33.841 202.74 30.9113 202.84 27.8634 205.891C27.5013 206.25 27.0284 206.431 26.5555 206.431Z" fill="#845636"/>
<path d="M-3 215.667H130V260H-3V215.667Z" fill="#55ACEE"/>
<path d="M19.1667 215.667C30.25 208.278 45.0278 197.194 41.3333 204.583C37.6389 211.972 37.6352 215.667 45.0278 211.972C52.4167 208.278 63.5 204.583 59.8055 211.972C56.1111 219.361 67.1944 215.667 70.8889 211.972C74.5833 208.278 85.6667 211.972 81.9722 215.667C78.2778 219.361 48.7222 223.056 37.6389 223.056C26.5555 223.056 19.1667 215.667 19.1667 215.667Z" fill="#55ACEE"/>
<g clip-path="url(#clip1_2612_2)">
<path d="M219.84 178.865C221.663 178.347 224.778 178.042 227.205 178.167C229.503 178.285 232.365 180.219 232.861 181.771C233.358 183.326 233.174 185.5 231.927 185.875C230.681 186.25 228.799 185.003 226.413 185.441C224.031 185.875 224.247 186.986 224.278 187.99C224.385 191.33 222.514 190.99 222.194 190.538C221.49 189.545 220.24 188.191 218.809 186.878C217.378 185.566 218.694 179.191 219.84 178.865Z" fill="#1C6399"/>
<path d="M260 190.556V246.111C260 246.111 260 260 246.111 260H148.889C135 260 135 246.111 135 246.111V239.167C135 239.167 194.028 204.444 260 190.556Z" fill="#E1E8ED"/>
<path d="M248.944 207.847C250.549 211.33 249.024 215.451 245.542 217.059L163.545 254.83C160.062 256.434 155.941 254.91 154.337 251.431L151.431 245.122C149.826 241.639 151.351 237.514 154.83 235.91L236.826 198.142C240.312 196.538 244.434 198.066 246.042 201.542L248.944 207.847Z" fill="#EA596E"/>
<path d="M181.875 223.326C179.09 226.458 179.812 228.969 179.924 230.163C180.035 231.358 187.948 238.427 189.257 238.844C193.448 240.184 198.997 237 198.997 234.719C198.997 233.073 198.264 231.462 196.417 229.076C194.569 226.691 193.378 223.108 192.618 221.917C191.858 220.726 183.611 221.372 181.875 223.326ZM210.646 211.059C208.396 214.531 209.434 216.92 209.701 218.09C209.969 219.257 218.542 225.215 219.854 225.455C224.066 226.229 228.965 222.34 228.656 220.083C228.431 218.451 228.653 217.781 226.552 215.66C224.455 213.538 220.215 210.715 219.323 209.632C218.431 208.549 212.049 208.892 210.646 211.059Z" fill="#1C6399"/>
<path d="M220.865 210.306C220.066 206.753 217.017 198.229 215.781 194.924C215.278 193.573 213.677 191.76 211.913 191.056L194.549 184.111C191.747 182.986 173.625 190.844 175.597 194.132C175.597 194.132 175.649 200.76 184.632 209.191C182.813 214.285 181.688 223.917 181.688 223.917C181.222 227.667 195.309 227.389 195.774 224.306C196.24 221.222 196.868 215.524 199.017 210.306C199.41 209.347 199.597 206.979 199.017 205.17C198.438 203.361 194.823 199.181 194.823 199.181C194.823 199.181 200.059 202.333 203.986 202.847C204.441 206.399 208.233 210.84 209.035 214.806C209.802 218.59 222.149 216.003 220.865 210.306Z" fill="#67757F"/>
<path d="M219.75 176.667C218.26 176.413 213.125 174.625 211.75 173.483C210.375 172.344 206.212 167.854 204.465 165.545C203.194 163.858 201.028 162.778 198.917 162.778C198.917 162.778 180.139 162.816 176.667 162.816C168.312 162.816 158.872 171.458 157.274 174.253C155.323 177.674 152.576 188.892 155.507 199.236C155.833 200.392 167.764 197.486 167.309 195.306C166.323 190.556 166.177 184.611 166.875 183.028C167.573 181.448 169.181 180.247 171.458 179.215V197.5C171.458 198.069 171.74 198.601 172.205 198.927C172.5 199.132 172.844 199.236 173.194 199.236C173.399 199.236 173.608 199.201 173.806 199.125L201.583 188.708C202.26 188.455 202.708 187.806 202.708 187.083V183.444C204.771 185.097 208.243 187.25 209.062 187.646C209.882 188.042 214.892 190.465 218.462 190.465C220.372 190.465 223.531 177.306 219.75 176.667Z" fill="#BBDDF5"/>
<path d="M244.288 148.34L240.816 137.924C240.576 137.215 239.913 136.736 239.167 136.736C238.719 136.736 228.007 136.858 213.819 147.5C200.392 157.569 197.309 157.569 190.556 157.569H180.139C179.677 157.569 179.236 157.753 178.91 158.08C177.08 159.91 176.597 162.483 177.622 164.962C178.927 168.101 183.007 171.458 190.556 171.458C195.549 171.458 202.819 167.444 211.24 162.799C221.58 157.094 233.306 150.625 242.639 150.625C243.198 150.625 243.722 150.358 244.045 149.906C244.375 149.451 244.462 148.868 244.288 148.34Z" fill="#1C6399"/>
<path d="M198.917 148.889C198.917 156.559 192.698 162.778 185.028 162.778C177.358 162.778 171.139 156.559 171.139 148.889C171.139 141.219 177.358 138.472 185.028 138.472C192.698 138.472 198.917 141.219 198.917 148.889Z" fill="#F7DECE"/>
<path d="M176.667 148.889C183.611 148.889 190.556 145.417 190.556 148.889C190.556 152.361 190.556 159.306 197.5 159.306C204.444 159.306 207.917 135 187.083 135C166.25 135 166.25 148.889 176.667 148.889Z" fill="#9AAAB4"/>
<path d="M174.931 157.569C178.766 157.569 181.875 154.46 181.875 150.625C181.875 146.79 178.766 143.681 174.931 143.681C171.095 143.681 167.986 146.79 167.986 150.625C167.986 154.46 171.095 157.569 174.931 157.569Z" fill="#67757F"/>
<path d="M174.931 154.097C176.848 154.097 178.403 152.543 178.403 150.625C178.403 148.707 176.848 147.153 174.931 147.153C173.013 147.153 171.458 148.707 171.458 150.625C171.458 152.543 173.013 154.097 174.931 154.097Z" fill="#BDDDF4"/>
<path d="M185.347 157.569C189.183 157.569 192.292 154.46 192.292 150.625C192.292 146.79 189.183 143.681 185.347 143.681C181.512 143.681 178.403 146.79 178.403 150.625C178.403 154.46 181.512 157.569 185.347 157.569Z" fill="#67757F"/>
<path d="M185.347 154.097C187.265 154.097 188.819 152.543 188.819 150.625C188.819 148.707 187.265 147.153 185.347 147.153C183.43 147.153 181.875 148.707 181.875 150.625C181.875 152.543 183.43 154.097 185.347 154.097Z" fill="#BDDDF4"/>
<path d="M157.465 196.823C154.281 199.566 154.587 202.434 155.726 204.444C156.865 206.455 157.722 206.99 159.865 206.743C161.91 206.507 164.417 204.156 165.861 202.563C167.837 200.382 166.417 197.24 166.417 197.24C166.417 197.24 167.635 196.924 168.635 196.274C169.865 195.479 170.031 192.319 168.851 192.83C165.24 194.389 161.042 193.74 157.465 196.823Z" fill="#1C6399"/>
<path d="M187.146 232.16C186.187 231.385 187.559 229.24 190.889 227.872C193.969 226.604 195.288 228.076 195.257 228.462C195.229 228.823 193.781 227.622 191.392 229.097C189.003 230.573 188.208 233.017 187.146 232.16ZM189.066 234.646C188.108 233.872 189.479 231.726 192.809 230.358C195.889 229.09 197.208 230.562 197.177 230.948C197.149 231.309 195.701 230.104 193.312 231.583C190.924 233.062 190.125 235.503 189.066 234.646ZM216.781 219.41C215.753 218.733 216.91 216.465 220.087 214.774C223.031 213.212 224.486 214.549 224.493 214.934C224.5 215.295 222.941 214.24 220.708 215.944C218.479 217.649 217.924 220.16 216.781 219.41ZM218.937 221.698C217.91 221.021 219.066 218.753 222.243 217.063C225.187 215.5 226.642 216.837 226.649 217.222C226.656 217.583 225.097 216.528 222.865 218.233C220.632 219.938 220.076 222.448 218.937 221.698Z" fill="#55ACEE"/>
</g>
<path d="M260 16.3611V110.111C260 110.111 260 124 246.111 124H148.889C135 124 135 110.111 135 110.111V92.75C135 92.75 221.806 85.8056 260 16.3611Z" fill="#4289C1"/>
<path d="M245.569 79.7049C245.569 79.7049 254.476 74.0278 253.41 71.7604C252.337 69.4896 212.514 75.1979 192.549 82.0174C162.594 92.25 146.91 108.135 149.056 112.67C151.198 117.205 175.451 119.451 205.403 109.222C225.375 102.403 258.764 83.0972 257.694 80.8299C256.622 78.5625 245.569 79.7049 245.569 79.7049Z" fill="#1C6399"/>
<path d="M244.285 77.9826C244.285 77.9826 253.486 72.3611 252.441 70.0278C251.389 67.691 210.628 72.7431 190.118 79.316C159.34 89.1806 143.024 105.094 145.125 109.764C147.226 114.434 171.941 117.198 202.712 107.337C223.233 100.764 257.688 81.7014 256.642 79.3681C255.59 77.0312 244.285 77.9826 244.285 77.9826Z" fill="#A6D388"/>
<path d="M244.285 77.9826C244.285 77.9826 252.99 72.6562 252.472 70.2222L148.042 103.09C145.535 105.997 144.503 108.378 145.125 109.764C145.667 110.972 147.747 112.045 151.028 112.812L256.566 79.5972C256.576 79.5278 256.667 79.4201 256.642 79.3681C255.59 77.0312 244.285 77.9826 244.285 77.9826Z" fill="#F5F8FA"/>
<path d="M231.372 41.4757C229.326 40.6597 226.691 40.5174 224.066 40.1354C219.906 39.5278 214.163 37.4792 211.813 36.3646C208.948 34.6458 202.865 30.5972 201.354 29.6007C199.844 28.6042 197.823 27.2222 195.33 26.7778H194.788C196.125 28.6597 196.903 30.8021 197.385 36.6424C197.385 36.6424 208.91 42.4097 209.868 42.7292C213.774 44.0312 220.917 44 224.951 44.5069C227.042 44.7708 228.497 44.4583 230.156 44.3437C232.663 44.1736 234.948 44.1528 235.094 43.0555C235.267 41.7812 233.028 42.1354 231.372 41.4757ZM186.035 2.4618C180.503 0.284714 171.878 3.09374 170.878 9.55555C169.882 15.9722 171.708 26.0382 177.347 25.4305C183.257 24.7917 189.319 23.5069 191.715 17.4201C194.111 11.3368 191.566 4.63888 186.035 2.4618Z" fill="#FFDC5D"/>
<path d="M190.146 18.9896C198.194 9.53471 178.806 10.4548 178.806 10.4548C175.135 10.5868 177.663 16.7014 175.934 20.0417C174.75 22.3507 179.736 23.5764 179.736 23.5764C179.736 23.5764 182.024 23.5417 182.146 26.3194V26.3437C182.174 27.0521 182.101 27.8889 181.771 29.0139C180.128 34.5729 187.594 37.9791 189.233 32.4097C189.882 30.2048 189.628 28.2673 189.302 26.4792L189.271 26.3194C188.771 23.6597 188.153 21.3264 190.146 18.9896ZM173.191 28.1736C167.406 31.6215 161.497 38.7604 159.372 41.7639C158.122 42.7465 156.99 43.8958 156.257 44.3194C154.906 45.0937 148.778 49.2916 144.681 51.2812C143.451 51.8576 139.618 52.8021 137.764 53.993C136.264 54.9583 134.83 54.9028 135.24 56.118C135.594 57.1667 137.003 56.868 139.5 56.5764C141.997 56.2847 146.198 55.5729 147.573 54.6111C150.351 52.7673 159.194 50.5972 163.535 47.559C164.302 47.0208 171.816 40.0486 173.191 38.0417C175.076 32.7812 174.17 29.1667 173.191 28.1736Z" fill="#FFDC5D"/>
<path d="M192.354 4.69445C188.67 0.381947 183.604 -1.40625 174.927 1.94792C167.347 4.87847 169.785 10.9028 171.552 9.87153C178.042 6.08681 181.618 11.6563 184.389 17.75C186.205 21.7465 189.806 22.9653 189.806 22.9653C189.806 22.9653 190.976 23.4236 192.972 19.4896C194.969 15.5556 196.014 8.9757 192.354 4.69445Z" fill="#FFAC33"/>
<path d="M191.462 97.7222C190.149 97.375 189.135 96.2222 188.66 94.9965C188.455 94.4687 187.392 91.5208 187.392 91.5208H181.076C181.226 92.2639 180.948 93.9375 180.611 95.6771C180.396 96.7951 180.215 98.7743 180.566 99.4722C180.917 100.17 183.403 102.042 185.083 102.385C189.378 103.271 193.733 101.198 194.264 100.59C195.035 99.7049 192.778 98.0694 191.462 97.7222ZM217.538 86.5347C216.378 86.309 215.431 85.368 214.948 84.3333C214.74 83.8854 214.184 82.0729 214.184 82.0729L208.597 82.8368C208.771 83.4722 208.503 84.2847 208.569 85.5903C208.628 86.7535 208.368 88.1875 208.715 88.7743C209.059 89.3611 210.802 90.7569 212.281 90.9583C216.059 91.4722 219.715 89.4201 220.142 88.8611C220.753 88.0451 218.698 86.7604 217.538 86.5347Z" fill="#FFDC5D"/>
<path d="M191.208 6.70486C194.247 2.14931 200.84 1.71181 203.837 5.07639C206.833 8.44097 207.951 12.8889 211.955 12.8889C213.233 12.8889 213.872 14.0833 211.219 15.2778C208.566 16.4722 197.715 18.8576 193.594 11.1528C191.75 8.875 191.208 6.70486 191.208 6.70486Z" fill="#FFAC33"/>
<path d="M214.087 76.2257C214.167 73.7743 215.517 68.6111 215.007 66.4201C214.212 63.0139 209.799 59.3125 205.712 56.184C201.625 53.0556 197.465 51.191 197.465 51.191C196.417 44.6076 198.306 41.1354 198.281 38.2882C198.26 35.9132 196.778 29.0937 194.788 26.7778H189.354C189.354 26.7778 190.208 30.2951 187.108 30.6389C184 30.9826 182.083 26.7778 182.083 26.7778L176.014 27.3576C175.049 27.5069 174.108 27.7917 173.191 28.1771C174.497 30.3958 173.99 36.1111 173.191 38.0417C176.049 42.1667 178.524 48.4687 177.17 56.2917C175.969 63.2431 178.813 69.7951 178.813 71.3056C178.813 71.3056 177.066 77.3785 178.118 81.3681C179.517 86.6771 180.785 91.3819 180.931 93.2535C185.833 93.2535 187.809 91.8993 187.809 91.8993C187.809 91.8993 186.844 89.684 187.236 86.4236C187.476 84.4375 188.455 81.3715 188.455 78.4236C188.455 75.4757 188.378 73.3507 188.816 72.1319C189.253 70.9132 190.622 66.6597 191.635 62.7431C193.49 63.7569 196.819 65.4931 198.872 66.0556C201.819 66.8611 204.059 68.1215 204.837 68.7986C205.615 69.4757 206.142 69.9618 206.142 69.9618C206.142 69.9618 205.899 72.1319 206.108 75.4583C206.299 78.5035 207.948 80.8437 208.316 84.4722C211.417 84.0104 214.354 82.6389 214.354 82.6389C214.354 82.6389 214.021 78.2396 214.087 76.2257Z" fill="#292F33"/>
<path d="M177.969 28.8403L181.108 28.5417C181.108 28.5417 185.281 33.309 188.385 32.9653C191.49 32.6215 191.306 28.2639 191.306 28.2639H195.712C195.417 27.6806 195.111 27.1562 194.788 26.7778H189.354C189.354 26.7778 190.208 30.2951 187.108 30.6389C184 30.9826 182.083 26.7778 182.083 26.7778L176.014 27.3576C175.049 27.5069 174.108 27.7917 173.191 28.1771C173.458 28.6319 173.635 29.2569 173.764 29.9444C174.965 29.5347 177.142 28.9653 177.969 28.8403ZM208.063 76.9444C207.854 73.6181 208.097 71.4479 208.097 71.4479C208.097 71.4479 207.573 70.9583 206.792 70.2847C206.556 70.0799 206.146 69.8125 205.66 69.5278L206.142 69.9653C206.142 69.9653 205.899 72.1354 206.108 75.4618C206.299 78.5069 207.948 80.8472 208.316 84.4757C208.865 84.3924 209.403 84.2778 209.927 84.1528C209.319 81.5035 208.219 79.441 208.063 76.9444ZM180.073 82.8507C179.021 78.8611 180.767 72.7882 180.767 72.7882C180.767 71.2778 177.997 63.0972 179.198 56.1458C193.087 56.0729 197.462 51.191 197.462 51.191C197.462 51.191 188.021 55.566 179.403 53.0417C179.146 46.8333 176.667 40.3299 173.476 37.1424C173.389 37.4896 173.292 37.7951 173.191 38.0382C176.049 42.1632 178.524 48.4653 177.17 56.2882C175.969 63.2396 178.813 69.7917 178.813 71.3021C178.813 71.3021 177.066 77.375 178.118 81.3646C179.517 86.6736 180.785 91.3785 180.931 93.25C181.549 93.25 182.118 93.2292 182.646 93.191C182.198 90.8576 181.184 87.059 180.073 82.8507Z" fill="#67757F"/>
</g>
</svg>
